<svg xmlns="http://www.w3.org/2000/svg" xmlns:xlink="http://www.w3.org/1999/xlink" width="166" zoomAndPan="magnify" viewBox="0 0 124.5 116.999995" height="156" preserveAspectRatio="xMidYMid meet" version="1.0"><defs><clipPath id="9ec2407daa"><path d="M 1 0.234375 L 123 0.234375 L 123 116.765625 L 1 116.765625 Z M 1 0.234375 " clip-rule="nonzero"/></clipPath><clipPath id="c0bf1dfdca"><path d="M 1 0.234375 L 123 0.234375 L 123 116.765625 L 1 116.765625 Z M 1 0.234375 " clip-rule="nonzero"/></clipPath></defs><g clip-path="url(#9ec2407daa)"><path fill="#502412" d="M 20.507812 18.667969 C 20.925781 17.628906 21.957031 16.3125 23.105469 15.5 C 21.003906 15.550781 19.175781 16.179688 17.785156 17.972656 C 17.828125 17.980469 17.871094 17.980469 17.914062 17.980469 C 18.636719 18.066406 19.605469 18.289062 20.507812 18.667969 Z M 21.871094 21.921875 C 22.515625 21.707031 20.765625 20.289062 20.484375 20.132812 C 19.699219 19.699219 18.816406 19.355469 17.914062 19.304688 C 16.25 19.207031 15.71875 20.71875 15.25 22.050781 C 16.300781 22.425781 17.828125 22.066406 18.851562 22.003906 C 19.804688 21.949219 20.953125 22.222656 21.871094 21.921875 Z M 21.726562 19.199219 C 23.433594 19.65625 27.214844 19.414062 25.746094 16.796875 C 24.648438 14.847656 22.242188 17.800781 21.726562 19.199219 Z M 29.238281 17.492188 C 29.246094 17.492188 29.257812 17.492188 29.265625 17.492188 C 29.257812 17.449219 29.238281 17.40625 29.238281 17.355469 C 29.257812 15.835938 27.644531 14.898438 26.261719 15.261719 C 26.492188 15.472656 26.707031 15.746094 26.890625 16.132812 C 27.191406 16.796875 27.359375 17.519531 27.300781 18.191406 C 27.851562 17.828125 28.527344 17.59375 29.238281 17.492188 Z M 30.75 21.980469 C 31.84375 21.871094 33.945312 20.867188 32.53125 19.585938 C 30.949219 18.144531 27.058594 18.464844 27.09375 21.085938 C 28.023438 21.886719 29.609375 22.074219 30.75 21.980469 Z M 32.867188 11.839844 C 32.796875 11.300781 32.882812 10.75 33.09375 10.242188 C 30.238281 10.886719 27.644531 12.003906 26.539062 13.890625 C 27.507812 13.824219 28.46875 14.105469 29.222656 14.660156 C 29.480469 13.1875 30.339844 11.660156 31.996094 11.722656 C 32.265625 11.730469 32.558594 11.773438 32.867188 11.839844 Z M 34.324219 14.933594 C 34.621094 13.71875 33.019531 12.976562 31.996094 13.042969 C 30.734375 13.125 30.441406 14.671875 30.457031 15.695312 C 30.457031 15.710938 30.449219 15.730469 30.441406 15.746094 C 31.234375 16.539062 34.085938 15.921875 34.324219 14.933594 Z M 36.917969 12.507812 C 38.011719 12.15625 37.871094 10.601562 37.730469 9.558594 C 36.785156 9.632812 35.785156 9.746094 34.796875 9.914062 C 34.789062 9.933594 34.789062 9.941406 34.773438 9.957031 C 34.304688 10.585938 33.609375 12.164062 34.804688 12.472656 C 35.40625 12.621094 36.324219 12.691406 36.917969 12.507812 Z M 40.695312 13.25 C 39.226562 12.410156 38.136719 13.9375 37.757812 15.261719 C 37.730469 15.359375 37.683594 15.472656 37.683594 15.578125 C 37.984375 15.652344 38.382812 15.722656 38.652344 15.542969 C 38.867188 15.410156 39.070312 15.269531 39.273438 15.136719 C 39.226562 14.757812 39.433594 14.339844 39.839844 14.261719 C 40.28125 14.183594 40.515625 13.773438 40.695312 13.25 Z M 41.726562 20.109375 C 42.617188 20.160156 42.488281 19.234375 42.179688 18.625 C 42.085938 18.417969 42.085938 18.234375 42.15625 18.074219 C 42.113281 18.058594 42.070312 18.039062 42.035156 18.023438 C 41.984375 18.039062 41.929688 18.058594 41.871094 18.066406 C 41.082031 18.121094 40.15625 18.402344 39.644531 19.046875 C 39.195312 19.621094 39.183594 19.929688 39.90625 19.992188 C 40.507812 20.042969 41.125 20.082031 41.726562 20.109375 Z M 42.714844 10.449219 C 42.671875 10.082031 42.617188 9.726562 42.574219 9.394531 C 42.515625 9.402344 42.441406 9.410156 42.371094 9.410156 C 41.503906 9.382812 40.351562 9.394531 39.042969 9.460938 C 39.132812 10.242188 39.183594 11.058594 39.011719 11.832031 C 39.628906 11.589844 40.332031 11.597656 41.082031 11.960938 C 41.25 11.457031 41.46875 11.007812 41.863281 10.777344 C 42.132812 10.621094 42.414062 10.519531 42.714844 10.449219 Z M 60.613281 18.445312 C 60.882812 17.097656 56.710938 17.671875 55.890625 17.808594 C 55.191406 17.9375 54.570312 18.039062 54.011719 18.136719 C 53.5 18.234375 53.050781 18.429688 52.632812 18.570312 C 51.816406 18.878906 51.164062 19.035156 50.734375 19.027344 C 50.3125 19.011719 50.148438 18.925781 50.148438 18.835938 C 50.148438 18.738281 50.3125 18.648438 50.640625 18.527344 C 50.984375 18.375 51.480469 18.128906 52.253906 17.714844 C 52.640625 17.511719 53.101562 17.257812 53.730469 17.070312 C 54.332031 16.914062 54.964844 16.777344 55.707031 16.605469 C 56.382812 16.496094 57.15625 16.417969 57.980469 16.382812 C 57.851562 16.355469 57.699219 16.339844 57.570312 16.3125 C 56.871094 16.195312 56.203125 16.089844 55.566406 15.996094 C 55.238281 15.921875 54.957031 15.929688 54.671875 15.921875 C 54.390625 15.921875 54.117188 15.886719 53.835938 15.929688 C 53.550781 15.960938 53.285156 15.996094 53.023438 16.019531 C 52.75 16.054688 52.476562 16.089844 52.21875 16.132812 C 51.710938 16.214844 51.171875 16.238281 50.699219 16.285156 C 49.738281 16.3125 48.902344 16.269531 48.167969 16.144531 C 46.695312 15.859375 45.820312 15.242188 45.324219 14.863281 C 44.851562 14.449219 44.679688 14.21875 44.738281 14.148438 C 44.796875 14.078125 45.0625 14.160156 45.601562 14.425781 C 46.15625 14.648438 46.996094 15.078125 48.300781 15.207031 C 48.957031 15.269531 49.738281 15.261719 50.628906 15.191406 C 51.074219 15.121094 51.523438 15.078125 52.046875 14.976562 C 52.546875 14.871094 53.109375 14.785156 53.730469 14.714844 C 54.03125 14.660156 54.363281 14.679688 54.699219 14.679688 C 55.035156 14.679688 55.386719 14.671875 55.707031 14.734375 C 56.359375 14.828125 57.054688 14.925781 57.78125 15.03125 C 58.144531 15.085938 58.511719 15.136719 58.890625 15.191406 C 59.261719 15.269531 59.652344 15.359375 60.039062 15.4375 C 60.164062 15.464844 60.289062 15.5 60.410156 15.523438 C 59.597656 14.785156 58.710938 14.070312 57.644531 13.890625 C 55.636719 13.558594 53.894531 13.972656 51.929688 13.839844 C 49.933594 13.707031 48.414062 13.179688 46.507812 12.570312 C 45.039062 12.089844 42.433594 11.8125 42.25 13.929688 C 42.222656 14.253906 42.132812 14.605469 41.964844 14.890625 C 41.789062 15.191406 41.578125 15.367188 41.347656 15.5 C 43.132812 17.617188 45.71875 17.335938 48.207031 18.351562 C 48.777344 18.582031 49.078125 19.453125 48.398438 19.796875 C 47.808594 20.101562 49.394531 21.5 49.765625 21.554688 C 50.613281 21.695312 51.929688 20.667969 52.707031 20.371094 C 55.167969 19.390625 57.9375 18.445312 60.613281 18.445312 Z M 62.5 12.613281 C 62.566406 12.527344 62.617188 12.433594 62.667969 12.347656 C 62.582031 12.296875 62.492188 12.226562 62.421875 12.117188 C 60.773438 9.90625 59.148438 7.917969 56.03125 8.148438 C 55.019531 8.21875 53.757812 8.304688 52.820312 7.75 C 52.035156 7.28125 51.4375 6.796875 50.878906 6.035156 C 49.582031 4.285156 46.597656 3.242188 46.363281 6.320312 C 46.324219 6.753906 46.027344 7.097656 45.566406 7.109375 C 43.527344 7.152344 43.976562 9.023438 44.25 10.355469 C 45.195312 10.449219 46.140625 10.75 46.9375 11.042969 C 49.128906 11.847656 51.136719 12.3125 53.507812 12.183594 C 54.921875 12.101562 56.675781 11.875 58.074219 12.355469 C 59.449219 12.84375 60.496094 13.585938 61.546875 14.457031 C 61.644531 14.238281 61.75 14.007812 61.855469 13.789062 C 61.019531 13.144531 60.09375 12.683594 59.210938 12.339844 C 58 11.882812 56.84375 11.597656 55.792969 11.464844 C 54.769531 11.351562 53.78125 11.367188 52.882812 11.324219 C 51.988281 11.273438 51.203125 11.164062 50.535156 11.007812 C 49.183594 10.691406 48.3125 10.105469 47.914062 9.625 C 47.710938 9.375 47.605469 9.179688 47.558594 9.039062 C 47.515625 8.898438 47.515625 8.828125 47.550781 8.800781 C 47.753906 8.621094 48.195312 9.71875 50.710938 10.082031 C 51.335938 10.167969 52.070312 10.222656 52.914062 10.222656 C 53.765625 10.222656 54.742188 10.160156 55.929688 10.257812 C 57.082031 10.363281 58.335938 10.648438 59.679688 11.128906 C 60.59375 11.472656 61.578125 11.933594 62.5 12.613281 Z M 64.902344 9.667969 C 65.511719 9.101562 66.171875 8.613281 66.859375 8.21875 C 65.589844 7.289062 63.992188 6.730469 63.191406 5.28125 C 62.308594 3.683594 62.378906 3.433594 60.496094 3.019531 C 57.65625 2.386719 52.089844 0.988281 52.535156 5.5625 C 53.171875 6.222656 53.953125 6.699219 55.050781 6.621094 C 56.394531 6.535156 57.304688 6.328125 58.589844 6.636719 C 60.660156 7.132812 62.371094 9.410156 63.605469 11.070312 C 63.71875 10.921875 63.84375 10.769531 63.964844 10.628906 C 63.484375 10.269531 63.074219 9.875 62.722656 9.515625 C 62.113281 8.871094 61.621094 8.269531 61.175781 7.761719 C 60.296875 6.707031 59.5625 6.019531 58.925781 5.597656 C 58.300781 5.183594 57.800781 5.015625 57.472656 4.902344 C 57.144531 4.792969 56.984375 4.699219 56.984375 4.609375 C 56.984375 4.515625 57.136719 4.441406 57.53125 4.386719 C 57.921875 4.34375 58.566406 4.394531 59.386719 4.785156 C 60.207031 5.167969 61.125 5.90625 62.078125 6.9375 C 62.574219 7.445312 63.074219 8.027344 63.648438 8.605469 C 64.027344 8.980469 64.445312 9.347656 64.902344 9.667969 Z M 72.878906 6.402344 C 70.816406 5.15625 68.140625 5.039062 65.75 5.519531 C 66.402344 6.011719 67.125 6.429688 67.804688 6.957031 C 68.042969 7.132812 68.132812 7.382812 68.132812 7.625 C 69.667969 6.992188 71.253906 6.601562 72.878906 6.402344 Z M 105.628906 28.25 C 106.433594 23.210938 100.625 18.511719 95.351562 15.394531 C 94.210938 16.664062 93.355469 17.867188 92.722656 18.898438 C 91.988281 20.089844 91.492188 21.0625 91.160156 21.808594 C 90.980469 22.1875 90.839844 22.515625 90.714844 22.78125 C 90.617188 23.054688 90.53125 23.277344 90.449219 23.441406 C 90.292969 23.785156 90.171875 23.929688 90.082031 23.910156 C 89.984375 23.902344 89.941406 23.726562 89.949219 23.335938 C 89.949219 23.140625 89.96875 22.886719 90.011719 22.574219 C 90.0625 22.265625 90.164062 21.914062 90.277344 21.484375 C 90.523438 20.636719 90.953125 19.566406 91.660156 18.28125 C 92.25 17.214844 93.066406 16.003906 94.175781 14.722656 C 92.613281 13.847656 91.140625 13.136719 89.96875 12.605469 C 87.628906 11.546875 84.96875 10.492188 82.21875 9.753906 C 81.429688 10.363281 80.789062 11.265625 80.238281 12.066406 C 79.894531 12.597656 79.558594 13.101562 79.25 13.585938 C 78.925781 14.078125 78.589844 14.539062 78.289062 14.933594 C 77.0625 16.585938 76.242188 17.902344 75.792969 18.984375 C 75.589844 19.535156 75.394531 20 75.308594 20.40625 C 75.179688 20.804688 75.101562 21.140625 75.058594 21.394531 C 74.9375 21.914062 74.839844 22.144531 74.742188 22.144531 C 74.65625 22.144531 74.582031 21.914062 74.539062 21.351562 C 74.511719 21.070312 74.519531 20.71875 74.582031 20.265625 C 74.609375 19.808594 74.75 19.285156 74.914062 18.660156 C 75.292969 17.421875 76.101562 15.929688 77.292969 14.226562 C 77.59375 13.796875 77.894531 13.363281 78.183594 12.894531 C 78.496094 12.398438 78.820312 11.890625 79.15625 11.351562 C 79.515625 10.8125 79.894531 10.242188 80.390625 9.675781 C 80.480469 9.566406 80.574219 9.472656 80.667969 9.367188 C 77.371094 8.652344 74.011719 8.472656 70.9375 9.394531 C 67.238281 10.503906 64.515625 13.136719 63.5625 16.957031 C 62.589844 20.882812 64.222656 22.550781 66.738281 23.425781 C 67.277344 20.441406 68.21875 18.472656 69.015625 17.378906 C 69.453125 16.734375 69.855469 16.355469 70.117188 16.132812 C 70.382812 15.914062 70.542969 15.851562 70.613281 15.914062 C 70.679688 15.976562 70.65625 16.144531 70.527344 16.453125 C 70.390625 16.761719 70.132812 17.191406 69.828125 17.855469 C 69.253906 19.003906 68.492188 20.847656 68.019531 23.792969 C 69.117188 24.058594 70.320312 24.238281 71.511719 24.421875 C 74.453125 24.875 77.386719 25.453125 80.339844 26.042969 C 80.671875 24.507812 81.148438 23.238281 81.628906 22.214844 C 82.246094 20.917969 82.832031 19.972656 83.335938 19.292969 C 83.84375 18.605469 84.25 18.183594 84.539062 17.9375 C 84.832031 17.6875 84.988281 17.617188 85.058594 17.679688 C 85.128906 17.742188 85.105469 17.917969 84.953125 18.253906 C 84.796875 18.589844 84.511719 19.070312 84.136719 19.796875 C 83.742188 20.503906 83.269531 21.457031 82.746094 22.703125 C 82.339844 23.691406 81.929688 24.890625 81.628906 26.300781 C 85.570312 27.089844 89.523438 27.835938 93.488281 28.261719 C 94.070312 27.175781 94.5625 26.214844 95.039062 25.410156 C 95.667969 24.351562 96.207031 23.554688 96.679688 22.992188 C 97.148438 22.417969 97.539062 22.074219 97.8125 21.878906 C 98.074219 21.6875 98.226562 21.640625 98.296875 21.707031 C 98.367188 21.765625 98.339844 21.933594 98.199219 22.222656 C 98.058594 22.507812 97.804688 22.917969 97.457031 23.527344 C 97.097656 24.128906 96.65625 24.941406 96.117188 26 C 95.753906 26.679688 95.367188 27.492188 94.898438 28.402344 C 98.324219 28.695312 101.765625 28.710938 105.226562 28.242188 C 105.363281 28.226562 105.5 28.234375 105.628906 28.25 Z M 115.796875 37.574219 C 112.9375 34.878906 110.617188 31.527344 106.546875 30.652344 C 106.511719 30.644531 106.480469 30.628906 106.445312 30.617188 C 106.308594 30.707031 106.132812 30.765625 105.929688 30.792969 C 98.289062 31.824219 90.777344 30.757812 83.269531 29.28125 C 79.121094 28.464844 74.988281 27.589844 70.808594 26.972656 C 68.765625 26.671875 66.59375 26.445312 64.699219 25.578125 C 62 24.359375 60.753906 22.1875 60.558594 19.773438 C 55.105469 18.914062 52.175781 24.609375 46.863281 22.058594 C 45.324219 21.324219 45.566406 20.230469 46.335938 19.371094 C 45.363281 19.082031 44.4375 18.878906 43.5625 18.613281 C 43.855469 19.664062 43.785156 20.988281 42.601562 21.34375 C 42 21.527344 41.382812 21.386719 40.773438 21.359375 C 40.234375 21.34375 39.628906 21.359375 39.113281 21.175781 C 37.964844 20.753906 37.703125 19.613281 38.367188 18.589844 C 38.886719 17.777344 39.679688 17.273438 40.558594 16.992188 C 40.34375 16.777344 40.128906 16.53125 39.925781 16.269531 C 39.628906 16.460938 39.355469 16.707031 39.019531 16.832031 C 38.515625 17.019531 37.828125 17.042969 37.324219 16.855469 C 36.449219 16.523438 36.195312 15.773438 36.476562 14.90625 C 36.601562 14.539062 36.753906 14.167969 36.953125 13.816406 C 36.703125 13.859375 36.4375 13.882812 36.175781 13.890625 C 36.007812 13.890625 35.824219 13.890625 35.644531 13.890625 C 35.707031 14.125 35.734375 14.363281 35.707031 14.625 C 35.535156 16.339844 34.144531 17.042969 32.566406 17.292969 C 31.9375 17.386719 31.207031 17.398438 30.554688 17.222656 C 30.554688 17.265625 30.5625 17.308594 30.5625 17.355469 C 30.5625 17.386719 30.546875 17.421875 30.539062 17.457031 C 31.886719 17.558594 33.335938 18.066406 33.925781 19.242188 C 36.203125 23.679688 28.023438 24.265625 25.902344 21.792969 C 25.738281 21.589844 25.71875 21.371094 25.769531 21.175781 C 25.769531 21.164062 25.761719 21.164062 25.761719 21.15625 C 25.753906 20.820312 25.796875 20.519531 25.859375 20.230469 C 25.011719 20.636719 24.058594 20.804688 23.105469 20.769531 C 23.210938 20.988281 23.289062 21.226562 23.324219 21.472656 C 23.597656 23.460938 21.324219 23.355469 19.9375 23.320312 C 18.164062 23.265625 15.761719 24.042969 14.171875 22.992188 C 14.078125 22.917969 14.007812 22.839844 13.964844 22.753906 C 13.800781 22.609375 13.722656 22.402344 13.820312 22.136719 C 13.945312 21.800781 14.066406 21.441406 14.210938 21.085938 C 11.289062 22.804688 8.445312 24.316406 6.109375 26.699219 C 8.96875 25.792969 12.003906 25.542969 15.03125 25.640625 C 19.589844 25.792969 23.882812 25.71875 28.433594 25.433594 C 33.484375 25.125 38.25 26.460938 43.210938 27.105469 C 48.34375 27.777344 53.472656 28.429688 58.582031 29.246094 C 69.835938 31.050781 81.042969 32.859375 92.464844 33.230469 C 97.402344 33.394531 101.90625 34.414062 106.652344 35.796875 C 109.621094 36.664062 112.753906 36.988281 115.796875 37.574219 Z M 115.640625 103.734375 C 116.007812 101.703125 116.386719 99.667969 116.765625 97.640625 C 106.523438 98.371094 95.632812 95.21875 85.613281 93.605469 C 74.082031 91.742188 62.472656 89.964844 51.007812 87.722656 C 45.054688 86.5625 39.210938 85.007812 33.316406 83.585938 C 28.066406 82.316406 22.773438 81.601562 17.484375 80.535156 C 16.671875 80.375 12.355469 80.082031 12.273438 79.824219 C 12.417969 80.277344 12.613281 80.800781 12.574219 81.28125 C 12.523438 82.261719 12.558594 82.421875 11.988281 83.121094 C 10.855469 84.460938 11.148438 85.703125 11.09375 87.433594 C 11.035156 89.597656 10.75 91.742188 10.640625 93.90625 C 18.359375 95.957031 26.046875 98.128906 33.84375 99.824219 C 42.671875 101.746094 51.621094 103.007812 60.503906 104.582031 C 69.90625 106.25 79.347656 107.847656 88.660156 109.945312 C 97.042969 111.835938 105.417969 113.914062 114.050781 113.886719 C 114.414062 110.980469 114.871094 108.085938 115.382812 105.199219 C 114.9375 104.933594 114.335938 104.21875 113.769531 103.367188 C 113.359375 102.773438 113.023438 102.234375 112.816406 101.847656 C 112.566406 101.429688 112.429688 101.085938 112.566406 100.929688 C 112.699219 100.785156 113.042969 100.804688 113.511719 101.058594 C 114.023438 101.359375 114.554688 101.875 114.996094 102.527344 C 115.277344 102.949219 115.488281 103.367188 115.640625 103.734375 Z M 119.753906 76.535156 C 119.867188 74.609375 119.917969 72.695312 119.945312 70.773438 C 116.734375 71.125 113.460938 70.824219 110.222656 70.753906 C 105.648438 70.660156 101.035156 70.402344 96.535156 69.527344 C 86.644531 67.605469 76.816406 65.910156 66.816406 64.65625 C 56.710938 63.386719 46.628906 61.910156 36.476562 61.027344 C 31.378906 60.589844 26.246094 60.4375 21.144531 60.023438 C 17.476562 59.730469 13.980469 58.570312 10.34375 58.0625 C 11.003906 62.21875 11.878906 66.640625 11.800781 70.78125 C 11.722656 74.664062 22.65625 75.023438 25.824219 75.460938 C 31.328125 76.207031 36.777344 76.667969 42.1875 78 C 47.875 79.410156 53.667969 81.34375 59.535156 81.824219 C 69.527344 82.640625 79.164062 82.722656 88.679688 86.144531 C 94.308594 88.175781 99.738281 88.476562 105.640625 89.023438 C 107.632812 89.207031 109.335938 89.695312 111.269531 90.179688 C 113.691406 90.789062 115.71875 90.4375 118.097656 90.238281 C 118.859375 85.695312 119.488281 81.144531 119.753906 76.535156 Z M 110.070312 61.886719 C 113.359375 62.933594 116.484375 64.445312 119.945312 64.402344 C 119.847656 57.648438 119.488281 50.894531 119.328125 44.144531 C 114.242188 44.199219 108.660156 44.667969 103.980469 42.839844 C 98.65625 40.769531 93.847656 39.539062 88.09375 39.1875 C 76.863281 38.480469 65.765625 36.785156 54.476562 36.484375 C 48.40625 36.328125 42.40625 36.382812 36.332031 36.75 C 31.550781 37.035156 27.492188 36.371094 22.816406 35.660156 C 19.847656 35.199219 10.898438 32.558594 10.0625 37.367188 C 9.300781 41.695312 10.601562 46.015625 9.628906 50.316406 C 12.941406 51.878906 18.152344 51.921875 21.65625 52.785156 C 26.890625 54.074219 32.203125 54.773438 37.585938 55.082031 C 47.683594 55.652344 57.734375 55.855469 67.785156 57.15625 C 77.734375 58.441406 87.65625 60.191406 97.671875 60.871094 C 101.703125 61.144531 106.167969 60.648438 110.070312 61.886719 Z M 119.960938 69.203125 C 119.96875 68.125 119.980469 67.054688 119.96875 65.988281 C 116.3125 66.042969 113.203125 64.339844 109.648438 63.421875 C 104.78125 62.167969 99.34375 62.671875 94.34375 62.175781 C 83.785156 61.144531 73.339844 59.253906 62.78125 58.152344 C 52.175781 57.039062 41.425781 57.4375 30.855469 56.078125 C 26.5625 55.53125 22.449219 54.527344 18.242188 53.582031 C 14.949219 52.839844 11.242188 53.09375 8.242188 51.382812 C 7.773438 51.117188 7.78125 50.609375 8.023438 50.261719 C 8.03125 50.234375 8.023438 50.21875 8.03125 50.191406 C 9.558594 44.144531 5 32.550781 15.03125 33.042969 C 19.230469 33.257812 23.316406 34.269531 27.453125 34.933594 C 33.542969 35.902344 39.734375 34.722656 45.855469 34.757812 C 59.035156 34.84375 71.898438 36.511719 84.996094 37.394531 C 90.777344 37.78125 96.363281 37.988281 101.773438 40.246094 C 106.78125 42.347656 116.414062 42.539062 119.300781 42.546875 C 119.292969 41.738281 119.273438 40.925781 119.265625 40.113281 C 119.214844 40.085938 119.160156 40.050781 119.101562 40.023438 C 115.039062 38.734375 110.371094 38.542969 106.230469 37.324219 C 101.070312 35.816406 96.195312 35.023438 90.824219 34.757812 C 80.957031 34.253906 71.230469 32.945312 61.496094 31.324219 C 55.421875 30.308594 49.324219 29.453125 43.210938 28.695312 C 38.847656 28.164062 34.382812 26.664062 29.972656 26.929688 C 25.753906 27.195312 21.753906 27.5625 17.519531 27.332031 C 13.175781 27.097656 8.703125 27.070312 4.6875 28.949219 C 2.726562 38.984375 4.640625 49.238281 5.316406 59.316406 C 6.054688 70.488281 6.3125 81.679688 6.707031 92.871094 C 7.492188 93.074219 8.269531 93.277344 9.054688 93.488281 C 9.136719 91.070312 9.214844 88.554688 9.480469 86.191406 C 9.566406 85.414062 9.136719 83.578125 9.699219 82.941406 C 10.769531 81.753906 10.496094 81 10.589844 79.640625 C 10.632812 79.050781 10.769531 78.828125 11.269531 78.511719 C 12.136719 77.964844 14.128906 78.292969 14.960938 78.441406 C 18.039062 78.996094 21.144531 79.402344 24.226562 79.976562 C 30.105469 81.085938 35.851562 82.640625 41.65625 84.0625 C 54.109375 87.097656 66.851562 88.769531 79.464844 90.976562 C 85.957031 92.113281 92.492188 93.234375 99.019531 94.214844 C 105.039062 95.105469 110.96875 96.472656 117.070312 96.027344 C 117.324219 94.644531 117.582031 93.25 117.820312 91.863281 C 115.933594 92.066406 113.953125 92.488281 112.109375 92.03125 C 109.921875 91.484375 107.925781 90.761719 105.640625 90.609375 C 101.234375 90.324219 96.648438 90.367188 92.382812 89.058594 C 88.257812 87.808594 84.214844 85.757812 79.921875 85.148438 C 75.246094 84.488281 70.558594 84.175781 65.855469 83.867188 C 56.402344 83.25 47.796875 80.640625 38.574219 78.8125 C 29.285156 76.964844 19.882812 76.371094 10.640625 74.117188 C 10.324219 74.035156 10.023438 73.691406 10.0625 73.347656 C 10.554688 68.273438 9.363281 62.289062 8.613281 57.234375 C 8.5 56.421875 9.488281 56 9.9375 56.414062 C 14.296875 56.945312 18.417969 58.292969 22.851562 58.511719 C 27.394531 58.734375 31.9375 59.027344 36.476562 59.4375 C 46.058594 60.324219 55.601562 61.65625 65.152344 62.855469 C 74.105469 63.988281 83.097656 65.105469 91.941406 66.949219 C 97.4375 68.101562 102.90625 69.003906 108.53125 69.132812 C 112.269531 69.210938 116.21875 69.671875 119.960938 69.203125 Z M 121.902344 39.300781 C 121.96875 52.25 123.429688 65.285156 122.277344 78.210938 C 121.179688 90.453125 118.074219 102.355469 116.609375 114.539062 C 116.59375 114.652344 116.566406 114.757812 116.527344 114.863281 C 116.679688 115.605469 116.277344 116.496094 115.289062 116.523438 C 106.503906 116.753906 98.003906 114.765625 89.496094 112.839844 C 80.222656 110.761719 70.84375 109.09375 61.484375 107.429688 C 52.054688 105.765625 42.496094 104.492188 33.140625 102.382812 C 23.863281 100.285156 14.710938 97.65625 5.496094 95.296875 C 5.25 95.226562 5.066406 95.113281 4.914062 94.972656 C 4.464844 94.804688 4.105469 94.414062 4.085938 93.796875 C 3.652344 81.730469 3.480469 69.648438 2.542969 57.617188 C 1.78125 47.84375 0.238281 37.996094 2.128906 28.261719 C 1.984375 27.941406 1.996094 27.554688 2.277344 27.160156 C 5.359375 22.910156 9.308594 21.183594 13.578125 18.382812 C 15.808594 16.921875 16.488281 14.371094 19.1875 13.550781 C 20.835938 13.054688 22.425781 12.828125 24.113281 12.886719 C 27.085938 7.230469 36.828125 6.648438 42.371094 6.761719 C 42.476562 6.761719 42.582031 6.773438 42.671875 6.796875 C 42.960938 6.136719 43.605469 5.695312 44.875 5.5625 C 45.460938 2.632812 48.019531 0.25 50.792969 3.382812 C 50.878906 3.476562 50.964844 3.585938 51.046875 3.691406 C 51.726562 1.027344 54.742188 0.460938 57.746094 0.894531 C 59.378906 1.125 61.902344 1.253906 63.277344 2.214844 C 63.632812 2.464844 63.792969 2.859375 63.949219 3.261719 C 64.019531 3.226562 64.101562 3.1875 64.1875 3.160156 C 68.300781 2.078125 73.507812 2.4375 76.402344 5.933594 C 76.480469 6.035156 76.542969 6.144531 76.597656 6.25 C 81.988281 6.472656 87.484375 8.414062 92.121094 10.707031 C 98.441406 13.824219 109.046875 20.167969 108.25 28.367188 C 113.574219 30.085938 115.851562 35.574219 120.808594 37.933594 C 120.914062 37.988281 121.007812 38.046875 121.085938 38.109375 C 121.53125 38.277344 121.902344 38.675781 121.902344 39.300781 " fill-opacity="1" fill-rule="nonzero"/></g><path fill="#502412" d="M 113.425781 81.308594 C 114.378906 82.464844 114.621094 83.695312 114.253906 83.867188 C 113.882812 84.054688 113.109375 83.257812 112.285156 82.269531 C 111.871094 81.789062 111.511719 81.328125 111.296875 81.019531 C 111.039062 80.664062 110.832031 80.375 110.945312 80.191406 C 111.050781 80.03125 111.367188 79.953125 111.855469 80.125 C 112.398438 80.328125 112.9375 80.742188 113.425781 81.308594 " fill-opacity="1" fill-rule="nonzero"/><path fill="#502412" d="M 113.140625 103.683594 C 113.976562 104.777344 114.289062 105.84375 113.960938 106.082031 C 113.625 106.320312 112.746094 105.617188 111.976562 104.617188 C 111.304688 103.734375 110.582031 102.792969 110.875 102.472656 C 111.136719 102.199219 112.171875 102.492188 113.140625 103.683594 " fill-opacity="1" fill-rule="nonzero"/><path fill="#502412" d="M 111.402344 82.976562 C 112.664062 84.097656 113.28125 85.28125 113.007812 85.566406 C 112.707031 85.863281 111.570312 85.113281 110.429688 84.109375 C 109.847656 83.613281 109.335938 83.164062 109.019531 82.84375 C 108.640625 82.5 108.359375 82.226562 108.445312 82.03125 C 108.523438 81.847656 108.875 81.753906 109.441406 81.882812 C 110.058594 82.039062 110.75 82.433594 111.402344 82.976562 " fill-opacity="1" fill-rule="nonzero"/><path fill="#502412" d="M 109.605469 47.5 C 110.96875 48.558594 111.984375 49.609375 111.753906 49.964844 C 111.535156 50.300781 110.121094 49.785156 108.6875 48.664062 C 107.203125 47.476562 106.488281 46.210938 106.753906 45.921875 C 107.046875 45.601562 108.308594 46.460938 109.605469 47.5 " fill-opacity="1" fill-rule="nonzero"/><path fill="#502412" d="M 108.023438 49.011719 C 109.304688 50.070312 110.257812 50.96875 110.058594 51.367188 C 109.894531 51.71875 108.429688 51.277344 107.089844 50.164062 C 105.816406 49.097656 104.882812 48.019531 105.140625 47.683594 C 105.382812 47.367188 106.6875 47.886719 108.023438 49.011719 " fill-opacity="1" fill-rule="nonzero"/><path fill="#502412" d="M 90.550781 102.253906 C 90.59375 102.664062 90.46875 102.929688 90.285156 102.992188 C 89.871094 103.09375 89.375 102.507812 88.78125 101.898438 C 88.480469 101.589844 88.214844 101.296875 88.050781 101.050781 C 87.828125 100.785156 87.691406 100.53125 87.777344 100.347656 C 87.863281 100.160156 88.121094 100.054688 88.507812 100.097656 C 88.945312 100.179688 89.445312 100.433594 89.871094 100.878906 C 90.285156 101.324219 90.515625 101.847656 90.550781 102.253906 " fill-opacity="1" fill-rule="nonzero"/><path fill="#502412" d="M 87.890625 102.171875 C 88.644531 103.171875 88.917969 104.140625 88.589844 104.386719 C 88.265625 104.636719 87.417969 104.007812 86.71875 103.09375 C 86.128906 102.285156 85.5 101.386719 85.792969 101.078125 C 86.066406 100.792969 87.019531 101.058594 87.890625 102.171875 " fill-opacity="1" fill-rule="nonzero"/><path fill="#502412" d="M 86.972656 71.839844 C 87.253906 72.28125 87.28125 72.652344 87.117188 72.765625 C 86.9375 72.890625 86.644531 72.785156 86.257812 72.609375 C 85.878906 72.421875 85.355469 72.175781 84.8125 71.863281 C 84.257812 71.585938 83.742188 71.304688 83.425781 71.097656 C 83.0625 70.878906 82.746094 70.703125 82.78125 70.480469 C 82.808594 70.296875 83.0625 70.09375 83.585938 70.058594 C 84.167969 70.03125 84.832031 70.207031 85.519531 70.550781 C 86.179688 70.921875 86.703125 71.390625 86.972656 71.839844 " fill-opacity="1" fill-rule="nonzero"/><path fill="#502412" d="M 84.1875 72.679688 C 85.375 73.359375 86.164062 74.179688 85.941406 74.53125 C 85.722656 74.875 84.582031 74.609375 83.390625 73.941406 C 82.226562 73.234375 81.457031 72.378906 81.679688 72.027344 C 81.886719 71.683594 83.019531 71.972656 84.1875 72.679688 " fill-opacity="1" fill-rule="nonzero"/><path fill="#502412" d="M 83.878906 42.167969 C 85.140625 43.441406 86.042969 44.53125 85.792969 44.890625 C 85.578125 45.226562 84.125 44.53125 82.832031 43.226562 C 81.621094 41.992188 80.65625 40.792969 80.933594 40.476562 C 81.199219 40.183594 82.546875 40.820312 83.878906 42.167969 " fill-opacity="1" fill-rule="nonzero"/><path fill="#502412" d="M 81.175781 43.308594 C 81.757812 44.164062 81.945312 45.039062 81.601562 45.257812 C 81.253906 45.476562 80.496094 44.960938 79.90625 44.085938 C 79.347656 43.199219 79.191406 42.308594 79.542969 42.101562 C 79.894531 41.886719 80.628906 42.425781 81.175781 43.308594 " fill-opacity="1" fill-rule="nonzero"/><path fill="#502412" d="M 57.257812 41.4375 C 57.4375 41.800781 56.617188 42.617188 55.273438 43.234375 C 54.539062 43.511719 53.851562 43.679688 53.394531 43.617188 C 52.914062 43.589844 52.597656 43.476562 52.554688 43.269531 C 52.425781 42.855469 53.59375 42.347656 54.683594 41.871094 C 55.902344 41.3125 57.082031 41.058594 57.257812 41.4375 " fill-opacity="1" fill-rule="nonzero"/><path fill="#502412" d="M 53.675781 39.035156 C 55.230469 38.734375 56.632812 39.054688 56.597656 39.449219 C 56.570312 39.882812 55.441406 40.21875 53.933594 40.503906 C 52.246094 40.8125 51.035156 40.425781 51.007812 40.03125 C 50.976562 39.609375 52.296875 39.300781 53.675781 39.035156 " fill-opacity="1" fill-rule="nonzero"/><path fill="#502412" d="M 55.175781 96.824219 C 55.980469 97.734375 56.578125 98.484375 56.375 98.871094 C 56.210938 99.226562 54.984375 98.871094 54.066406 97.804688 C 53.191406 96.773438 52.828125 95.75 53.136719 95.492188 C 53.464844 95.226562 54.382812 95.871094 55.175781 96.824219 " fill-opacity="1" fill-rule="nonzero"/><path fill="#502412" d="M 55.917969 67.046875 C 56.308594 67.664062 56.261719 68.144531 56.082031 68.203125 C 55.882812 68.292969 55.59375 68.035156 55.15625 67.78125 C 54.734375 67.515625 54.117188 67.261719 53.335938 67.046875 C 51.761719 66.640625 50.3125 66.503906 50.269531 66.066406 C 50.21875 65.6875 51.753906 65.113281 53.71875 65.609375 C 54.691406 65.859375 55.539062 66.4375 55.917969 67.046875 " fill-opacity="1" fill-rule="nonzero"/><path fill="#502412" d="M 53.214844 68.363281 C 54.453125 68.945312 55.292969 69.554688 55.207031 69.96875 C 55.121094 70.367188 53.835938 70.316406 52.609375 69.722656 C 51.566406 69.210938 50.449219 68.6875 50.570312 68.273438 C 50.675781 67.914062 51.769531 67.707031 53.214844 68.363281 " fill-opacity="1" fill-rule="nonzero"/><path fill="#502412" d="M 53.214844 98.414062 C 54.546875 99.445312 55.398438 100.550781 55.121094 100.859375 C 54.847656 101.167969 53.644531 100.636719 52.433594 99.675781 C 51.066406 98.808594 50.128906 97.820312 50.347656 97.476562 C 50.5625 97.125 51.851562 97.546875 53.214844 98.414062 " fill-opacity="1" fill-rule="nonzero"/><path fill="#502412" d="M 37.707031 23.441406 C 38.027344 23.414062 38.746094 23.382812 38.558594 23.097656 C 38.285156 22.675781 37.683594 22.347656 37.183594 22.324219 C 36.539062 22.277344 36.113281 22.542969 35.785156 23.046875 C 36.210938 23.449219 37.21875 23.476562 37.707031 23.441406 Z M 39.890625 22.867188 C 40.421875 25.492188 35.613281 25.054688 34.570312 23.636719 C 34.4375 23.460938 34.417969 23.285156 34.480469 23.125 C 34.410156 22.96875 34.410156 22.78125 34.515625 22.585938 C 35.125 21.414062 36.324219 20.753906 37.648438 21.0625 C 38.515625 21.261719 39.699219 21.898438 39.890625 22.867188 " fill-opacity="1" fill-rule="nonzero"/><path fill="#502412" d="M 32.925781 49.054688 C 33.878906 49.90625 34.367188 50.84375 34.09375 51.144531 C 33.808594 51.445312 32.847656 50.976562 31.945312 50.171875 C 31.128906 49.441406 30.382812 48.621094 30.632812 48.277344 C 30.863281 47.949219 31.878906 48.144531 32.925781 49.054688 " fill-opacity="1" fill-rule="nonzero"/><path fill="#502412" d="M 30.140625 65.222656 C 31.738281 66.058594 32.761719 67.347656 32.476562 67.613281 C 32.160156 67.921875 30.96875 67.347656 29.414062 66.519531 C 27.703125 65.59375 26.890625 64.402344 27.101562 64.082031 C 27.359375 63.730469 28.710938 64.46875 30.140625 65.222656 " fill-opacity="1" fill-rule="nonzero"/><path fill="#502412" d="M 31.929688 51.53125 C 32.265625 51.824219 32.460938 52.125 32.398438 52.320312 C 32.335938 52.515625 32.011719 52.574219 31.492188 52.496094 C 30.941406 52.433594 30.351562 52.113281 29.707031 51.710938 C 28.613281 50.910156 27.765625 50.023438 27.984375 49.671875 C 28.207031 49.335938 29.351562 49.617188 30.5625 50.492188 C 31.128906 50.84375 31.585938 51.277344 31.929688 51.53125 " fill-opacity="1" fill-rule="nonzero"/><path fill="#502412" d="M 28.921875 67.851562 C 30.246094 68.644531 31.394531 69.261719 31.292969 69.679688 C 31.226562 70.066406 29.695312 70.058594 28.152344 69.121094 C 27.386719 68.644531 26.792969 68.082031 26.46875 67.472656 C 26.183594 66.925781 26.21875 66.554688 26.371094 66.4375 C 26.546875 66.308594 26.882812 66.554688 27.308594 66.835938 C 27.730469 67.097656 28.292969 67.457031 28.921875 67.851562 " fill-opacity="1" fill-rule="nonzero"/><path fill="#502412" d="M 19.089844 88.503906 C 19.144531 88.933594 18.285156 89.429688 17.140625 89.914062 C 15.921875 90.453125 14.828125 90.496094 14.675781 90.117188 C 14.53125 89.730469 15.410156 89.050781 16.566406 88.539062 C 17.820312 88.007812 19.046875 88.105469 19.089844 88.503906 " fill-opacity="1" fill-rule="nonzero"/><path fill="#502412" d="M 19.460938 86.003906 C 19.453125 86.425781 17.976562 86.691406 16.34375 87.117188 C 15.542969 87.355469 14.847656 87.628906 14.402344 87.816406 C 13.894531 88.070312 13.503906 88.289062 13.355469 88.132812 C 13.21875 88 13.265625 87.59375 13.664062 87.054688 C 14.15625 86.460938 14.976562 85.96875 15.949219 85.6875 C 17.90625 85.183594 19.46875 85.617188 19.460938 86.003906 " fill-opacity="1" fill-rule="nonzero"/><path fill="#502412" d="M 18.429688 39.300781 C 18.578125 39.414062 18.480469 39.839844 18.085938 40.308594 C 17.6875 40.785156 17.007812 41.242188 16.195312 41.613281 C 15.367188 41.949219 14.589844 42.109375 13.929688 42.082031 C 13.328125 42.046875 13.011719 41.84375 12.984375 41.65625 C 12.957031 41.4375 13.328125 41.261719 13.792969 41.027344 C 14.230469 40.828125 14.898438 40.539062 15.613281 40.246094 C 16.316406 39.917969 16.980469 39.664062 17.449219 39.457031 C 17.921875 39.285156 18.257812 39.160156 18.429688 39.300781 " fill-opacity="1" fill-rule="nonzero"/><path fill="#502412" d="M 16.152344 37.6875 C 16.335938 38.03125 15.78125 38.804688 14.675781 39.433594 C 14.121094 39.734375 13.511719 39.875 13.035156 39.859375 C 12.613281 39.804688 12.367188 39.644531 12.324219 39.449219 C 12.285156 39.242188 12.515625 39.027344 12.839844 38.828125 C 13.105469 38.613281 13.503906 38.382812 13.972656 38.125 C 14.917969 37.589844 15.949219 37.308594 16.152344 37.6875 " fill-opacity="1" fill-rule="nonzero"/><g clip-path="url(#c0bf1dfdca)"><path fill="#502412" d="M 20.507812 18.667969 C 20.925781 17.628906 21.957031 16.3125 23.105469 15.5 C 21.003906 15.550781 19.175781 16.179688 17.785156 17.972656 C 17.828125 17.980469 17.871094 17.980469 17.914062 17.980469 C 18.636719 18.066406 19.605469 18.289062 20.507812 18.667969 Z M 21.871094 21.921875 C 22.515625 21.707031 20.765625 20.289062 20.484375 20.132812 C 19.699219 19.699219 18.816406 19.355469 17.914062 19.304688 C 16.25 19.207031 15.71875 20.71875 15.25 22.050781 C 16.300781 22.425781 17.828125 22.066406 18.851562 22.003906 C 19.804688 21.949219 20.953125 22.222656 21.871094 21.921875 Z M 21.726562 19.199219 C 23.433594 19.65625 27.214844 19.414062 25.746094 16.796875 C 24.648438 14.847656 22.242188 17.800781 21.726562 19.199219 Z M 29.238281 17.492188 C 29.246094 17.492188 29.257812 17.492188 29.265625 17.492188 C 29.257812 17.449219 29.238281 17.40625 29.238281 17.355469 C 29.257812 15.835938 27.644531 14.898438 26.261719 15.261719 C 26.492188 15.472656 26.707031 15.746094 26.890625 16.132812 C 27.191406 16.796875 27.359375 17.519531 27.300781 18.191406 C 27.851562 17.828125 28.527344 17.59375 29.238281 17.492188 Z M 30.75 21.980469 C 31.84375 21.871094 33.945312 20.867188 32.53125 19.585938 C 30.949219 18.144531 27.058594 18.464844 27.09375 21.085938 C 28.023438 21.886719 29.609375 22.074219 30.75 21.980469 Z M 32.867188 11.839844 C 32.796875 11.300781 32.882812 10.75 33.09375 10.242188 C 30.238281 10.886719 27.644531 12.003906 26.539062 13.890625 C 27.507812 13.824219 28.46875 14.105469 29.222656 14.660156 C 29.480469 13.1875 30.339844 11.660156 31.996094 11.722656 C 32.265625 11.730469 32.558594 11.773438 32.867188 11.839844 Z M 34.324219 14.933594 C 34.621094 13.71875 33.019531 12.976562 31.996094 13.042969 C 30.734375 13.125 30.441406 14.671875 30.457031 15.695312 C 30.457031 15.710938 30.449219 15.730469 30.441406 15.746094 C 31.234375 16.539062 34.085938 15.921875 34.324219 14.933594 Z M 36.917969 12.507812 C 38.011719 12.15625 37.871094 10.601562 37.730469 9.558594 C 36.785156 9.632812 35.785156 9.746094 34.796875 9.914062 C 34.789062 9.933594 34.789062 9.941406 34.773438 9.957031 C 34.304688 10.585938 33.609375 12.164062 34.804688 12.472656 C 35.40625 12.621094 36.324219 12.691406 36.917969 12.507812 Z M 40.695312 13.25 C 39.226562 12.410156 38.136719 13.9375 37.757812 15.261719 C 37.730469 15.359375 37.683594 15.472656 37.683594 15.578125 C 37.984375 15.652344 38.382812 15.722656 38.652344 15.542969 C 38.867188 15.410156 39.070312 15.269531 39.273438 15.136719 C 39.226562 14.757812 39.433594 14.339844 39.839844 14.261719 C 40.28125 14.183594 40.515625 13.773438 40.695312 13.25 Z M 41.726562 20.109375 C 42.617188 20.160156 42.488281 19.234375 42.179688 18.625 C 42.085938 18.417969 42.085938 18.234375 42.15625 18.074219 C 42.113281 18.058594 42.070312 18.039062 42.035156 18.023438 C 41.984375 18.039062 41.929688 18.058594 41.871094 18.066406 C 41.082031 18.121094 40.15625 18.402344 39.644531 19.046875 C 39.195312 19.621094 39.183594 19.929688 39.90625 19.992188 C 40.507812 20.042969 41.125 20.082031 41.726562 20.109375 Z M 42.714844 10.449219 C 42.671875 10.082031 42.617188 9.726562 42.574219 9.394531 C 42.515625 9.402344 42.441406 9.410156 42.371094 9.410156 C 41.503906 9.382812 40.351562 9.394531 39.042969 9.460938 C 39.132812 10.242188 39.183594 11.058594 39.011719 11.832031 C 39.628906 11.589844 40.332031 11.597656 41.082031 11.960938 C 41.25 11.457031 41.46875 11.007812 41.863281 10.777344 C 42.132812 10.621094 42.414062 10.519531 42.714844 10.449219 Z M 60.613281 18.445312 C 60.882812 17.097656 56.710938 17.671875 55.890625 17.808594 C 55.191406 17.9375 54.570312 18.039062 54.011719 18.136719 C 53.5 18.234375 53.050781 18.429688 52.632812 18.570312 C 51.816406 18.878906 51.164062 19.035156 50.734375 19.027344 C 50.3125 19.011719 50.148438 18.925781 50.148438 18.835938 C 50.148438 18.738281 50.3125 18.648438 50.640625 18.527344 C 50.984375 18.375 51.480469 18.128906 52.253906 17.714844 C 52.640625 17.511719 53.101562 17.257812 53.730469 17.070312 C 54.332031 16.914062 54.964844 16.777344 55.707031 16.605469 C 56.382812 16.496094 57.15625 16.417969 57.980469 16.382812 C 57.851562 16.355469 57.699219 16.339844 57.570312 16.3125 C 56.871094 16.195312 56.203125 16.089844 55.566406 15.996094 C 55.238281 15.921875 54.957031 15.929688 54.671875 15.921875 C 54.390625 15.921875 54.117188 15.886719 53.835938 15.929688 C 53.550781 15.960938 53.285156 15.996094 53.023438 16.019531 C 52.75 16.054688 52.476562 16.089844 52.21875 16.132812 C 51.710938 16.214844 51.171875 16.238281 50.699219 16.285156 C 49.738281 16.3125 48.902344 16.269531 48.167969 16.144531 C 46.695312 15.859375 45.820312 15.242188 45.324219 14.863281 C 44.851562 14.449219 44.679688 14.21875 44.738281 14.148438 C 44.796875 14.078125 45.0625 14.160156 45.601562 14.425781 C 46.15625 14.648438 46.996094 15.078125 48.300781 15.207031 C 48.957031 15.269531 49.738281 15.261719 50.628906 15.191406 C 51.074219 15.121094 51.523438 15.078125 52.046875 14.976562 C 52.546875 14.871094 53.109375 14.785156 53.730469 14.714844 C 54.03125 14.660156 54.363281 14.679688 54.699219 14.679688 C 55.035156 14.679688 55.386719 14.671875 55.707031 14.734375 C 56.359375 14.828125 57.054688 14.925781 57.78125 15.03125 C 58.144531 15.085938 58.511719 15.136719 58.890625 15.191406 C 59.261719 15.269531 59.652344 15.359375 60.039062 15.4375 C 60.164062 15.464844 60.289062 15.5 60.410156 15.523438 C 59.597656 14.785156 58.710938 14.070312 57.644531 13.890625 C 55.636719 13.558594 53.894531 13.972656 51.929688 13.839844 C 49.933594 13.707031 48.414062 13.179688 46.507812 12.570312 C 45.039062 12.089844 42.433594 11.8125 42.25 13.929688 C 42.222656 14.253906 42.132812 14.605469 41.964844 14.890625 C 41.789062 15.191406 41.578125 15.367188 41.347656 15.5 C 43.132812 17.617188 45.71875 17.335938 48.207031 18.351562 C 48.777344 18.582031 49.078125 19.453125 48.398438 19.796875 C 47.808594 20.101562 49.394531 21.5 49.765625 21.554688 C 50.613281 21.695312 51.929688 20.667969 52.707031 20.371094 C 55.167969 19.390625 57.9375 18.445312 60.613281 18.445312 Z M 62.5 12.613281 C 62.566406 12.527344 62.617188 12.433594 62.667969 12.347656 C 62.582031 12.296875 62.492188 12.226562 62.421875 12.117188 C 60.773438 9.90625 59.148438 7.917969 56.03125 8.148438 C 55.019531 8.21875 53.757812 8.304688 52.820312 7.75 C 52.035156 7.28125 51.4375 6.796875 50.878906 6.035156 C 49.582031 4.285156 46.597656 3.242188 46.363281 6.320312 C 46.324219 6.753906 46.027344 7.097656 45.566406 7.109375 C 43.527344 7.152344 43.976562 9.023438 44.25 10.355469 C 45.195312 10.449219 46.140625 10.75 46.9375 11.042969 C 49.128906 11.847656 51.136719 12.3125 53.507812 12.183594 C 54.921875 12.101562 56.675781 11.875 58.074219 12.355469 C 59.449219 12.84375 60.496094 13.585938 61.546875 14.457031 C 61.644531 14.238281 61.75 14.007812 61.855469 13.789062 C 61.019531 13.144531 60.09375 12.683594 59.210938 12.339844 C 58 11.882812 56.84375 11.597656 55.792969 11.464844 C 54.769531 11.351562 53.78125 11.367188 52.882812 11.324219 C 51.988281 11.273438 51.203125 11.164062 50.535156 11.007812 C 49.183594 10.691406 48.3125 10.105469 47.914062 9.625 C 47.710938 9.375 47.605469 9.179688 47.558594 9.039062 C 47.515625 8.898438 47.515625 8.828125 47.550781 8.800781 C 47.753906 8.621094 48.195312 9.71875 50.710938 10.082031 C 51.335938 10.167969 52.070312 10.222656 52.914062 10.222656 C 53.765625 10.222656 54.742188 10.160156 55.929688 10.257812 C 57.082031 10.363281 58.335938 10.648438 59.679688 11.128906 C 60.59375 11.472656 61.578125 11.933594 62.5 12.613281 Z M 64.902344 9.667969 C 65.511719 9.101562 66.171875 8.613281 66.859375 8.21875 C 65.589844 7.289062 63.992188 6.730469 63.191406 5.28125 C 62.308594 3.683594 62.378906 3.433594 60.496094 3.019531 C 57.65625 2.386719 52.089844 0.988281 52.535156 5.5625 C 53.171875 6.222656 53.953125 6.699219 55.050781 6.621094 C 56.394531 6.535156 57.304688 6.328125 58.589844 6.636719 C 60.660156 7.132812 62.371094 9.410156 63.605469 11.070312 C 63.71875 10.921875 63.84375 10.769531 63.964844 10.628906 C 63.484375 10.269531 63.074219 9.875 62.722656 9.515625 C 62.113281 8.871094 61.621094 8.269531 61.175781 7.761719 C 60.296875 6.707031 59.5625 6.019531 58.925781 5.597656 C 58.300781 5.183594 57.800781 5.015625 57.472656 4.902344 C 57.144531 4.792969 56.984375 4.699219 56.984375 4.609375 C 56.984375 4.515625 57.136719 4.441406 57.53125 4.386719 C 57.921875 4.34375 58.566406 4.394531 59.386719 4.785156 C 60.207031 5.167969 61.125 5.90625 62.078125 6.9375 C 62.574219 7.445312 63.074219 8.027344 63.648438 8.605469 C 64.027344 8.980469 64.445312 9.347656 64.902344 9.667969 Z M 72.878906 6.402344 C 70.816406 5.15625 68.140625 5.039062 65.75 5.519531 C 66.402344 6.011719 67.125 6.429688 67.804688 6.957031 C 68.042969 7.132812 68.132812 7.382812 68.132812 7.625 C 69.667969 6.992188 71.253906 6.601562 72.878906 6.402344 Z M 105.628906 28.25 C 106.433594 23.210938 100.625 18.511719 95.351562 15.394531 C 94.210938 16.664062 93.355469 17.867188 92.722656 18.898438 C 91.988281 20.089844 91.492188 21.0625 91.160156 21.808594 C 90.980469 22.1875 90.839844 22.515625 90.714844 22.78125 C 90.617188 23.054688 90.53125 23.277344 90.449219 23.441406 C 90.292969 23.785156 90.171875 23.929688 90.082031 23.910156 C 89.984375 23.902344 89.941406 23.726562 89.949219 23.335938 C 89.949219 23.140625 89.96875 22.886719 90.011719 22.574219 C 90.0625 22.265625 90.164062 21.914062 90.277344 21.484375 C 90.523438 20.636719 90.953125 19.566406 91.660156 18.28125 C 92.25 17.214844 93.066406 16.003906 94.175781 14.722656 C 92.613281 13.847656 91.140625 13.136719 89.96875 12.605469 C 87.628906 11.546875 84.96875 10.492188 82.21875 9.753906 C 81.429688 10.363281 80.789062 11.265625 80.238281 12.066406 C 79.894531 12.597656 79.558594 13.101562 79.25 13.585938 C 78.925781 14.078125 78.589844 14.539062 78.289062 14.933594 C 77.0625 16.585938 76.242188 17.902344 75.792969 18.984375 C 75.589844 19.535156 75.394531 20 75.308594 20.40625 C 75.179688 20.804688 75.101562 21.140625 75.058594 21.394531 C 74.9375 21.914062 74.839844 22.144531 74.742188 22.144531 C 74.65625 22.144531 74.582031 21.914062 74.539062 21.351562 C 74.511719 21.070312 74.519531 20.71875 74.582031 20.265625 C 74.609375 19.808594 74.75 19.285156 74.914062 18.660156 C 75.292969 17.421875 76.101562 15.929688 77.292969 14.226562 C 77.59375 13.796875 77.894531 13.363281 78.183594 12.894531 C 78.496094 12.398438 78.820312 11.890625 79.15625 11.351562 C 79.515625 10.8125 79.894531 10.242188 80.390625 9.675781 C 80.480469 9.566406 80.574219 9.472656 80.667969 9.367188 C 77.371094 8.652344 74.011719 8.472656 70.9375 9.394531 C 67.238281 10.503906 64.515625 13.136719 63.5625 16.957031 C 62.589844 20.882812 64.222656 22.550781 66.738281 23.425781 C 67.277344 20.441406 68.21875 18.472656 69.015625 17.378906 C 69.453125 16.734375 69.855469 16.355469 70.117188 16.132812 C 70.382812 15.914062 70.542969 15.851562 70.613281 15.914062 C 70.679688 15.976562 70.65625 16.144531 70.527344 16.453125 C 70.390625 16.761719 70.132812 17.191406 69.828125 17.855469 C 69.253906 19.003906 68.492188 20.847656 68.019531 23.792969 C 69.117188 24.058594 70.320312 24.238281 71.511719 24.421875 C 74.453125 24.875 77.386719 25.453125 80.339844 26.042969 C 80.671875 24.507812 81.148438 23.238281 81.628906 22.214844 C 82.246094 20.917969 82.832031 19.972656 83.335938 19.292969 C 83.84375 18.605469 84.25 18.183594 84.539062 17.9375 C 84.832031 17.6875 84.988281 17.617188 85.058594 17.679688 C 85.128906 17.742188 85.105469 17.917969 84.953125 18.253906 C 84.796875 18.589844 84.511719 19.070312 84.136719 19.796875 C 83.742188 20.503906 83.269531 21.457031 82.746094 22.703125 C 82.339844 23.691406 81.929688 24.890625 81.628906 26.300781 C 85.570312 27.089844 89.523438 27.835938 93.488281 28.261719 C 94.070312 27.175781 94.5625 26.214844 95.039062 25.410156 C 95.667969 24.351562 96.207031 23.554688 96.679688 22.992188 C 97.148438 22.417969 97.539062 22.074219 97.8125 21.878906 C 98.074219 21.6875 98.226562 21.640625 98.296875 21.707031 C 98.367188 21.765625 98.339844 21.933594 98.199219 22.222656 C 98.058594 22.507812 97.804688 22.917969 97.457031 23.527344 C 97.097656 24.128906 96.65625 24.941406 96.117188 26 C 95.753906 26.679688 95.367188 27.492188 94.898438 28.402344 C 98.324219 28.695312 101.765625 28.710938 105.226562 28.242188 C 105.363281 28.226562 105.5 28.234375 105.628906 28.25 Z M 115.796875 37.574219 C 112.9375 34.878906 110.617188 31.527344 106.546875 30.652344 C 106.511719 30.644531 106.480469 30.628906 106.445312 30.617188 C 106.308594 30.707031 106.132812 30.765625 105.929688 30.792969 C 98.289062 31.824219 90.777344 30.757812 83.269531 29.28125 C 79.121094 28.464844 74.988281 27.589844 70.808594 26.972656 C 68.765625 26.671875 66.59375 26.445312 64.699219 25.578125 C 62 24.359375 60.753906 22.1875 60.558594 19.773438 C 55.105469 18.914062 52.175781 24.609375 46.863281 22.058594 C 45.324219 21.324219 45.566406 20.230469 46.335938 19.371094 C 45.363281 19.082031 44.4375 18.878906 43.5625 18.613281 C 43.855469 19.664062 43.785156 20.988281 42.601562 21.34375 C 42 21.527344 41.382812 21.386719 40.773438 21.359375 C 40.234375 21.34375 39.628906 21.359375 39.113281 21.175781 C 37.964844 20.753906 37.703125 19.613281 38.367188 18.589844 C 38.886719 17.777344 39.679688 17.273438 40.558594 16.992188 C 40.34375 16.777344 40.128906 16.53125 39.925781 16.269531 C 39.628906 16.460938 39.355469 16.707031 39.019531 16.832031 C 38.515625 17.019531 37.828125 17.042969 37.324219 16.855469 C 36.449219 16.523438 36.195312 15.773438 36.476562 14.90625 C 36.601562 14.539062 36.753906 14.167969 36.953125 13.816406 C 36.703125 13.859375 36.4375 13.882812 36.175781 13.890625 C 36.007812 13.890625 35.824219 13.890625 35.644531 13.890625 C 35.707031 14.125 35.734375 14.363281 35.707031 14.625 C 35.535156 16.339844 34.144531 17.042969 32.566406 17.292969 C 31.9375 17.386719 31.207031 17.398438 30.554688 17.222656 C 30.554688 17.265625 30.5625 17.308594 30.5625 17.355469 C 30.5625 17.386719 30.546875 17.421875 30.539062 17.457031 C 31.886719 17.558594 33.335938 18.066406 33.925781 19.242188 C 36.203125 23.679688 28.023438 24.265625 25.902344 21.792969 C 25.738281 21.589844 25.71875 21.371094 25.769531 21.175781 C 25.769531 21.164062 25.761719 21.164062 25.761719 21.15625 C 25.753906 20.820312 25.796875 20.519531 25.859375 20.230469 C 25.011719 20.636719 24.058594 20.804688 23.105469 20.769531 C 23.210938 20.988281 23.289062 21.226562 23.324219 21.472656 C 23.597656 23.460938 21.324219 23.355469 19.9375 23.320312 C 18.164062 23.265625 15.761719 24.042969 14.171875 22.992188 C 14.078125 22.917969 14.007812 22.839844 13.964844 22.753906 C 13.800781 22.609375 13.722656 22.402344 13.820312 22.136719 C 13.945312 21.800781 14.066406 21.441406 14.210938 21.085938 C 11.289062 22.804688 8.445312 24.316406 6.109375 26.699219 C 8.96875 25.792969 12.003906 25.542969 15.03125 25.640625 C 19.589844 25.792969 23.882812 25.71875 28.433594 25.433594 C 33.484375 25.125 38.25 26.460938 43.210938 27.105469 C 48.34375 27.777344 53.472656 28.429688 58.582031 29.246094 C 69.835938 31.050781 81.042969 32.859375 92.464844 33.230469 C 97.402344 33.394531 101.90625 34.414062 106.652344 35.796875 C 109.621094 36.664062 112.753906 36.988281 115.796875 37.574219 Z M 115.640625 103.734375 C 116.007812 101.703125 116.386719 99.667969 116.765625 97.640625 C 106.523438 98.371094 95.632812 95.21875 85.613281 93.605469 C 74.082031 91.742188 62.472656 89.964844 51.007812 87.722656 C 45.054688 86.5625 39.210938 85.007812 33.316406 83.585938 C 28.066406 82.316406 22.773438 81.601562 17.484375 80.535156 C 16.671875 80.375 12.355469 80.082031 12.273438 79.824219 C 12.417969 80.277344 12.613281 80.800781 12.574219 81.28125 C 12.523438 82.261719 12.558594 82.421875 11.988281 83.121094 C 10.855469 84.460938 11.148438 85.703125 11.09375 87.433594 C 11.035156 89.597656 10.75 91.742188 10.640625 93.90625 C 18.359375 95.957031 26.046875 98.128906 33.84375 99.824219 C 42.671875 101.746094 51.621094 103.007812 60.503906 104.582031 C 69.90625 106.25 79.347656 107.847656 88.660156 109.945312 C 97.042969 111.835938 105.417969 113.914062 114.050781 113.886719 C 114.414062 110.980469 114.871094 108.085938 115.382812 105.199219 C 114.9375 104.933594 114.335938 104.21875 113.769531 103.367188 C 113.359375 102.773438 113.023438 102.234375 112.816406 101.847656 C 112.566406 101.429688 112.429688 101.085938 112.566406 100.929688 C 112.699219 100.785156 113.042969 100.804688 113.511719 101.058594 C 114.023438 101.359375 114.554688 101.875 114.996094 102.527344 C 115.277344 102.949219 115.488281 103.367188 115.640625 103.734375 Z M 119.753906 76.535156 C 119.867188 74.609375 119.917969 72.695312 119.945312 70.773438 C 116.734375 71.125 113.460938 70.824219 110.222656 70.753906 C 105.648438 70.660156 101.035156 70.402344 96.535156 69.527344 C 86.644531 67.605469 76.816406 65.910156 66.816406 64.65625 C 56.710938 63.386719 46.628906 61.910156 36.476562 61.027344 C 31.378906 60.589844 26.246094 60.4375 21.144531 60.023438 C 17.476562 59.730469 13.980469 58.570312 10.34375 58.0625 C 11.003906 62.21875 11.878906 66.640625 11.800781 70.78125 C 11.722656 74.664062 22.65625 75.023438 25.824219 75.460938 C 31.328125 76.207031 36.777344 76.667969 42.1875 78 C 47.875 79.410156 53.667969 81.34375 59.535156 81.824219 C 69.527344 82.640625 79.164062 82.722656 88.679688 86.144531 C 94.308594 88.175781 99.738281 88.476562 105.640625 89.023438 C 107.632812 89.207031 109.335938 89.695312 111.269531 90.179688 C 113.691406 90.789062 115.71875 90.4375 118.097656 90.238281 C 118.859375 85.695312 119.488281 81.144531 119.753906 76.535156 Z M 110.070312 61.886719 C 113.359375 62.933594 116.484375 64.445312 119.945312 64.402344 C 119.847656 57.648438 119.488281 50.894531 119.328125 44.144531 C 114.242188 44.199219 108.660156 44.667969 103.980469 42.839844 C 98.65625 40.769531 93.847656 39.539062 88.09375 39.1875 C 76.863281 38.480469 65.765625 36.785156 54.476562 36.484375 C 48.40625 36.328125 42.40625 36.382812 36.332031 36.75 C 31.550781 37.035156 27.492188 36.371094 22.816406 35.660156 C 19.847656 35.199219 10.898438 32.558594 10.0625 37.367188 C 9.300781 41.695312 10.601562 46.015625 9.628906 50.316406 C 12.941406 51.878906 18.152344 51.921875 21.65625 52.785156 C 26.890625 54.074219 32.203125 54.773438 37.585938 55.082031 C 47.683594 55.652344 57.734375 55.855469 67.785156 57.15625 C 77.734375 58.441406 87.65625 60.191406 97.671875 60.871094 C 101.703125 61.144531 106.167969 60.648438 110.070312 61.886719 Z M 119.960938 69.203125 C 119.96875 68.125 119.980469 67.054688 119.96875 65.988281 C 116.3125 66.042969 113.203125 64.339844 109.648438 63.421875 C 104.78125 62.167969 99.34375 62.671875 94.34375 62.175781 C 83.785156 61.144531 73.339844 59.253906 62.78125 58.152344 C 52.175781 57.039062 41.425781 57.4375 30.855469 56.078125 C 26.5625 55.53125 22.449219 54.527344 18.242188 53.582031 C 14.949219 52.839844 11.242188 53.09375 8.242188 51.382812 C 7.773438 51.117188 7.78125 50.609375 8.023438 50.261719 C 8.03125 50.234375 8.023438 50.21875 8.03125 50.191406 C 9.558594 44.144531 5 32.550781 15.03125 33.042969 C 19.230469 33.257812 23.316406 34.269531 27.453125 34.933594 C 33.542969 35.902344 39.734375 34.722656 45.855469 34.757812 C 59.035156 34.84375 71.898438 36.511719 84.996094 37.394531 C 90.777344 37.78125 96.363281 37.988281 101.773438 40.246094 C 106.78125 42.347656 116.414062 42.539062 119.300781 42.546875 C 119.292969 41.738281 119.273438 40.925781 119.265625 40.113281 C 119.214844 40.085938 119.160156 40.050781 119.101562 40.023438 C 115.039062 38.734375 110.371094 38.542969 106.230469 37.324219 C 101.070312 35.816406 96.195312 35.023438 90.824219 34.757812 C 80.957031 34.253906 71.230469 32.945312 61.496094 31.324219 C 55.421875 30.308594 49.324219 29.453125 43.210938 28.695312 C 38.847656 28.164062 34.382812 26.664062 29.972656 26.929688 C 25.753906 27.195312 21.753906 27.5625 17.519531 27.332031 C 13.175781 27.097656 8.703125 27.070312 4.6875 28.949219 C 2.726562 38.984375 4.640625 49.238281 5.316406 59.316406 C 6.054688 70.488281 6.3125 81.679688 6.707031 92.871094 C 7.492188 93.074219 8.269531 93.277344 9.054688 93.488281 C 9.136719 91.070312 9.214844 88.554688 9.480469 86.191406 C 9.566406 85.414062 9.136719 83.578125 9.699219 82.941406 C 10.769531 81.753906 10.496094 81 10.589844 79.640625 C 10.632812 79.050781 10.769531 78.828125 11.269531 78.511719 C 12.136719 77.964844 14.128906 78.292969 14.960938 78.441406 C 18.039062 78.996094 21.144531 79.402344 24.226562 79.976562 C 30.105469 81.085938 35.851562 82.640625 41.65625 84.0625 C 54.109375 87.097656 66.851562 88.769531 79.464844 90.976562 C 85.957031 92.113281 92.492188 93.234375 99.019531 94.214844 C 105.039062 95.105469 110.96875 96.472656 117.070312 96.027344 C 117.324219 94.644531 117.582031 93.25 117.820312 91.863281 C 115.933594 92.066406 113.953125 92.488281 112.109375 92.03125 C 109.921875 91.484375 107.925781 90.761719 105.640625 90.609375 C 101.234375 90.324219 96.648438 90.367188 92.382812 89.058594 C 88.257812 87.808594 84.214844 85.757812 79.921875 85.148438 C 75.246094 84.488281 70.558594 84.175781 65.855469 83.867188 C 56.402344 83.25 47.796875 80.640625 38.574219 78.8125 C 29.285156 76.964844 19.882812 76.371094 10.640625 74.117188 C 10.324219 74.035156 10.023438 73.691406 10.0625 73.347656 C 10.554688 68.273438 9.363281 62.289062 8.613281 57.234375 C 8.5 56.421875 9.488281 56 9.9375 56.414062 C 14.296875 56.945312 18.417969 58.292969 22.851562 58.511719 C 27.394531 58.734375 31.9375 59.027344 36.476562 59.4375 C 46.058594 60.324219 55.601562 61.65625 65.152344 62.855469 C 74.105469 63.988281 83.097656 65.105469 91.941406 66.949219 C 97.4375 68.101562 102.90625 69.003906 108.53125 69.132812 C 112.269531 69.210938 116.21875 69.671875 119.960938 69.203125 Z M 121.902344 39.300781 C 121.96875 52.25 123.429688 65.285156 122.277344 78.210938 C 121.179688 90.453125 118.074219 102.355469 116.609375 114.539062 C 116.59375 114.652344 116.566406 114.757812 116.527344 114.863281 C 116.679688 115.605469 116.277344 116.496094 115.289062 116.523438 C 106.503906 116.753906 98.003906 114.765625 89.496094 112.839844 C 80.222656 110.761719 70.84375 109.09375 61.484375 107.429688 C 52.054688 105.765625 42.496094 104.492188 33.140625 102.382812 C 23.863281 100.285156 14.710938 97.65625 5.496094 95.296875 C 5.25 95.226562 5.066406 95.113281 4.914062 94.972656 C 4.464844 94.804688 4.105469 94.414062 4.085938 93.796875 C 3.652344 81.730469 3.480469 69.648438 2.542969 57.617188 C 1.78125 47.84375 0.238281 37.996094 2.128906 28.261719 C 1.984375 27.941406 1.996094 27.554688 2.277344 27.160156 C 5.359375 22.910156 9.308594 21.183594 13.578125 18.382812 C 15.808594 16.921875 16.488281 14.371094 19.1875 13.550781 C 20.835938 13.054688 22.425781 12.828125 24.113281 12.886719 C 27.085938 7.230469 36.828125 6.648438 42.371094 6.761719 C 42.476562 6.761719 42.582031 6.773438 42.671875 6.796875 C 42.960938 6.136719 43.605469 5.695312 44.875 5.5625 C 45.460938 2.632812 48.019531 0.25 50.792969 3.382812 C 50.878906 3.476562 50.964844 3.585938 51.046875 3.691406 C 51.726562 1.027344 54.742188 0.460938 57.746094 0.894531 C 59.378906 1.125 61.902344 1.253906 63.277344 2.214844 C 63.632812 2.464844 63.792969 2.859375 63.949219 3.261719 C 64.019531 3.226562 64.101562 3.1875 64.1875 3.160156 C 68.300781 2.078125 73.507812 2.4375 76.402344 5.933594 C 76.480469 6.035156 76.542969 6.144531 76.597656 6.25 C 81.988281 6.472656 87.484375 8.414062 92.121094 10.707031 C 98.441406 13.824219 109.046875 20.167969 108.25 28.367188 C 113.574219 30.085938 115.851562 35.574219 120.808594 37.933594 C 120.914062 37.988281 121.007812 38.046875 121.085938 38.109375 C 121.53125 38.277344 121.902344 38.675781 121.902344 39.300781 " fill-opacity="1" fill-rule="nonzero"/></g><path fill="#502412" d="M 113.425781 81.308594 C 114.378906 82.464844 114.621094 83.695312 114.253906 83.867188 C 113.882812 84.054688 113.109375 83.257812 112.285156 82.269531 C 111.871094 81.789062 111.511719 81.328125 111.296875 81.019531 C 111.039062 80.664062 110.832031 80.375 110.945312 80.191406 C 111.050781 80.03125 111.367188 79.953125 111.855469 80.125 C 112.398438 80.328125 112.9375 80.742188 113.425781 81.308594 " fill-opacity="1" fill-rule="nonzero"/><path fill="#502412" d="M 113.140625 103.683594 C 113.976562 104.777344 114.289062 105.84375 113.960938 106.082031 C 113.625 106.320312 112.746094 105.617188 111.976562 104.617188 C 111.304688 103.734375 110.582031 102.792969 110.875 102.472656 C 111.136719 102.199219 112.171875 102.492188 113.140625 103.683594 " fill-opacity="1" fill-rule="nonzero"/><path fill="#502412" d="M 111.402344 82.976562 C 112.664062 84.097656 113.28125 85.28125 113.007812 85.566406 C 112.707031 85.863281 111.570312 85.113281 110.429688 84.109375 C 109.847656 83.613281 109.335938 83.164062 109.019531 82.84375 C 108.640625 82.5 108.359375 82.226562 108.445312 82.03125 C 108.523438 81.847656 108.875 81.753906 109.441406 81.882812 C 110.058594 82.039062 110.75 82.433594 111.402344 82.976562 " fill-opacity="1" fill-rule="nonzero"/><path fill="#502412" d="M 109.605469 47.5 C 110.96875 48.558594 111.984375 49.609375 111.753906 49.964844 C 111.535156 50.300781 110.121094 49.785156 108.6875 48.664062 C 107.203125 47.476562 106.488281 46.210938 106.753906 45.921875 C 107.046875 45.601562 108.308594 46.460938 109.605469 47.5 " fill-opacity="1" fill-rule="nonzero"/><path fill="#502412" d="M 108.023438 49.011719 C 109.304688 50.070312 110.257812 50.96875 110.058594 51.367188 C 109.894531 51.71875 108.429688 51.277344 107.089844 50.164062 C 105.816406 49.097656 104.882812 48.019531 105.140625 47.683594 C 105.382812 47.367188 106.6875 47.886719 108.023438 49.011719 " fill-opacity="1" fill-rule="nonzero"/><path fill="#502412" d="M 90.550781 102.253906 C 90.59375 102.664062 90.46875 102.929688 90.285156 102.992188 C 89.871094 103.09375 89.375 102.507812 88.78125 101.898438 C 88.480469 101.589844 88.214844 101.296875 88.050781 101.050781 C 87.828125 100.785156 87.691406 100.53125 87.777344 100.347656 C 87.863281 100.160156 88.121094 100.054688 88.507812 100.097656 C 88.945312 100.179688 89.445312 100.433594 89.871094 100.878906 C 90.285156 101.324219 90.515625 101.847656 90.550781 102.253906 " fill-opacity="1" fill-rule="nonzero"/><path fill="#502412" d="M 87.890625 102.171875 C 88.644531 103.171875 88.917969 104.140625 88.589844 104.386719 C 88.265625 104.636719 87.417969 104.007812 86.71875 103.09375 C 86.128906 102.285156 85.5 101.386719 85.792969 101.078125 C 86.066406 100.792969 87.019531 101.058594 87.890625 102.171875 " fill-opacity="1" fill-rule="nonzero"/><path fill="#502412" d="M 86.972656 71.839844 C 87.253906 72.28125 87.28125 72.652344 87.117188 72.765625 C 86.9375 72.890625 86.644531 72.785156 86.257812 72.609375 C 85.878906 72.421875 85.355469 72.175781 84.8125 71.863281 C 84.257812 71.585938 83.742188 71.304688 83.425781 71.097656 C 83.0625 70.878906 82.746094 70.703125 82.78125 70.480469 C 82.808594 70.296875 83.0625 70.09375 83.585938 70.058594 C 84.167969 70.03125 84.832031 70.207031 85.519531 70.550781 C 86.179688 70.921875 86.703125 71.390625 86.972656 71.839844 " fill-opacity="1" fill-rule="nonzero"/><path fill="#502412" d="M 84.1875 72.679688 C 85.375 73.359375 86.164062 74.179688 85.941406 74.53125 C 85.722656 74.875 84.582031 74.609375 83.390625 73.941406 C 82.226562 73.234375 81.457031 72.378906 81.679688 72.027344 C 81.886719 71.683594 83.019531 71.972656 84.1875 72.679688 " fill-opacity="1" fill-rule="nonzero"/><path fill="#502412" d="M 83.878906 42.167969 C 85.140625 43.441406 86.042969 44.53125 85.792969 44.890625 C 85.578125 45.226562 84.125 44.53125 82.832031 43.226562 C 81.621094 41.992188 80.65625 40.792969 80.933594 40.476562 C 81.199219 40.183594 82.546875 40.820312 83.878906 42.167969 " fill-opacity="1" fill-rule="nonzero"/><path fill="#502412" d="M 81.175781 43.308594 C 81.757812 44.164062 81.945312 45.039062 81.601562 45.257812 C 81.253906 45.476562 80.496094 44.960938 79.90625 44.085938 C 79.347656 43.199219 79.191406 42.308594 79.542969 42.101562 C 79.894531 41.886719 80.628906 42.425781 81.175781 43.308594 " fill-opacity="1" fill-rule="nonzero"/><path fill="#502412" d="M 57.257812 41.4375 C 57.4375 41.800781 56.617188 42.617188 55.273438 43.234375 C 54.539062 43.511719 53.851562 43.679688 53.394531 43.617188 C 52.914062 43.589844 52.597656 43.476562 52.554688 43.269531 C 52.425781 42.855469 53.59375 42.347656 54.683594 41.871094 C 55.902344 41.3125 57.082031 41.058594 57.257812 41.4375 " fill-opacity="1" fill-rule="nonzero"/><path fill="#502412" d="M 53.675781 39.035156 C 55.230469 38.734375 56.632812 39.054688 56.597656 39.449219 C 56.570312 39.882812 55.441406 40.21875 53.933594 40.503906 C 52.246094 40.8125 51.035156 40.425781 51.007812 40.03125 C 50.976562 39.609375 52.296875 39.300781 53.675781 39.035156 " fill-opacity="1" fill-rule="nonzero"/><path fill="#502412" d="M 55.175781 96.824219 C 55.980469 97.734375 56.578125 98.484375 56.375 98.871094 C 56.210938 99.226562 54.984375 98.871094 54.066406 97.804688 C 53.191406 96.773438 52.828125 95.75 53.136719 95.492188 C 53.464844 95.226562 54.382812 95.871094 55.175781 96.824219 " fill-opacity="1" fill-rule="nonzero"/><path fill="#502412" d="M 55.917969 67.046875 C 56.308594 67.664062 56.261719 68.144531 56.082031 68.203125 C 55.882812 68.292969 55.59375 68.035156 55.15625 67.78125 C 54.734375 67.515625 54.117188 67.261719 53.335938 67.046875 C 51.761719 66.640625 50.3125 66.503906 50.269531 66.066406 C 50.21875 65.6875 51.753906 65.113281 53.71875 65.609375 C 54.691406 65.859375 55.539062 66.4375 55.917969 67.046875 " fill-opacity="1" fill-rule="nonzero"/><path fill="#502412" d="M 53.214844 68.363281 C 54.453125 68.945312 55.292969 69.554688 55.207031 69.96875 C 55.121094 70.367188 53.835938 70.316406 52.609375 69.722656 C 51.566406 69.210938 50.449219 68.6875 50.570312 68.273438 C 50.675781 67.914062 51.769531 67.707031 53.214844 68.363281 " fill-opacity="1" fill-rule="nonzero"/><path fill="#502412" d="M 53.214844 98.414062 C 54.546875 99.445312 55.398438 100.550781 55.121094 100.859375 C 54.847656 101.167969 53.644531 100.636719 52.433594 99.675781 C 51.066406 98.808594 50.128906 97.820312 50.347656 97.476562 C 50.5625 97.125 51.851562 97.546875 53.214844 98.414062 " fill-opacity="1" fill-rule="nonzero"/><path fill="#502412" d="M 37.707031 23.441406 C 38.027344 23.414062 38.746094 23.382812 38.558594 23.097656 C 38.285156 22.675781 37.683594 22.347656 37.183594 22.324219 C 36.539062 22.277344 36.113281 22.542969 35.785156 23.046875 C 36.210938 23.449219 37.21875 23.476562 37.707031 23.441406 Z M 39.890625 22.867188 C 40.421875 25.492188 35.613281 25.054688 34.570312 23.636719 C 34.4375 23.460938 34.417969 23.285156 34.480469 23.125 C 34.410156 22.96875 34.410156 22.78125 34.515625 22.585938 C 35.125 21.414062 36.324219 20.753906 37.648438 21.0625 C 38.515625 21.261719 39.699219 21.898438 39.890625 22.867188 " fill-opacity="1" fill-rule="nonzero"/><path fill="#502412" d="M 32.925781 49.054688 C 33.878906 49.90625 34.367188 50.84375 34.09375 51.144531 C 33.808594 51.445312 32.847656 50.976562 31.945312 50.171875 C 31.128906 49.441406 30.382812 48.621094 30.632812 48.277344 C 30.863281 47.949219 31.878906 48.144531 32.925781 49.054688 " fill-opacity="1" fill-rule="nonzero"/><path fill="#502412" d="M 30.140625 65.222656 C 31.738281 66.058594 32.761719 67.347656 32.476562 67.613281 C 32.160156 67.921875 30.96875 67.347656 29.414062 66.519531 C 27.703125 65.59375 26.890625 64.402344 27.101562 64.082031 C 27.359375 63.730469 28.710938 64.46875 30.140625 65.222656 " fill-opacity="1" fill-rule="nonzero"/><path fill="#502412" d="M 31.929688 51.53125 C 32.265625 51.824219 32.460938 52.125 32.398438 52.320312 C 32.335938 52.515625 32.011719 52.574219 31.492188 52.496094 C 30.941406 52.433594 30.351562 52.113281 29.707031 51.710938 C 28.613281 50.910156 27.765625 50.023438 27.984375 49.671875 C 28.207031 49.335938 29.351562 49.617188 30.5625 50.492188 C 31.128906 50.84375 31.585938 51.277344 31.929688 51.53125 " fill-opacity="1" fill-rule="nonzero"/><path fill="#502412" d="M 28.921875 67.851562 C 30.246094 68.644531 31.394531 69.261719 31.292969 69.679688 C 31.226562 70.066406 29.695312 70.058594 28.152344 69.121094 C 27.386719 68.644531 26.792969 68.082031 26.46875 67.472656 C 26.183594 66.925781 26.21875 66.554688 26.371094 66.4375 C 26.546875 66.308594 26.882812 66.554688 27.308594 66.835938 C 27.730469 67.097656 28.292969 67.457031 28.921875 67.851562 " fill-opacity="1" fill-rule="nonzero"/><path fill="#502412" d="M 19.089844 88.503906 C 19.144531 88.933594 18.285156 89.429688 17.140625 89.914062 C 15.921875 90.453125 14.828125 90.496094 14.675781 90.117188 C 14.53125 89.730469 15.410156 89.050781 16.566406 88.539062 C 17.820312 88.007812 19.046875 88.105469 19.089844 88.503906 " fill-opacity="1" fill-rule="nonzero"/><path fill="#502412" d="M 19.460938 86.003906 C 19.453125 86.425781 17.976562 86.691406 16.34375 87.117188 C 15.542969 87.355469 14.847656 87.628906 14.402344 87.816406 C 13.894531 88.070312 13.503906 88.289062 13.355469 88.132812 C 13.21875 88 13.265625 87.59375 13.664062 87.054688 C 14.15625 86.460938 14.976562 85.96875 15.949219 85.6875 C 17.90625 85.183594 19.46875 85.617188 19.460938 86.003906 " fill-opacity="1" fill-rule="nonzero"/><path fill="#502412" d="M 18.429688 39.300781 C 18.578125 39.414062 18.480469 39.839844 18.085938 40.308594 C 17.6875 40.785156 17.007812 41.242188 16.195312 41.613281 C 15.367188 41.949219 14.589844 42.109375 13.929688 42.082031 C 13.328125 42.046875 13.011719 41.84375 12.984375 41.65625 C 12.957031 41.4375 13.328125 41.261719 13.792969 41.027344 C 14.230469 40.828125 14.898438 40.539062 15.613281 40.246094 C 16.316406 39.917969 16.980469 39.664062 17.449219 39.457031 C 17.921875 39.285156 18.257812 39.160156 18.429688 39.300781 " fill-opacity="1" fill-rule="nonzero"/><path fill="#502412" d="M 16.152344 37.6875 C 16.335938 38.03125 15.78125 38.804688 14.675781 39.433594 C 14.121094 39.734375 13.511719 39.875 13.035156 39.859375 C 12.613281 39.804688 12.367188 39.644531 12.324219 39.449219 C 12.285156 39.242188 12.515625 39.027344 12.839844 38.828125 C 13.105469 38.613281 13.503906 38.382812 13.972656 38.125 C 14.917969 37.589844 15.949219 37.308594 16.152344 37.6875 " fill-opacity="1" fill-rule="nonzero"/></svg>