<svg xmlns="http://www.w3.org/2000/svg" xmlns:xlink="http://www.w3.org/1999/xlink" width="64" zoomAndPan="magnify" viewBox="0 0 48 44.999999" height="60" preserveAspectRatio="xMidYMid meet" version="1.0"><defs><clipPath id="bdb27c9434"><path d="M 7 1.796875 L 48 1.796875 L 48 43 L 7 43 Z M 7 1.796875 " clip-rule="nonzero"/></clipPath></defs><g clip-path="url(#bdb27c9434)"><path fill="#3f1f01" d="M 44.460938 8.1875 C 44.472656 9.984375 43.242188 11.578125 41.945312 12.730469 C 40.066406 14.382812 37.175781 15.449219 34.890625 16.320312 C 38.753906 16.046875 43.679688 15.21875 45.800781 12.863281 C 46.863281 11.683594 48.007812 9.886719 47.648438 7.984375 C 47.339844 6.347656 45.25 5.371094 43.035156 5.410156 C 43.636719 6.3125 44.449219 6.910156 44.460938 8.1875 Z M 23.0625 20.65625 C 23.273438 20.800781 23.421875 21.355469 23.730469 21.195312 C 23.273438 20.71875 23.839844 20.0625 23.816406 19.503906 C 25.613281 17.828125 27.894531 16.714844 30.445312 15.640625 C 32.96875 14.574219 35.679688 13.707031 37.664062 12.183594 C 37.679688 12.101562 37.789062 12.046875 37.578125 12.050781 C 33.167969 14.960938 23.398438 14.511719 23.0625 20.65625 Z M 18.109375 19.296875 C 15.324219 19.785156 10.410156 19.597656 8.207031 20.65625 C 6.617188 21.722656 8.457031 22.484375 9.128906 23.5 C 9.800781 24.519531 10.21875 25.808594 10.726562 26.953125 C 11.234375 28.117188 11.710938 29.320312 12.238281 30.480469 C 13.027344 32.242188 13.914062 33.992188 14.332031 35.898438 C 14.617188 37.179688 14.40625 38.304688 15.421875 38.878906 C 17.917969 40.292969 23.769531 39.835938 26.503906 38.945312 C 26.867188 38.273438 27.234375 37.597656 27.339844 36.710938 C 29.050781 36.679688 29.265625 35.191406 30.191406 34.410156 C 30.648438 34.019531 31.574219 33.640625 32.292969 33.1875 C 34.242188 31.960938 36.949219 30.050781 37.160156 27.699219 C 37.273438 26.398438 36.609375 24.808594 35.144531 24.3125 C 32.328125 23.351562 32.902344 26.25 31.875 26.953125 C 32.066406 25.871094 32.582031 25.042969 32.542969 23.769531 C 32.488281 23.433594 31.777344 23.625 31.707031 23.296875 C 32.453125 22.675781 34.085938 22.804688 33.886719 21.601562 C 33.777344 20.941406 32.351562 20.417969 31.203125 20.113281 C 29.269531 19.601562 27.234375 19.421875 24.988281 19.503906 C 24.59375 19.746094 24.210938 20.003906 24.152344 20.519531 C 26.132812 20.839844 28.847656 20.933594 30.863281 20.992188 C 29.339844 20.484375 27.179688 20.488281 25.414062 20.179688 C 27.96875 20.21875 30.546875 20.328125 31.875 21.265625 C 29.941406 22.800781 25.429688 22.761719 21.378906 22.617188 C 18.429688 22.515625 14.1875 22.710938 11.648438 22.074219 C 10.941406 21.902344 9.722656 21.601562 10.21875 20.792969 C 10.5625 20.8125 10.558594 21.265625 10.980469 21.332031 C 11.257812 21.378906 12.152344 21.015625 12.65625 20.921875 C 14.558594 20.589844 16.886719 20.699219 18.695312 20.519531 C 18.597656 20.296875 18.734375 19.191406 18.109375 19.296875 Z M 40.515625 2.835938 C 41.375 4.488281 40.414062 6.785156 39.675781 7.507812 C 37.882812 9.261719 35.109375 10.367188 31.617188 11.167969 C 29.976562 11.542969 28.238281 11.773438 26.671875 12.25 C 24.113281 13.03125 21.128906 14.21875 20.039062 16.046875 C 19 17.796875 18.109375 21.546875 20.882812 22.007812 C 20.898438 21.496094 20.527344 21.15625 20.457031 20.585938 C 20.191406 18.378906 21.3125 16.742188 22.558594 15.640625 C 24.125 14.652344 26.15625 14.238281 28.515625 13.878906 C 31.785156 13.382812 35.082031 12.648438 37.40625 11.441406 C 38.695312 10.773438 39.636719 9.957031 41.015625 9.273438 C 40.199219 11.4375 38.121094 12.578125 35.898438 13.675781 C 34.722656 14.261719 33.484375 14.910156 32.371094 15.371094 C 31.210938 15.847656 29.664062 16.222656 28.683594 16.792969 C 28.386719 16.964844 27.824219 17.335938 28.011719 17.472656 C 34.308594 16.105469 42.609375 14.550781 43.285156 8.730469 C 43.40625 7.65625 43.25 6.929688 42.699219 6.425781 C 42.5 7.242188 42.214844 8.339844 41.519531 8.527344 C 41.925781 7.179688 43.132812 5.484375 42.441406 3.921875 C 42.035156 2.992188 41 2.285156 39.925781 1.882812 C 39.84375 1.882812 39.828125 1.832031 39.757812 1.816406 C 40.058594 2.304688 40.359375 2.535156 40.515625 2.835938 Z M 9.800781 41.457031 C 12.320312 42.589844 16.984375 43.027344 21.300781 42.878906 C 24.015625 42.78125 27.113281 42.992188 28.933594 42 C 22.796875 42.875 15.214844 42.15625 9.800781 41.457031 Z M 9.296875 22.347656 C 9.980469 22.777344 12.535156 23.042969 13.242188 22.6875 C 11.054688 22.691406 9.777344 21.957031 8.792969 20.992188 L 8.628906 20.992188 C 8.484375 21.417969 8.886719 22.085938 9.296875 22.347656 Z M 13.578125 23.90625 C 17.964844 24.378906 24.261719 24.621094 27.929688 23.703125 C 21.691406 24.042969 14.035156 24.125 9.550781 22.6875 C 9.921875 23.75 12 23.738281 13.578125 23.90625 Z M 11.398438 24.785156 C 13.050781 25.003906 15.285156 25.128906 17.019531 25.058594 C 15.632812 24.390625 13.066406 24.679688 11.398438 24.242188 Z M 11.476562 25.800781 C 12.707031 26.191406 14.582031 26.054688 16.265625 26.074219 C 16.03125 25.472656 15.230469 25.75 14.5 25.734375 C 13.53125 25.714844 12.222656 25.304688 11.476562 25.261719 Z M 32.210938 32.039062 C 33.382812 30.605469 36.359375 29.382812 36.066406 27.023438 C 36.007812 26.535156 35.617188 26.03125 35.144531 25.9375 C 33.015625 25.519531 32.96875 27.683594 31.449219 27.96875 C 30.511719 30.484375 28.824219 32.753906 28.097656 35.222656 C 29.09375 33.859375 30.214844 32.597656 32.210938 32.039062 Z M 11.816406 26.753906 C 13.027344 27.347656 14.992188 26.925781 16.769531 27.023438 C 15.621094 26.414062 13.347656 26.714844 11.816406 26.414062 Z M 12.238281 28.105469 C 13.867188 27.972656 16.074219 28.355469 17.1875 27.96875 C 15.660156 27.640625 13.542969 27.796875 12.070312 27.429688 C 12.011719 27.746094 12.199219 27.867188 12.238281 28.105469 Z M 12.738281 29.191406 C 14.367188 29.164062 15.921875 29.355469 17.273438 29.191406 C 16.125 28.644531 14.101562 28.8125 12.488281 28.648438 C 12.417969 28.953125 12.683594 28.984375 12.738281 29.191406 Z M 13.242188 30.273438 C 14.375 30.242188 16.304688 30.625 17.019531 30.074219 C 15.742188 29.949219 14.078125 29.78125 12.90625 29.800781 C 13.085938 29.902344 13.148438 30.101562 13.242188 30.273438 Z M 13.746094 31.425781 C 14.859375 31.285156 16.695312 31.730469 17.273438 31.152344 C 16.242188 30.90625 14.519531 30.847656 13.496094 30.816406 C 13.636719 30.976562 13.710938 31.183594 13.746094 31.425781 Z M 14.25 32.511719 C 15.417969 32.648438 16.863281 32.582031 17.941406 32.441406 C 17.179688 31.800781 15.167969 32.378906 14.082031 31.902344 C 14.042969 32.183594 14.328125 32.199219 14.25 32.511719 Z M 15.171875 33.863281 C 16.484375 33.730469 18.25 33.953125 19.03125 33.390625 C 17.683594 33.285156 16.074219 33.386719 14.835938 33.1875 C 14.78125 33.550781 15.085938 33.621094 15.171875 33.863281 Z M 15.421875 34.882812 C 16.652344 34.917969 18.625 35.050781 19.367188 34.472656 C 18.148438 34.332031 16.542969 34.496094 15.34375 34.339844 C 15.152344 34.5 15.527344 34.589844 15.421875 34.882812 Z M 15.679688 35.832031 C 16.695312 36.117188 18.566406 36.15625 19.285156 35.625 C 18.136719 35.488281 16.867188 35.457031 15.679688 35.359375 Z M 15.847656 36.640625 C 16.605469 37.105469 18.875 37.269531 19.792969 36.777344 C 18.707031 36.460938 17.132812 36.53125 15.847656 36.375 Z M 15.847656 38.066406 C 17.378906 38.488281 20.394531 38.640625 22.390625 38.40625 C 22.761719 38.359375 23.097656 38.289062 23.3125 38.066406 C 20.464844 38.066406 17.800781 37.90625 15.589844 37.390625 C 15.550781 37.71875 15.851562 37.765625 15.847656 38.066406 Z M 34.472656 27.160156 C 32.769531 28.109375 31.347656 29.285156 31.035156 31.359375 C 32.09375 31.042969 32.871094 30.496094 33.632812 29.9375 C 33.691406 29.488281 34.050781 29.277344 34.472656 29.121094 C 34.746094 28.582031 35.324219 27.980469 35.058594 27.226562 C 34.769531 27.28125 34.738281 27.125 34.472656 27.160156 Z M 34.472656 27.160156 " fill-opacity="1" fill-rule="evenodd"/></g><path fill="#472200" d="M 32.5625 35.15625 C 33.730469 35.304688 34.808594 35.546875 35.710938 35.945312 C 33.476562 36.328125 30.914062 34.785156 29.042969 35.859375 C 30.613281 36.34375 32.898438 36.175781 34.242188 36.855469 C 32.488281 37.242188 30.226562 36.15625 29.042969 37.179688 C 30.039062 37.40625 31.242188 37.453125 32.148438 37.761719 C 31.042969 38.195312 28.828125 37.617188 27.945312 38.257812 C 28.582031 38.753906 29.816406 38.367188 30.777344 38.425781 C 30.652344 39.023438 29.570312 38.765625 28.953125 38.921875 C 32.261719 39.082031 36.847656 38.179688 38.808594 36.523438 C 38.828125 36.101562 38.449219 36.019531 38.441406 35.613281 C 39.023438 35.796875 39.382812 36.390625 39.175781 37.097656 C 38.980469 37.746094 37.074219 38.316406 35.886719 38.589844 C 31.464844 39.613281 25.355469 40.441406 19.519531 40.417969 L 19.519531 40.453125 C 14.269531 40.3125 8.964844 39.566406 5 38.640625 C 3.8125 38.367188 1.910156 37.796875 1.71875 37.15625 C 1.5 36.449219 1.863281 35.855469 2.445312 35.671875 C 2.4375 36.078125 2.066406 36.152344 2.078125 36.574219 C 4.042969 38.234375 8.628906 39.136719 11.933594 38.972656 C 11.316406 38.824219 10.230469 39.082031 10.109375 38.476562 C 11.070312 38.417969 12.3125 38.8125 12.9375 38.308594 C 12.0625 37.675781 9.847656 38.246094 8.75 37.820312 C 9.644531 37.503906 10.847656 37.464844 11.847656 37.234375 C 10.660156 36.207031 8.40625 37.300781 6.648438 36.910156 C 7.996094 36.230469 10.28125 36.398438 11.847656 35.917969 C 9.972656 34.84375 7.410156 36.378906 5.183594 35.996094 C 7.082031 35.15625 9.777344 35.03125 12.488281 34.921875 C 12.515625 33.359375 10.472656 33.5625 8.925781 33.683594 C 6.230469 33.890625 2.5 34.597656 1.074219 35.421875 C 0.609375 35.695312 0.0859375 36.367188 0.0703125 36.824219 C 0.00390625 38.640625 3.195312 39.246094 5 39.800781 C 6.742188 40.332031 8.269531 40.640625 10.109375 40.875 C 11.164062 41.003906 12.09375 41.417969 13.121094 41.53125 C 14.769531 41.730469 16.988281 41.609375 18.605469 41.867188 C 19.082031 41.941406 19.5625 41.976562 20.0625 41.988281 L 20.050781 41.9375 C 20.820312 41.953125 21.5625 41.925781 22.28125 41.8125 C 23.898438 41.558594 26.121094 41.671875 27.765625 41.484375 C 28.796875 41.359375 29.722656 40.953125 30.777344 40.824219 C 32.617188 40.582031 34.144531 40.273438 35.886719 39.75 C 37.691406 39.199219 40.890625 38.589844 40.816406 36.773438 C 40.804688 36.3125 40.285156 35.636719 39.8125 35.367188 C 38.714844 34.730469 36.257812 34.167969 33.957031 33.851562 C 33.035156 33.722656 31.171875 33.347656 30.847656 34.519531 C 30.632812 35.285156 32.039062 35.117188 32.5 35.144531 C 32.519531 35.152344 32.542969 35.152344 32.5625 35.15625 Z M 32.5625 35.15625 " fill-opacity="1" fill-rule="evenodd"/></svg>