<svg xmlns="http://www.w3.org/2000/svg" xmlns:xlink="http://www.w3.org/1999/xlink" width="64" zoomAndPan="magnify" viewBox="0 0 48 44.999999" height="60" preserveAspectRatio="xMidYMid meet" version="1.0"><defs><clipPath id="7f43b495b0"><path d="M 22.199219 2.1875 L 47.964844 2.1875 L 47.964844 16.046875 L 22.199219 16.046875 Z M 22.199219 2.1875 " clip-rule="nonzero"/></clipPath><clipPath id="c42116f9e8"><path d="M 0.03125 31.910156 L 44.234375 31.910156 L 44.234375 45 L 0.03125 45 Z M 0.03125 31.910156 " clip-rule="nonzero"/></clipPath><clipPath id="796f300a26"><path d="M 22.199219 2.128906 L 47.964844 2.128906 L 47.964844 16 L 22.199219 16 Z M 22.199219 2.128906 " clip-rule="nonzero"/></clipPath><clipPath id="1adc06b0d4"><path d="M 0.03125 31.890625 L 44.234375 31.890625 L 44.234375 44.941406 L 0.03125 44.941406 Z M 0.03125 31.890625 " clip-rule="nonzero"/></clipPath></defs><path fill="#000000" d="M 25.605469 17.660156 C 26.644531 16.722656 25.769531 15.199219 25.074219 14.355469 C 23.894531 12.921875 22.207031 12.90625 20.644531 12.167969 C 19.871094 11.804688 19.171875 11.28125 18.589844 10.640625 C 17.734375 9.691406 17.730469 8.652344 18.5625 7.683594 C 19.609375 6.46875 21.308594 6.355469 22.773438 6.480469 C 25.761719 6.742188 28.839844 8.214844 31.808594 7.152344 C 33.191406 6.660156 33.769531 5.207031 32.875 3.929688 C 32.414062 3.269531 31.539062 3.011719 30.992188 2.441406 C 30.039062 1.449219 32.527344 1.074219 33.023438 1.0625 C 35.335938 1.003906 37.671875 1.933594 39.914062 2.429688 C 41.679688 2.820312 44.128906 3.3125 45.507812 1.765625 C 45.628906 1.632812 45.589844 0.929688 45.332031 1.070312 C 43.601562 2.015625 41.9375 1.894531 40.066406 1.503906 C 37.976562 1.066406 35.921875 0.34375 33.796875 0.132812 C 32.484375 0 30.445312 0.148438 30.296875 1.871094 C 30.246094 2.480469 30.550781 3.023438 30.949219 3.441406 C 31.472656 3.996094 33.578125 4.75 32.496094 5.777344 C 31.976562 6.273438 31.023438 6.441406 30.339844 6.53125 C 29.59375 6.628906 28.828125 6.542969 28.085938 6.4375 C 26.476562 6.210938 24.902344 5.765625 23.289062 5.550781 C 21.882812 5.363281 20.386719 5.417969 19.144531 6.1875 C 17.925781 6.945312 17.214844 8.382812 17.558594 9.820312 C 17.949219 11.480469 19.632812 12.613281 21.085938 13.191406 C 22.144531 13.613281 23.238281 13.707031 24.175781 14.433594 C 24.753906 14.878906 26.070312 16.25 25.34375 16.949219 C 25.140625 17.144531 25.300781 17.9375 25.605469 17.660156 " fill-opacity="1" fill-rule="nonzero"/><g clip-path="url(#7f43b495b0)"><path fill="#000000" d="M 27.082031 16.003906 C 28.183594 13.5 24.984375 12.800781 23.539062 11.683594 C 23.015625 11.277344 21.808594 9.8125 22.621094 9.242188 C 23.503906 8.621094 24.925781 8.8125 25.898438 8.980469 C 27.707031 9.292969 29.535156 9.828125 31.378906 9.773438 C 32.773438 9.730469 34.515625 9.042969 35.070312 7.617188 C 35.429688 6.699219 34.988281 5.613281 34.714844 4.738281 C 34.519531 4.117188 34.3125 3.402344 34.886719 2.929688 C 35.574219 2.363281 36.765625 2.449219 37.570312 2.574219 C 38.625 2.738281 39.636719 3.1875 40.660156 3.492188 C 41.671875 3.792969 42.707031 3.851562 43.753906 3.777344 C 45.210938 3.671875 46.671875 3.234375 47.949219 2.515625 C 47.980469 2.496094 47.964844 2.359375 47.933594 2.371094 C 45.808594 3.148438 43.652344 3.777344 41.378906 3.371094 C 39.378906 3.011719 37.601562 1.824219 35.507812 2.34375 C 34.617188 2.566406 34.292969 3.222656 34.421875 4.105469 C 34.605469 5.355469 35.554688 6.679688 34.71875 7.878906 C 33.535156 9.578125 31.234375 9.59375 29.4375 9.339844 C 27.476562 9.058594 25.363281 8.253906 23.386719 8.726562 C 22.957031 8.828125 22.441406 8.941406 22.273438 9.410156 C 22.125 9.835938 22.34375 10.324219 22.542969 10.683594 C 23.1875 11.859375 24.164062 12.335938 25.296875 12.914062 C 26.496094 13.527344 27.664062 14.347656 27.023438 15.898438 C 27.007812 15.941406 27.046875 16.082031 27.082031 16.003906 " fill-opacity="1" fill-rule="nonzero"/></g><path fill="#000000" d="M 15.75 37.269531 C 13.605469 34.917969 11.910156 32.46875 10.816406 29.371094 C 10.25 27.761719 9.832031 26.070312 9.585938 24.371094 C 9.46875 23.558594 9.40625 22.734375 9.414062 21.914062 C 9.417969 21.460938 9.527344 20.984375 9.546875 20.519531 C 9.390625 20.808594 9.226562 21.089844 9.070312 21.375 C 9.0625 21.460938 9.054688 21.550781 9.050781 21.636719 C 9.050781 21.648438 9.054688 21.65625 9.054688 21.667969 C 9.078125 21.742188 9.070312 21.804688 9.039062 21.851562 C 9.015625 22.503906 9.035156 23.15625 9.085938 23.8125 C 9.234375 25.652344 9.675781 27.476562 10.207031 29.226562 C 11.207031 32.507812 12.949219 35.886719 15.574219 37.988281 C 15.800781 38.171875 15.890625 37.425781 15.75 37.269531 " fill-opacity="1" fill-rule="nonzero"/><path fill="#000000" d="M 34.292969 21.164062 C 33.902344 22.597656 33.761719 24.121094 33.488281 25.585938 C 33.195312 27.144531 32.707031 28.582031 32.144531 30.046875 C 31.679688 31.261719 31.21875 32.476562 30.625 33.628906 C 30.34375 34.171875 30.03125 34.6875 29.644531 35.152344 C 29.261719 35.609375 28.816406 36.003906 28.476562 36.496094 C 28.414062 36.589844 28.3125 37.097656 28.53125 37.078125 C 29.46875 36.996094 30.121094 35.527344 30.539062 34.765625 C 31.195312 33.570312 31.683594 32.261719 32.171875 30.980469 C 32.707031 29.574219 33.230469 28.207031 33.5625 26.722656 C 33.953125 24.972656 34.261719 23.148438 34.476562 21.359375 C 34.492188 21.222656 34.375 20.875 34.292969 21.164062 " fill-opacity="1" fill-rule="nonzero"/><path fill="#000000" d="M 15.632812 37.632812 C 16.152344 38.574219 17.183594 38.792969 18.15625 38.972656 C 19.242188 39.175781 20.371094 39.199219 21.46875 39.25 C 22.808594 39.3125 24.15625 39.203125 25.46875 38.917969 C 26.691406 38.65625 28.152344 38.214844 28.960938 37.1875 C 29.019531 37.113281 29.066406 36.679688 28.90625 36.730469 C 28.371094 36.902344 27.90625 37.242188 27.394531 37.484375 C 26.792969 37.769531 26.148438 37.960938 25.5 38.117188 C 24.265625 38.414062 22.976562 38.496094 21.710938 38.472656 C 19.734375 38.4375 17.441406 38.433594 15.679688 37.402344 C 15.601562 37.355469 15.613281 37.597656 15.632812 37.632812 " fill-opacity="1" fill-rule="nonzero"/><path fill="#000000" d="M 33.5625 25.921875 C 34.070312 24.375 36.324219 23.785156 37.734375 23.96875 C 38.535156 24.070312 39.328125 24.296875 39.9375 24.863281 C 40.867188 25.722656 40.296875 27.078125 39.699219 27.953125 C 38.617188 29.542969 36.753906 30.210938 35.167969 31.105469 C 33.90625 31.816406 32.34375 33.125 30.816406 32.980469 C 30.582031 32.960938 30.542969 33.738281 30.785156 33.78125 C 31.617188 33.933594 32.566406 33.328125 33.273438 32.964844 C 34.175781 32.503906 35.070312 32.039062 35.984375 31.609375 C 38.050781 30.632812 40.304688 29.203125 40.714844 26.699219 C 40.847656 25.863281 40.796875 25.003906 40.300781 24.300781 C 39.765625 23.546875 38.753906 23.277344 37.902344 23.191406 C 36.242188 23.019531 33.859375 23.894531 33.433594 25.710938 C 33.40625 25.824219 33.480469 26.183594 33.5625 25.921875 " fill-opacity="1" fill-rule="nonzero"/><path fill="#000000" d="M 33.492188 27.507812 C 34.171875 27.121094 34.824219 26.738281 35.597656 26.5625 C 36.308594 26.402344 37.945312 26.730469 36.917969 27.699219 C 36.304688 28.277344 35.417969 28.585938 34.660156 28.898438 C 33.972656 29.179688 33.117188 29.378906 32.65625 30.019531 C 32.621094 30.074219 32.558594 30.472656 32.6875 30.441406 C 33.644531 30.210938 34.601562 29.714844 35.503906 29.308594 C 36.359375 28.921875 37.363281 28.402344 37.546875 27.371094 C 37.996094 24.859375 34.136719 25.980469 33.453125 27.3125 C 33.4375 27.339844 33.421875 27.546875 33.492188 27.507812 " fill-opacity="1" fill-rule="nonzero"/><path fill="#000000" d="M 30.390625 18.886719 C 27.480469 18.148438 24.125 18.121094 21.058594 18.085938 C 18.425781 18.054688 15.707031 18.378906 13.191406 18.996094 C 11.695312 19.359375 8.699219 20.242188 9.058594 21.761719 C 9.085938 21.878906 9.15625 22.007812 9.304688 22.035156 C 9.042969 21.984375 10.007812 20.828125 10.109375 20.753906 C 10.460938 20.492188 10.894531 20.292969 11.332031 20.128906 C 12.199219 19.804688 13.121094 19.628906 14.039062 19.417969 C 16.386719 18.917969 18.875 18.691406 21.304688 18.722656 C 24.023438 18.757812 26.894531 18.839844 29.523438 19.34375 C 31.222656 19.671875 33.40625 20.273438 33.890625 21.648438 C 33.949219 21.816406 34.0625 21.570312 34.070312 21.519531 C 34.269531 20.039062 31.972656 19.285156 30.390625 18.886719 " fill-opacity="1" fill-rule="nonzero"/><path fill="#000000" d="M 33.945312 21.0625 C 33.746094 22.230469 32.25 22.96875 30.925781 23.4375 C 29.433594 23.960938 27.816406 24.265625 26.199219 24.453125 C 24.6875 24.625 23.179688 24.597656 21.660156 24.597656 C 20.066406 24.597656 18.464844 24.5625 16.882812 24.410156 C 15.589844 24.289062 8.050781 22.585938 9.480469 21.203125 C 9.527344 21.160156 9.53125 21.019531 9.503906 20.9375 C 9.363281 21.117188 9.214844 21.292969 9.070312 21.46875 C 9.0625 21.480469 9.050781 21.492188 9.042969 21.5 C 9.046875 21.546875 9.058594 21.597656 9.078125 21.644531 C 9.109375 21.71875 9.074219 21.773438 9.015625 21.808594 C 9.355469 23.382812 14.632812 24.59375 16 24.832031 C 17.640625 25.121094 19.410156 25.140625 21.09375 25.144531 C 22.96875 25.148438 24.855469 25.0625 26.710938 24.824219 C 29.347656 24.480469 33.894531 23.566406 34.050781 21.09375 C 34.054688 21.007812 33.964844 20.949219 33.945312 21.0625 " fill-opacity="1" fill-rule="nonzero"/><path fill="#000000" d="M 11.054688 21.761719 C 11.324219 22.070312 11.746094 22.351562 12.050781 22.523438 C 12.53125 22.800781 13.0625 23.003906 13.570312 23.222656 C 14.46875 23.609375 15.46875 23.988281 16.457031 23.976562 C 16.660156 23.976562 16.648438 23.550781 16.503906 23.472656 C 15.441406 22.890625 14.21875 22.605469 13.085938 22.199219 C 12.511719 21.992188 11.484375 21.191406 10.890625 21.527344 C 10.933594 21.605469 10.992188 21.683594 11.054688 21.761719 " fill-opacity="1" fill-rule="nonzero"/><path fill="#000000" d="M 20.175781 24.039062 C 20.167969 23.980469 20.144531 23.929688 20.117188 23.90625 C 19.492188 23.367188 18.578125 23.074219 17.710938 22.796875 C 16.789062 22.503906 15.855469 22.226562 14.914062 21.960938 C 14.179688 21.753906 13.417969 21.597656 12.667969 21.414062 C 12.285156 21.320312 11.796875 21.136719 11.347656 21.042969 C 11.183594 21.121094 11.019531 21.203125 10.859375 21.289062 C 11.171875 21.625 11.808594 21.804688 12.28125 21.972656 C 13.015625 22.226562 13.796875 22.40625 14.539062 22.644531 C 15.4375 22.925781 16.339844 23.207031 17.234375 23.492188 C 17.652344 23.625 18.078125 23.789062 18.515625 23.9375 C 19.066406 23.96875 19.621094 24.007812 20.175781 24.039062 " fill-opacity="1" fill-rule="nonzero"/><path fill="#000000" d="M 22.234375 23.535156 C 21.226562 22.980469 19.933594 22.6875 18.785156 22.324219 C 17.8125 22.011719 16.820312 21.734375 15.863281 21.398438 C 15.117188 21.132812 14.371094 20.867188 13.59375 20.652344 C 13.367188 20.589844 13.113281 20.523438 12.851562 20.484375 C 12.542969 20.558594 12.257812 20.652344 11.992188 20.753906 C 13.351562 21.09375 14.554688 21.605469 15.824219 22.097656 C 16.804688 22.476562 17.832031 22.804688 18.84375 23.132812 C 19.875 23.46875 21.011719 23.917969 22.164062 23.9375 C 22.410156 23.941406 22.367188 23.609375 22.234375 23.535156 " fill-opacity="1" fill-rule="nonzero"/><path fill="#000000" d="M 25.859375 23.714844 C 24.035156 22.816406 21.816406 22.308594 19.769531 21.730469 C 17.898438 21.207031 15.929688 20.519531 13.949219 20.253906 C 13.894531 20.265625 13.839844 20.273438 13.785156 20.285156 C 13.761719 20.332031 13.773438 20.40625 13.789062 20.433594 C 13.863281 20.5625 13.835938 20.535156 14.011719 20.605469 C 14.042969 20.621094 14.066406 20.601562 14.082031 20.578125 C 15.859375 21.359375 17.953125 21.863281 19.859375 22.445312 C 21.78125 23.027344 23.746094 23.769531 25.800781 24.046875 C 25.996094 24.074219 25.972656 23.773438 25.859375 23.714844 " fill-opacity="1" fill-rule="nonzero"/><path fill="#000000" d="M 15.398438 20.253906 C 17.109375 20.476562 18.628906 21.121094 20.167969 21.679688 C 21.234375 22.070312 22.378906 22.367188 23.503906 22.648438 C 24.839844 22.984375 26.164062 23.359375 27.554688 23.550781 C 27.734375 23.574219 27.714844 23.292969 27.609375 23.242188 C 25.378906 22.171875 22.601562 21.882812 20.199219 21.066406 C 19.324219 20.769531 18.457031 20.457031 17.546875 20.21875 C 16.917969 20.054688 16.027344 19.816406 15.390625 20.09375 C 15.324219 20.121094 15.308594 20.242188 15.398438 20.253906 " fill-opacity="1" fill-rule="nonzero"/><path fill="#000000" d="M 29.691406 22.910156 C 28.148438 21.765625 25.601562 21.449219 23.582031 20.984375 C 21.878906 20.589844 20.246094 19.957031 18.515625 19.640625 C 18.105469 19.679688 17.699219 19.722656 17.292969 19.769531 C 19.402344 20.210938 21.347656 21.011719 23.429688 21.507812 C 24.496094 21.761719 25.574219 21.992188 26.632812 22.265625 C 27.636719 22.527344 28.589844 22.878906 29.589844 23.152344 C 29.75 23.195312 29.769531 22.96875 29.691406 22.910156 " fill-opacity="1" fill-rule="nonzero"/><path fill="#000000" d="M 30.96875 22.847656 C 30.96875 22.710938 30.910156 22.566406 30.8125 22.519531 C 29.945312 22.097656 28.90625 21.828125 27.960938 21.511719 C 26.960938 21.171875 25.941406 20.875 24.925781 20.566406 C 23.320312 20.085938 21.828125 19.433594 20.042969 19.582031 C 19.953125 19.589844 19.9375 19.738281 20.03125 19.746094 C 21.769531 19.894531 23.398438 20.699219 24.945312 21.230469 C 25.882812 21.554688 26.824219 21.867188 27.761719 22.191406 C 28.621094 22.488281 29.5 22.863281 30.425781 23.050781 C 30.601562 22.980469 30.785156 22.914062 30.96875 22.847656 " fill-opacity="1" fill-rule="nonzero"/><path fill="#000000" d="M 32.3125 22.140625 C 32.273438 22.09375 32.21875 22.0625 32.15625 22.050781 C 31.3125 21.628906 30.207031 21.398438 29.265625 21.105469 C 28.457031 20.855469 27.625 20.640625 26.820312 20.382812 C 25.726562 20.039062 23.90625 19.285156 22.683594 19.710938 C 22.4375 19.796875 22.535156 20.230469 22.730469 20.179688 C 22.859375 20.1875 22.988281 20.199219 23.113281 20.210938 C 23.140625 20.226562 23.167969 20.246094 23.195312 20.257812 C 23.226562 20.273438 23.25 20.253906 23.265625 20.226562 C 24.511719 20.382812 25.625 20.835938 26.757812 21.253906 C 27.492188 21.523438 28.257812 21.734375 29.011719 21.976562 C 29.734375 22.207031 30.503906 22.542969 31.292969 22.730469 C 31.699219 22.574219 32.078125 22.40625 32.3125 22.140625 " fill-opacity="1" fill-rule="nonzero"/><path fill="#000000" d="M 32.3125 22.136719 C 32.414062 22.019531 32.492188 21.886719 32.527344 21.722656 C 31.859375 20.785156 30.042969 20.355469 28.792969 20.070312 C 27.890625 19.863281 26.945312 19.742188 26.007812 19.652344 C 24.316406 19.492188 22.613281 19.570312 20.914062 19.507812 C 20.726562 19.5 20.511719 19.503906 20.390625 19.609375 C 21.316406 19.710938 22.246094 19.8125 23.171875 19.910156 C 23.988281 20 24.796875 19.964844 25.601562 20.109375 C 26.554688 20.253906 27.488281 20.433594 28.421875 20.632812 C 29.226562 20.804688 30.007812 21.027344 30.742188 21.316406 C 31.320312 21.542969 31.78125 21.871094 32.3125 22.136719 " fill-opacity="1" fill-rule="nonzero"/><path fill="#000000" d="M 21.085938 19.636719 C 20.535156 19.628906 19.984375 19.59375 19.4375 19.558594 C 18.554688 19.628906 17.671875 19.71875 16.796875 19.828125 C 16.816406 19.890625 16.863281 19.9375 16.9375 19.929688 C 18.3125 19.78125 19.695312 19.984375 21.074219 19.835938 C 21.183594 19.824219 21.203125 19.640625 21.085938 19.636719 " fill-opacity="1" fill-rule="nonzero"/><path fill="#000000" d="M 17.570312 20.089844 C 18.757812 20.316406 19.957031 20.410156 21.183594 20.472656 C 22.566406 20.542969 23.992188 20.667969 25.382812 20.644531 C 25.515625 20.640625 25.550781 20.429688 25.425781 20.402344 C 24.269531 20.136719 22.976562 20.140625 21.769531 20.101562 C 20.382812 20.058594 18.984375 20 17.613281 19.832031 C 17.476562 19.816406 17.445312 20.066406 17.570312 20.089844 " fill-opacity="1" fill-rule="nonzero"/><path fill="#000000" d="M 17.933594 20.566406 C 19.5 20.910156 21.121094 21.027344 22.75 21.152344 C 24.546875 21.289062 26.351562 21.453125 28.164062 21.460938 C 28.304688 21.460938 28.335938 21.234375 28.210938 21.207031 C 26.640625 20.871094 25.011719 20.75 23.386719 20.636719 C 21.585938 20.507812 19.785156 20.34375 17.972656 20.34375 C 17.851562 20.34375 17.824219 20.542969 17.933594 20.566406 " fill-opacity="1" fill-rule="nonzero"/><path fill="#000000" d="M 20.820312 21.386719 C 22.292969 21.589844 23.742188 21.699219 25.242188 21.777344 C 25.980469 21.816406 26.722656 21.84375 27.460938 21.898438 C 28.167969 21.953125 28.886719 22.097656 29.597656 22.070312 C 29.777344 22.0625 29.789062 21.824219 29.652344 21.769531 C 28.488281 21.304688 26.851562 21.351562 25.550781 21.300781 C 23.984375 21.238281 22.390625 21.292969 20.832031 21.179688 C 20.710938 21.171875 20.703125 21.371094 20.820312 21.386719 " fill-opacity="1" fill-rule="nonzero"/><path fill="#000000" d="M 22.59375 21.980469 C 23.746094 22.15625 24.847656 22.375 26.023438 22.492188 C 26.648438 22.554688 27.28125 22.578125 27.910156 22.601562 C 28.445312 22.617188 29.019531 22.667969 29.515625 22.5 C 29.660156 22.453125 29.707031 22.203125 29.539062 22.160156 C 29.109375 22.046875 28.664062 22.089844 28.210938 22.085938 C 27.582031 22.082031 26.953125 22.050781 26.328125 22.011719 C 25.085938 21.933594 23.835938 21.910156 22.601562 21.832031 C 22.511719 21.824219 22.507812 21.96875 22.59375 21.980469 " fill-opacity="1" fill-rule="nonzero"/><path fill="#000000" d="M 24.304688 22.351562 C 25.671875 22.824219 27.617188 22.90625 29.105469 22.675781 C 29.230469 22.65625 29.25 22.425781 29.121094 22.402344 C 28.421875 22.277344 27.691406 22.28125 26.972656 22.265625 C 26.09375 22.246094 25.21875 22.179688 24.335938 22.179688 C 24.238281 22.179688 24.226562 22.324219 24.304688 22.351562 " fill-opacity="1" fill-rule="nonzero"/><path fill="#000000" d="M 34.820312 35.058594 C 35.28125 35.199219 35.710938 35.296875 36.109375 35.59375 C 36.648438 35.992188 36.785156 36.738281 36.855469 37.40625 C 36.859375 37.457031 37.011719 37.695312 37.027344 37.5625 C 37.175781 36.238281 36.160156 34.578125 34.761719 34.867188 C 34.6875 34.882812 34.777344 35.042969 34.820312 35.058594 " fill-opacity="1" fill-rule="nonzero"/><path fill="#000000" d="M 1.191406 35.253906 C 1.054688 35.402344 0.953125 35.585938 0.894531 35.789062 C 0.710938 36.429688 0.675781 36.976562 0.980469 37.59375 C 1.363281 38.378906 2.09375 38.984375 2.769531 39.492188 C 4.65625 40.902344 6.984375 41.824219 9.25 42.332031 C 11.679688 42.875 14.203125 43.050781 16.660156 43.417969 C 19.019531 43.773438 21.480469 44.003906 23.847656 43.613281 C 23.894531 43.605469 23.902344 43.496094 23.851562 43.496094 C 19.53125 43.699219 15.257812 42.957031 10.992188 42.347656 C 8.738281 42.027344 6.621094 41.355469 4.597656 40.292969 C 3.648438 39.792969 2.734375 39.226562 1.949219 38.480469 C 1.558594 38.109375 0.996094 37.496094 0.859375 36.925781 C 0.75 36.464844 0.972656 35.40625 1.339844 35.113281 C 1.289062 35.15625 1.238281 35.203125 1.191406 35.253906 " fill-opacity="1" fill-rule="nonzero"/><g clip-path="url(#c42116f9e8)"><path fill="#000000" d="M 43.753906 36.019531 C 42.824219 34.640625 41.269531 33.882812 39.835938 33.34375 C 39.023438 33.042969 38.230469 32.820312 37.390625 32.621094 C 36.46875 32.402344 35.441406 32.203125 34.632812 32.734375 C 36.179688 32.933594 37.742188 33.238281 39.234375 33.746094 C 40.542969 34.191406 44.6875 36.117188 42.832031 38.207031 C 41.539062 39.664062 39.578125 40.363281 37.859375 40.917969 C 37.664062 40.980469 37.46875 41.039062 37.273438 41.101562 C 35.570312 41.644531 33.839844 42.011719 32.058594 42.289062 C 30.617188 42.511719 29.179688 42.777344 27.730469 42.941406 C 26.355469 43.097656 24.957031 43.140625 23.625 43.503906 C 23.609375 43.507812 23.609375 43.558594 23.625 43.558594 C 25.160156 43.355469 26.707031 43.257812 28.246094 43.082031 C 29.976562 42.886719 31.714844 42.570312 33.425781 42.273438 C 35.15625 41.972656 36.839844 41.488281 38.484375 40.914062 C 39.753906 40.472656 44.210938 38.84375 43.800781 37.03125 C 43.828125 37.089844 43.859375 37.148438 43.882812 37.210938 C 44.148438 37.898438 43.542969 38.574219 43.050781 39.03125 C 42.011719 40.007812 40.464844 40.625 39.113281 41.160156 C 37.335938 41.867188 35.511719 42.457031 33.628906 42.882812 C 29.355469 43.855469 24.832031 43.972656 20.445312 43.886719 C 16.039062 43.796875 11.5625 43.324219 7.339844 42.15625 C 5.367188 41.609375 3.484375 40.832031 1.949219 39.566406 C 0.789062 38.609375 -0.316406 37.1875 0.710938 35.828125 C 1.285156 35.066406 2.136719 34.734375 2.941406 34.371094 C 3.730469 34.011719 4.425781 33.570312 5.269531 33.300781 C 7.3125 32.652344 9.398438 32.488281 11.507812 32.277344 C 11.585938 32.269531 11.671875 32.253906 11.707031 32.179688 C 11.890625 31.78125 9.457031 31.9375 9.214844 31.957031 C 8.214844 32.042969 7.214844 32.195312 6.234375 32.445312 C 4.308594 32.933594 2.414062 33.792969 0.914062 35.242188 C -1.238281 37.316406 0.980469 39.894531 2.960938 41.21875 C 4.597656 42.3125 6.578125 42.9375 8.511719 43.453125 C 10.636719 44.023438 12.816406 44.378906 15.011719 44.621094 C 19.425781 45.105469 23.929688 45.117188 28.347656 44.707031 C 31.417969 44.421875 34.429688 43.804688 37.292969 42.765625 C 39.253906 42.050781 41.246094 41.195312 42.816406 39.898438 C 44.078125 38.851562 44.707031 37.433594 43.753906 36.019531 " fill-opacity="1" fill-rule="nonzero"/></g><path fill="#000000" d="M 10.125 36.273438 C 10.207031 36.234375 10.148438 35.953125 10.070312 35.984375 C 9.734375 36.109375 9.398438 36.238281 9.234375 36.554688 C 9.082031 36.84375 9.074219 37.394531 9.402344 37.597656 C 9.492188 37.652344 9.496094 37.429688 9.492188 37.402344 C 9.472656 37.199219 9.445312 37.011719 9.539062 36.820312 C 9.65625 36.585938 9.878906 36.394531 10.125 36.273438 " fill-opacity="1" fill-rule="nonzero"/><path fill="#000000" d="M 29.941406 38.160156 C 30.136719 38.285156 30.285156 38.457031 30.371094 38.664062 C 30.148438 38.566406 30.019531 38.378906 29.941406 38.160156 Z M 12.046875 37.644531 C 12.644531 38.632812 14.050781 39.167969 15.144531 39.5625 C 15.265625 39.605469 15.386719 39.644531 15.507812 39.683594 C 14.832031 39.574219 14.164062 39.449219 13.503906 39.273438 C 12.417969 38.988281 11.109375 38.519531 10.683594 37.480469 C 10.601562 37.277344 10.4375 37.472656 10.464844 37.609375 C 10.660156 38.660156 11.726562 39.203125 12.734375 39.5625 C 14.011719 40.027344 15.40625 40.21875 16.757812 40.433594 C 18.703125 40.738281 20.585938 41.035156 22.574219 41 C 23.121094 40.988281 23.675781 40.957031 24.238281 40.90625 C 24.4375 40.902344 24.632812 40.898438 24.832031 40.886719 C 26.507812 40.8125 28.347656 40.613281 29.804688 39.804688 C 29.886719 39.757812 29.914062 39.597656 29.875 39.488281 C 30.867188 39.269531 31.882812 38.875 32.597656 38.21875 C 33.351562 37.527344 33.199219 36.410156 31.996094 36.28125 C 31.847656 36.261719 31.84375 36.699219 31.949219 36.757812 C 32.210938 36.910156 32.957031 37.132812 32.683594 37.46875 C 32.644531 37.515625 32.601562 37.558594 32.554688 37.601562 C 32.402344 37.152344 32.027344 36.78125 31.589844 36.53125 C 31.542969 36.503906 31.523438 36.628906 31.5625 36.652344 C 31.96875 36.914062 32.269531 37.28125 32.460938 37.691406 C 32.351562 37.785156 32.226562 37.871094 32.097656 37.953125 C 32.089844 37.894531 32.074219 37.835938 32.0625 37.796875 C 31.984375 37.503906 31.722656 37.257812 31.484375 37.058594 C 31.308594 36.914062 30.941406 36.589844 30.683594 36.628906 C 30.476562 36.660156 30.496094 36.855469 30.542969 37.015625 C 30.441406 37.003906 30.335938 37.003906 30.21875 37.027344 C 30.195312 37.035156 30.191406 37.101562 30.21875 37.101562 C 30.355469 37.09375 30.484375 37.128906 30.601562 37.183594 C 30.601562 37.1875 30.601562 37.191406 30.605469 37.195312 C 30.609375 37.214844 30.621094 37.210938 30.628906 37.199219 C 30.804688 37.289062 30.953125 37.425781 31.082031 37.554688 C 31.261719 37.730469 31.410156 38.027344 31.660156 38.128906 C 31.714844 38.152344 31.714844 38.046875 31.703125 38.023438 C 31.550781 37.742188 31.285156 37.488281 31.039062 37.269531 C 30.90625 37.152344 30.769531 37.070312 30.621094 37.035156 C 30.613281 36.90625 30.632812 36.75 30.792969 36.847656 C 30.851562 36.882812 30.910156 36.917969 30.96875 36.953125 C 31.144531 37.066406 31.3125 37.191406 31.464844 37.324219 C 31.617188 37.453125 31.753906 37.601562 31.859375 37.765625 C 31.921875 37.863281 31.9375 37.957031 31.9375 38.050781 C 31.84375 38.105469 31.753906 38.15625 31.664062 38.207031 C 31.304688 38.40625 30.9375 38.605469 30.5625 38.792969 C 30.558594 38.792969 30.5625 38.792969 30.558594 38.792969 C 30.496094 38.421875 30.242188 38.058594 29.890625 37.898438 C 29.863281 37.675781 29.863281 37.390625 30.007812 37.40625 C 30.589844 37.46875 30.6875 38.003906 30.804688 38.417969 C 30.820312 38.464844 30.863281 38.445312 30.871094 38.40625 C 30.964844 37.855469 30.578125 37.238281 29.914062 37.273438 C 29.894531 37.277344 29.882812 37.300781 29.878906 37.316406 C 29.84375 37.511719 29.835938 37.703125 29.855469 37.882812 C 29.640625 37.792969 29.398438 37.777344 29.136719 37.871094 C 29.109375 37.882812 29.101562 37.976562 29.140625 37.972656 C 29.417969 37.945312 29.683594 38.007812 29.902344 38.132812 C 29.976562 38.410156 30.136719 38.660156 30.398438 38.875 C 30.25 38.949219 30.097656 39.019531 29.949219 39.089844 C 29.808594 38.925781 29.613281 38.785156 29.441406 38.671875 C 29.164062 38.488281 28.816406 38.359375 28.488281 38.5 C 28.46875 38.507812 28.46875 38.558594 28.496094 38.550781 C 28.828125 38.476562 29.152344 38.664062 29.40625 38.835938 C 29.546875 38.929688 29.667969 39.039062 29.785156 39.152344 C 29.789062 39.15625 29.789062 39.15625 29.792969 39.160156 C 29.707031 39.199219 29.621094 39.238281 29.535156 39.277344 C 29.507812 39.289062 29.488281 39.335938 29.484375 39.390625 C 27.949219 39.4375 26.414062 39.820312 24.875 39.902344 C 23.132812 40 21.378906 39.875 19.660156 39.628906 C 18.28125 39.433594 16.882812 39.164062 15.53125 38.835938 C 14.910156 38.683594 14.300781 38.53125 13.703125 38.308594 C 13.109375 38.085938 12.652344 37.769531 12.128906 37.453125 C 12.035156 37.394531 12.023438 37.601562 12.046875 37.644531 " fill-opacity="1" fill-rule="nonzero"/><path fill="#000000" d="M 33.007812 36.3125 C 33.40625 36.605469 33.589844 36.601562 33.566406 37.144531 C 33.542969 37.601562 33.332031 38.089844 33.058594 38.429688 C 32.945312 38.5625 32.457031 39.148438 32.292969 39.164062 C 32.527344 39.269531 32.777344 39.070312 32.964844 38.882812 C 33.578125 38.273438 33.960938 37.976562 33.949219 36.992188 C 33.941406 36.597656 33.625 35.746094 33.015625 36.121094 C 32.964844 36.15625 32.957031 36.277344 33.007812 36.3125 " fill-opacity="1" fill-rule="nonzero"/><path fill="#000000" d="M 34.59375 36.914062 C 34.855469 37.472656 34.484375 38.808594 33.875 38.933594 C 33.816406 38.988281 33.863281 39.105469 33.9375 39.128906 C 34.011719 39.152344 34.089844 39.113281 34.15625 39.070312 C 35.25 38.339844 35.242188 36.808594 34.277344 35.96875 C 34.199219 35.902344 34.179688 36.179688 34.210938 36.226562 C 34.359375 36.445312 34.484375 36.675781 34.59375 36.914062 " fill-opacity="1" fill-rule="nonzero"/><path fill="#000000" d="M 35.886719 37.609375 C 35.871094 37.660156 35.925781 37.972656 36.023438 37.875 C 36.386719 37.523438 36.261719 37.046875 36.101562 36.675781 C 35.910156 36.226562 35.503906 35.992188 35.066406 35.785156 C 35.023438 35.761719 35.046875 35.894531 35.066406 35.914062 C 35.515625 36.328125 36.125 36.949219 35.886719 37.609375 " fill-opacity="1" fill-rule="nonzero"/><path fill="#000000" d="M 37.914062 37.195312 C 38.929688 36.847656 37.296875 35.132812 36.765625 35.082031 C 36.714844 35.078125 36.71875 35.207031 36.75 35.226562 C 37.402344 35.652344 38.0625 36.265625 37.914062 37.195312 " fill-opacity="1" fill-rule="nonzero"/><path fill="#000000" d="M 6.210938 37.5 C 6.308594 36.972656 6.765625 36.628906 7.089844 36.214844 C 7.125 36.167969 7.121094 35.90625 7.015625 35.929688 C 6.351562 36.074219 6.054688 36.875 6.085938 37.417969 C 6.089844 37.488281 6.183594 37.648438 6.210938 37.5 " fill-opacity="1" fill-rule="nonzero"/><path fill="#000000" d="M 7.03125 37.527344 C 7.109375 36.953125 7.652344 36.664062 8.011719 36.242188 C 8.070312 36.175781 8.046875 35.941406 7.929688 35.9375 C 7.566406 35.917969 7.292969 36.238281 7.132812 36.496094 C 6.953125 36.792969 6.886719 37.113281 6.898438 37.445312 C 6.902344 37.519531 7.007812 37.683594 7.03125 37.527344 " fill-opacity="1" fill-rule="nonzero"/><path fill="#000000" d="M 7.992188 37.972656 C 8.011719 37.363281 8.539062 36.960938 8.757812 36.429688 C 8.789062 36.359375 8.777344 36.167969 8.664062 36.160156 C 8.300781 36.132812 8.089844 36.617188 7.972656 36.863281 C 7.800781 37.226562 7.785156 37.605469 7.871094 37.984375 C 7.894531 38.09375 7.992188 38.078125 7.992188 37.972656 " fill-opacity="1" fill-rule="nonzero"/><path fill="#000000" d="M 10.949219 36.917969 C 10.722656 37.578125 11.019531 38.417969 11.914062 38.347656 C 11.996094 38.425781 12.101562 38.476562 12.242188 38.472656 C 12.300781 38.46875 12.289062 38.351562 12.257812 38.328125 C 11.9375 38.078125 11.761719 37.847656 11.828125 37.441406 C 11.886719 37.085938 12.160156 36.714844 12.578125 36.660156 C 12.632812 36.652344 12.636719 36.5 12.582031 36.5 C 12.035156 36.527344 11.769531 37 11.691406 37.4375 C 11.660156 37.632812 11.675781 37.949219 11.792969 38.179688 C 11.164062 37.949219 10.832031 37.585938 11.09375 36.902344 C 11.257812 36.472656 11.742188 35.914062 12.3125 36.054688 C 12.34375 36.0625 12.339844 35.984375 12.324219 35.972656 C 11.683594 35.542969 11.097656 36.472656 10.949219 36.917969 " fill-opacity="1" fill-rule="nonzero"/><path fill="#000000" d="M 9.945312 33.105469 C 8.515625 33.175781 7.140625 33.449219 5.75 33.734375 C 4.855469 33.917969 3.9375 34.3125 3.308594 34.957031 C 3.296875 34.96875 3.300781 35.027344 3.320312 35.011719 C 3.996094 34.355469 5.175781 34.054688 6.09375 33.875 C 7.375 33.617188 8.671875 33.535156 9.941406 33.230469 C 9.980469 33.222656 9.988281 33.101562 9.945312 33.105469 " fill-opacity="1" fill-rule="nonzero"/><path fill="#000000" d="M 7.070312 34.78125 C 7.050781 34.808594 7.058594 34.9375 7.09375 34.894531 C 8.078125 33.796875 9.886719 33.871094 11.25 33.480469 C 11.277344 33.472656 11.28125 33.378906 11.25 33.375 C 9.949219 33.300781 7.84375 33.757812 7.070312 34.78125 " fill-opacity="1" fill-rule="nonzero"/><path fill="#000000" d="M 8.628906 34.816406 C 9.53125 34.039062 10.78125 34.222656 11.839844 33.808594 C 11.875 33.792969 11.882812 33.667969 11.835938 33.667969 C 10.800781 33.605469 9.316406 33.972656 8.597656 34.671875 C 8.5625 34.703125 8.574219 34.867188 8.628906 34.816406 " fill-opacity="1" fill-rule="nonzero"/><path fill="#000000" d="M 9.925781 35.472656 C 10.5625 35.144531 11.222656 34.980469 11.90625 34.757812 C 11.9375 34.75 11.941406 34.640625 11.90625 34.644531 C 11.207031 34.683594 10.472656 34.980469 9.917969 35.355469 C 9.886719 35.375 9.890625 35.492188 9.925781 35.472656 " fill-opacity="1" fill-rule="nonzero"/><path fill="#000000" d="M 26.789062 26.472656 C 28.628906 26.492188 31.082031 26.003906 32.414062 24.585938 C 32.4375 24.558594 32.4375 24.382812 32.390625 24.410156 C 30.65625 25.535156 28.820312 26.085938 26.792969 26.378906 C 26.765625 26.382812 26.761719 26.472656 26.789062 26.472656 " fill-opacity="1" fill-rule="nonzero"/><path fill="#000000" d="M 28.046875 27.449219 C 29.273438 27.265625 30.992188 26.960938 31.910156 26.046875 C 31.945312 26.011719 31.964844 25.78125 31.894531 25.816406 C 31.246094 26.125 30.621094 26.394531 29.933594 26.589844 C 29.289062 26.773438 28.628906 26.890625 28.046875 27.238281 C 28.003906 27.261719 27.992188 27.460938 28.046875 27.449219 " fill-opacity="1" fill-rule="nonzero"/><path fill="#000000" d="M 27.777344 28.535156 C 28.898438 28.878906 30.660156 28.28125 31.515625 27.507812 C 31.554688 27.46875 31.597656 27.203125 31.511719 27.21875 C 30.953125 27.308594 30.4375 27.601562 29.90625 27.792969 C 29.214844 28.039062 28.511719 28.121094 27.792969 28.203125 C 27.691406 28.214844 27.6875 28.507812 27.777344 28.535156 " fill-opacity="1" fill-rule="nonzero"/><path fill="#000000" d="M 27.09375 29.710938 C 28.21875 29.589844 29.984375 29.878906 30.734375 28.777344 C 30.757812 28.742188 30.769531 28.5 30.703125 28.546875 C 29.652344 29.308594 28.316406 29.195312 27.105469 29.4375 C 27.023438 29.453125 27.023438 29.71875 27.09375 29.710938 " fill-opacity="1" fill-rule="nonzero"/><path fill="#000000" d="M 26.914062 30.792969 C 27.300781 31.058594 27.796875 30.984375 28.226562 30.894531 C 28.746094 30.785156 29.394531 30.652344 29.8125 30.308594 C 29.863281 30.269531 29.902344 30.035156 29.808594 30.03125 C 29.355469 30 28.835938 30.28125 28.402344 30.398438 C 27.921875 30.527344 27.425781 30.628906 26.929688 30.621094 C 26.875 30.621094 26.878906 30.769531 26.914062 30.792969 " fill-opacity="1" fill-rule="nonzero"/><path fill="#000000" d="M 27.476562 31.679688 C 28.253906 31.835938 29.382812 31.746094 29.980469 31.140625 C 30.015625 31.105469 30.042969 30.863281 29.960938 30.871094 C 29.59375 30.90625 29.234375 31.125 28.882812 31.234375 C 28.4375 31.375 27.949219 31.484375 27.484375 31.480469 C 27.425781 31.480469 27.417969 31.667969 27.476562 31.679688 " fill-opacity="1" fill-rule="nonzero"/><path fill="#000000" d="M 27.296875 32.730469 C 27.785156 33.164062 28.660156 32.761719 28.984375 32.304688 C 29.007812 32.273438 29.035156 32.046875 28.957031 32.085938 C 28.710938 32.210938 28.449219 32.320312 28.191406 32.410156 C 27.972656 32.488281 27.546875 32.644531 27.332031 32.496094 C 27.265625 32.453125 27.246094 32.6875 27.296875 32.730469 " fill-opacity="1" fill-rule="nonzero"/><path fill="#000000" d="M 27.246094 33.722656 C 27.625 33.785156 28.125 33.699219 28.410156 33.421875 C 28.449219 33.382812 28.464844 33.195312 28.390625 33.183594 C 28.234375 33.160156 28.070312 33.242188 27.921875 33.289062 C 27.699219 33.355469 27.492188 33.394531 27.261719 33.371094 C 27.160156 33.363281 27.140625 33.707031 27.246094 33.722656 " fill-opacity="1" fill-rule="nonzero"/><path fill="#000000" d="M 26.992188 34.558594 C 27.402344 34.554688 27.871094 34.457031 28.164062 34.140625 C 28.199219 34.097656 28.21875 33.871094 28.128906 33.898438 C 27.746094 34.011719 27.417969 34.171875 27.007812 34.171875 C 26.886719 34.171875 26.878906 34.558594 26.992188 34.558594 " fill-opacity="1" fill-rule="nonzero"/><path fill="#000000" d="M 13.5 31.359375 C 13.328125 31.261719 13.164062 31.167969 13.011719 31.035156 C 12.953125 30.980469 12.933594 31.117188 12.953125 31.15625 C 13.136719 31.46875 13.488281 31.613281 13.800781 31.753906 C 14.179688 31.921875 14.570312 32.066406 14.949219 32.230469 C 15.035156 32.265625 15.039062 32.078125 14.988281 32.039062 C 14.679688 31.792969 14.332031 31.65625 13.976562 31.511719 C 13.644531 31.375 13.328125 31.117188 12.992188 31.023438 C 12.984375 31.074219 12.980469 31.125 12.972656 31.179688 C 13.144531 31.269531 13.308594 31.367188 13.480469 31.457031 C 13.519531 31.480469 13.53125 31.378906 13.5 31.359375 " fill-opacity="1" fill-rule="nonzero"/><path fill="#000000" d="M 12.351562 30.035156 C 12.871094 30.371094 13.46875 30.527344 14.03125 30.765625 C 14.074219 30.785156 14.085938 30.679688 14.050781 30.664062 C 13.5 30.390625 12.894531 30.257812 12.371094 29.921875 C 12.332031 29.898438 12.316406 30.011719 12.351562 30.035156 " fill-opacity="1" fill-rule="nonzero"/><path fill="#000000" d="M 11.820312 28.839844 C 12.484375 29.316406 13.296875 29.488281 13.984375 29.929688 C 14.019531 29.953125 14.035156 29.847656 14.003906 29.828125 C 13.347656 29.34375 12.507812 29.21875 11.835938 28.75 C 11.804688 28.730469 11.792969 28.820312 11.820312 28.839844 " fill-opacity="1" fill-rule="nonzero"/><path fill="#000000" d="M 11.273438 27.789062 C 12.039062 28.167969 12.839844 28.515625 13.648438 28.777344 C 13.710938 28.800781 13.71875 28.664062 13.675781 28.640625 C 12.945312 28.183594 12.09375 27.957031 11.300781 27.644531 C 11.238281 27.621094 11.222656 27.765625 11.273438 27.789062 " fill-opacity="1" fill-rule="nonzero"/><path fill="#000000" d="M 10.644531 26.484375 C 11.519531 26.945312 12.378906 27.457031 13.304688 27.816406 C 13.359375 27.835938 13.371094 27.703125 13.328125 27.679688 C 12.457031 27.214844 11.554688 26.800781 10.667969 26.359375 C 10.621094 26.335938 10.601562 26.464844 10.644531 26.484375 " fill-opacity="1" fill-rule="nonzero"/><path fill="#000000" d="M 10.800781 25.574219 C 11.714844 26.019531 12.742188 26.382812 13.554688 27.015625 C 13.613281 27.058594 13.628906 26.890625 13.597656 26.855469 C 12.910156 26.03125 11.765625 25.8125 10.832031 25.414062 C 10.769531 25.386719 10.75 25.550781 10.800781 25.574219 " fill-opacity="1" fill-rule="nonzero"/><path fill="#000000" d="M 31.6875 22.140625 C 31.292969 22.054688 31 22.128906 30.625 22.261719 C 29.929688 22.507812 29.164062 22.523438 28.414062 22.5625 C 27.550781 22.609375 26.683594 22.625 25.816406 22.644531 C 25.003906 22.660156 24.199219 22.59375 23.425781 22.820312 C 23.210938 22.882812 23.199219 23.191406 23.394531 23.265625 C 24.054688 23.519531 24.742188 23.503906 25.472656 23.5 C 26.339844 23.5 27.207031 23.449219 28.074219 23.394531 C 28.769531 23.347656 29.453125 23.296875 30.117188 23.128906 C 30.757812 22.964844 31.070312 22.511719 31.675781 22.328125 C 31.753906 22.304688 31.78125 22.15625 31.6875 22.140625 " fill-opacity="1" fill-rule="nonzero"/><path fill="#000000" d="M 22.042969 23.535156 C 22.167969 24.496094 25.171875 24.050781 25.902344 23.96875 C 27.351562 23.804688 29.582031 23.671875 30.597656 22.761719 C 30.679688 22.691406 30.667969 22.425781 30.476562 22.476562 C 29.964844 22.617188 29.359375 22.683594 28.828125 22.789062 C 27.953125 22.957031 27.078125 23.117188 26.191406 23.238281 C 25.320312 23.355469 24.429688 23.449219 23.546875 23.484375 C 23.144531 23.5 22.496094 23.585938 22.117188 23.457031 C 22.0625 23.4375 22.039062 23.507812 22.042969 23.535156 " fill-opacity="1" fill-rule="nonzero"/><path fill="#000000" d="M 31.640625 32.058594 C 31.601562 32.152344 31.585938 32.1875 31.597656 32.28125 C 31.601562 32.3125 31.609375 32.363281 31.648438 32.351562 C 32.433594 32.128906 33.226562 31.910156 34.003906 31.65625 C 34.921875 31.359375 35.78125 30.777344 36.589844 30.25 C 37.617188 29.574219 38.539062 28.808594 39.273438 27.804688 C 39.738281 27.171875 40.21875 26.3125 40.140625 25.488281 C 40.054688 24.625 39.359375 23.9375 38.496094 23.9375 C 38.441406 23.9375 38.4375 24.089844 38.476562 24.109375 C 39.375 24.621094 40.261719 24.941406 39.890625 26.222656 C 39.640625 27.089844 39 27.847656 38.394531 28.476562 C 37.539062 29.363281 36.449219 30.027344 35.398438 30.640625 C 34.785156 30.996094 34.171875 31.277344 33.496094 31.480469 C 33.261719 31.550781 31.710938 31.84375 31.679688 32.113281 C 31.683594 32.09375 31.664062 32.003906 31.640625 32.058594 " fill-opacity="1" fill-rule="nonzero"/><path fill="#000000" d="M 33.542969 26.609375 C 33.753906 25.699219 35.011719 25.558594 35.75 25.609375 C 36.183594 25.640625 36.609375 25.769531 36.972656 26.011719 C 37.675781 26.484375 37.453125 27.226562 37.160156 27.882812 C 37.152344 27.90625 37.15625 28.023438 37.1875 27.980469 C 38.988281 25.53125 34.042969 24.316406 33.515625 26.570312 C 33.511719 26.59375 33.53125 26.65625 33.542969 26.609375 " fill-opacity="1" fill-rule="nonzero"/><path fill="#000000" d="M 31.695312 32.9375 C 32.035156 32.488281 32.558594 32.273438 32.976562 31.910156 C 32.992188 31.898438 32.988281 31.8125 32.960938 31.828125 C 32.492188 32.109375 31.972656 32.355469 31.664062 32.835938 C 31.648438 32.859375 31.664062 32.980469 31.695312 32.9375 " fill-opacity="1" fill-rule="nonzero"/><path fill="#000000" d="M 32.542969 32.753906 C 32.804688 32.496094 33.125 32.304688 33.347656 32.003906 C 33.359375 31.992188 33.355469 31.921875 33.335938 31.945312 C 33.089844 32.210938 32.78125 32.402344 32.519531 32.652344 C 32.496094 32.675781 32.507812 32.792969 32.542969 32.753906 " fill-opacity="1" fill-rule="nonzero"/><path fill="#502412" d="M 25.605469 17.625 C 26.644531 16.683594 25.769531 15.160156 25.074219 14.3125 C 23.894531 12.878906 22.207031 12.863281 20.644531 12.125 C 19.871094 11.757812 19.171875 11.234375 18.589844 10.59375 C 17.734375 9.640625 17.730469 8.605469 18.5625 7.636719 C 19.609375 6.417969 21.308594 6.304688 22.773438 6.429688 C 25.761719 6.6875 28.839844 8.164062 31.808594 7.101562 C 33.191406 6.609375 33.769531 5.152344 32.875 3.875 C 32.414062 3.214844 31.539062 2.957031 30.992188 2.382812 C 30.039062 1.390625 32.527344 1.015625 33.023438 1.003906 C 35.335938 0.945312 37.671875 1.875 39.914062 2.375 C 41.679688 2.765625 44.128906 3.257812 45.507812 1.707031 C 45.628906 1.574219 45.589844 0.871094 45.332031 1.011719 C 43.601562 1.960938 41.9375 1.839844 40.066406 1.445312 C 37.976562 1.007812 35.921875 0.285156 33.796875 0.0703125 C 32.484375 -0.0585938 30.445312 0.0898438 30.296875 1.816406 C 30.246094 2.421875 30.550781 2.96875 30.949219 3.386719 C 31.472656 3.941406 33.578125 4.695312 32.496094 5.726562 C 31.976562 6.21875 31.023438 6.390625 30.339844 6.480469 C 29.59375 6.578125 28.828125 6.492188 28.085938 6.386719 C 26.476562 6.160156 24.902344 5.710938 23.289062 5.496094 C 21.882812 5.308594 20.386719 5.363281 19.144531 6.136719 C 17.925781 6.894531 17.214844 8.332031 17.558594 9.773438 C 17.949219 11.433594 19.632812 12.570312 21.085938 13.148438 C 22.144531 13.570312 23.238281 13.667969 24.175781 14.390625 C 24.753906 14.839844 26.070312 16.210938 25.34375 16.914062 C 25.140625 17.105469 25.300781 17.902344 25.605469 17.625 " fill-opacity="1" fill-rule="nonzero"/><g clip-path="url(#796f300a26)"><path fill="#502412" d="M 27.082031 15.964844 C 28.183594 13.457031 24.984375 12.757812 23.539062 11.640625 C 23.015625 11.230469 21.808594 9.765625 22.621094 9.195312 C 23.503906 8.570312 24.925781 8.765625 25.898438 8.933594 C 27.707031 9.246094 29.535156 9.78125 31.378906 9.726562 C 32.773438 9.683594 34.515625 8.992188 35.070312 7.566406 C 35.429688 6.648438 34.988281 5.5625 34.714844 4.6875 C 34.519531 4.0625 34.3125 3.347656 34.886719 2.875 C 35.574219 2.304688 36.765625 2.394531 37.570312 2.515625 C 38.625 2.683594 39.636719 3.132812 40.660156 3.4375 C 41.671875 3.738281 42.707031 3.796875 43.753906 3.722656 C 45.210938 3.617188 46.671875 3.179688 47.949219 2.457031 C 47.980469 2.441406 47.964844 2.300781 47.933594 2.3125 C 45.808594 3.09375 43.652344 3.722656 41.378906 3.316406 C 39.378906 2.957031 37.601562 1.765625 35.507812 2.285156 C 34.617188 2.507812 34.292969 3.167969 34.421875 4.050781 C 34.605469 5.300781 35.554688 6.628906 34.71875 7.832031 C 33.535156 9.53125 31.234375 9.546875 29.4375 9.292969 C 27.476562 9.011719 25.363281 8.203125 23.386719 8.675781 C 22.957031 8.777344 22.441406 8.894531 22.273438 9.363281 C 22.125 9.789062 22.34375 10.277344 22.542969 10.636719 C 23.1875 11.816406 24.164062 12.292969 25.296875 12.871094 C 26.496094 13.484375 27.664062 14.308594 27.023438 15.859375 C 27.007812 15.902344 27.046875 16.042969 27.082031 15.964844 " fill-opacity="1" fill-rule="nonzero"/></g><path fill="#502412" d="M 15.75 37.257812 C 13.605469 34.902344 11.910156 32.453125 10.816406 29.351562 C 10.25 27.738281 9.832031 26.046875 9.585938 24.34375 C 9.46875 23.527344 9.40625 22.703125 9.414062 21.882812 C 9.417969 21.429688 9.527344 20.949219 9.546875 20.488281 C 9.390625 20.777344 9.226562 21.058594 9.070312 21.34375 C 9.0625 21.429688 9.054688 21.519531 9.050781 21.605469 C 9.050781 21.613281 9.054688 21.625 9.054688 21.636719 C 9.078125 21.710938 9.070312 21.773438 9.039062 21.820312 C 9.015625 22.476562 9.035156 23.128906 9.085938 23.78125 C 9.234375 25.625 9.675781 27.453125 10.207031 29.203125 C 11.207031 32.492188 12.949219 35.875 15.574219 37.976562 C 15.800781 38.160156 15.890625 37.414062 15.75 37.257812 " fill-opacity="1" fill-rule="nonzero"/><path fill="#502412" d="M 34.292969 21.132812 C 33.902344 22.566406 33.761719 24.09375 33.488281 25.558594 C 33.195312 27.121094 32.707031 28.558594 32.144531 30.027344 C 31.679688 31.242188 31.21875 32.457031 30.625 33.609375 C 30.34375 34.15625 30.03125 34.671875 29.644531 35.140625 C 29.261719 35.597656 28.816406 35.988281 28.476562 36.484375 C 28.414062 36.574219 28.3125 37.085938 28.53125 37.066406 C 29.46875 36.984375 30.121094 35.515625 30.539062 34.75 C 31.195312 33.554688 31.683594 32.242188 32.171875 30.960938 C 32.707031 29.554688 33.230469 28.183594 33.5625 26.699219 C 33.953125 24.945312 34.261719 23.117188 34.476562 21.328125 C 34.492188 21.1875 34.375 20.839844 34.292969 21.132812 " fill-opacity="1" fill-rule="nonzero"/><path fill="#502412" d="M 15.632812 37.621094 C 16.152344 38.5625 17.183594 38.78125 18.15625 38.964844 C 19.242188 39.164062 20.371094 39.191406 21.46875 39.242188 C 22.808594 39.304688 24.15625 39.195312 25.46875 38.910156 C 26.691406 38.644531 28.152344 38.203125 28.960938 37.175781 C 29.019531 37.101562 29.066406 36.667969 28.90625 36.71875 C 28.371094 36.890625 27.90625 37.230469 27.394531 37.472656 C 26.792969 37.757812 26.148438 37.949219 25.5 38.105469 C 24.265625 38.402344 22.976562 38.484375 21.710938 38.464844 C 19.734375 38.429688 17.441406 38.425781 15.679688 37.390625 C 15.601562 37.347656 15.613281 37.585938 15.632812 37.621094 " fill-opacity="1" fill-rule="nonzero"/><path fill="#502412" d="M 33.5625 25.898438 C 34.070312 24.347656 36.324219 23.753906 37.734375 23.9375 C 38.535156 24.042969 39.328125 24.269531 39.9375 24.835938 C 40.867188 25.695312 40.296875 27.054688 39.699219 27.929688 C 38.617188 29.519531 36.753906 30.191406 35.167969 31.085938 C 33.90625 31.796875 32.34375 33.105469 30.816406 32.964844 C 30.582031 32.945312 30.542969 33.722656 30.785156 33.765625 C 31.617188 33.917969 32.566406 33.308594 33.273438 32.945312 C 34.175781 32.484375 35.070312 32.023438 35.984375 31.589844 C 38.050781 30.613281 40.304688 29.183594 40.714844 26.671875 C 40.847656 25.839844 40.796875 24.976562 40.300781 24.273438 C 39.765625 23.519531 38.753906 23.25 37.902344 23.160156 C 36.242188 22.988281 33.859375 23.867188 33.433594 25.683594 C 33.40625 25.800781 33.480469 26.15625 33.5625 25.898438 " fill-opacity="1" fill-rule="nonzero"/><path fill="#502412" d="M 33.492188 27.484375 C 34.171875 27.09375 34.824219 26.714844 35.597656 26.539062 C 36.308594 26.375 37.945312 26.707031 36.917969 27.675781 C 36.304688 28.253906 35.417969 28.5625 34.660156 28.875 C 33.972656 29.160156 33.117188 29.355469 32.65625 30 C 32.621094 30.050781 32.558594 30.449219 32.6875 30.421875 C 33.644531 30.191406 34.601562 29.691406 35.503906 29.285156 C 36.359375 28.898438 37.363281 28.378906 37.546875 27.34375 C 37.996094 24.832031 34.136719 25.957031 33.453125 27.289062 C 33.4375 27.316406 33.421875 27.523438 33.492188 27.484375 " fill-opacity="1" fill-rule="nonzero"/><path fill="#502412" d="M 30.390625 18.851562 C 27.480469 18.109375 24.125 18.085938 21.058594 18.046875 C 18.425781 18.015625 15.707031 18.34375 13.191406 18.957031 C 11.695312 19.324219 8.699219 20.207031 9.058594 21.730469 C 9.085938 21.847656 9.15625 21.976562 9.304688 22.003906 C 9.042969 21.953125 10.007812 20.796875 10.109375 20.71875 C 10.460938 20.457031 10.894531 20.261719 11.332031 20.09375 C 12.199219 19.773438 13.121094 19.597656 14.039062 19.382812 C 16.386719 18.882812 18.875 18.65625 21.304688 18.6875 C 24.023438 18.722656 26.894531 18.804688 29.523438 19.3125 C 31.222656 19.636719 33.40625 20.238281 33.890625 21.617188 C 33.949219 21.785156 34.0625 21.539062 34.070312 21.488281 C 34.269531 20.003906 31.972656 19.25 30.390625 18.851562 " fill-opacity="1" fill-rule="nonzero"/><path fill="#502412" d="M 33.945312 21.03125 C 33.746094 22.199219 32.25 22.941406 30.925781 23.40625 C 29.433594 23.933594 27.816406 24.238281 26.199219 24.425781 C 24.6875 24.597656 23.179688 24.570312 21.660156 24.570312 C 20.066406 24.566406 18.464844 24.535156 16.882812 24.382812 C 15.589844 24.257812 8.050781 22.554688 9.480469 21.171875 C 9.527344 21.125 9.53125 20.988281 9.503906 20.902344 C 9.363281 21.082031 9.214844 21.261719 9.070312 21.4375 C 9.0625 21.449219 9.050781 21.460938 9.042969 21.46875 C 9.046875 21.515625 9.058594 21.566406 9.078125 21.613281 C 9.109375 21.6875 9.074219 21.742188 9.015625 21.777344 C 9.355469 23.355469 14.632812 24.566406 16 24.804688 C 17.640625 25.09375 19.410156 25.113281 21.09375 25.117188 C 22.96875 25.121094 24.855469 25.035156 26.710938 24.796875 C 29.347656 24.453125 33.894531 23.535156 34.050781 21.058594 C 34.054688 20.972656 33.964844 20.917969 33.945312 21.03125 " fill-opacity="1" fill-rule="nonzero"/><path fill="#502412" d="M 11.054688 21.730469 C 11.324219 22.039062 11.746094 22.320312 12.050781 22.492188 C 12.53125 22.769531 13.0625 22.976562 13.570312 23.191406 C 14.46875 23.578125 15.46875 23.957031 16.457031 23.949219 C 16.660156 23.945312 16.648438 23.519531 16.503906 23.441406 C 15.441406 22.863281 14.21875 22.578125 13.085938 22.167969 C 12.511719 21.960938 11.484375 21.160156 10.890625 21.496094 C 10.933594 21.574219 10.992188 21.652344 11.054688 21.730469 " fill-opacity="1" fill-rule="nonzero"/><path fill="#502412" d="M 20.175781 24.011719 C 20.167969 23.953125 20.144531 23.902344 20.117188 23.878906 C 19.492188 23.335938 18.578125 23.042969 17.710938 22.769531 C 16.789062 22.472656 15.855469 22.195312 14.914062 21.929688 C 14.179688 21.722656 13.417969 21.566406 12.667969 21.382812 C 12.285156 21.289062 11.796875 21.101562 11.347656 21.007812 C 11.183594 21.089844 11.019531 21.171875 10.859375 21.257812 C 11.171875 21.59375 11.808594 21.773438 12.28125 21.9375 C 13.015625 22.195312 13.796875 22.378906 14.539062 22.613281 C 15.4375 22.898438 16.339844 23.175781 17.234375 23.464844 C 17.652344 23.597656 18.078125 23.761719 18.515625 23.90625 C 19.066406 23.9375 19.621094 23.976562 20.175781 24.011719 " fill-opacity="1" fill-rule="nonzero"/><path fill="#502412" d="M 22.234375 23.503906 C 21.226562 22.949219 19.933594 22.660156 18.785156 22.292969 C 17.8125 21.980469 16.820312 21.703125 15.863281 21.363281 C 15.117188 21.097656 14.371094 20.835938 13.59375 20.621094 C 13.367188 20.558594 13.113281 20.488281 12.851562 20.449219 C 12.542969 20.527344 12.257812 20.617188 11.992188 20.722656 C 13.351562 21.058594 14.554688 21.574219 15.824219 22.066406 C 16.804688 22.445312 17.832031 22.777344 18.84375 23.105469 C 19.875 23.4375 21.011719 23.886719 22.164062 23.90625 C 22.410156 23.910156 22.367188 23.578125 22.234375 23.503906 " fill-opacity="1" fill-rule="nonzero"/><path fill="#502412" d="M 25.859375 23.6875 C 24.035156 22.785156 21.816406 22.277344 19.769531 21.699219 C 17.898438 21.171875 15.929688 20.488281 13.949219 20.222656 C 13.894531 20.230469 13.839844 20.242188 13.785156 20.25 C 13.761719 20.296875 13.773438 20.375 13.789062 20.398438 C 13.863281 20.527344 13.835938 20.5 14.011719 20.574219 C 14.042969 20.585938 14.066406 20.570312 14.082031 20.542969 C 15.859375 21.328125 17.953125 21.832031 19.859375 22.414062 C 21.78125 23 23.746094 23.742188 25.800781 24.019531 C 25.996094 24.046875 25.972656 23.742188 25.859375 23.6875 " fill-opacity="1" fill-rule="nonzero"/><path fill="#502412" d="M 15.398438 20.222656 C 17.109375 20.441406 18.628906 21.089844 20.167969 21.648438 C 21.234375 22.039062 22.378906 22.335938 23.503906 22.617188 C 24.839844 22.953125 26.164062 23.332031 27.554688 23.519531 C 27.734375 23.542969 27.714844 23.261719 27.609375 23.210938 C 25.378906 22.140625 22.601562 21.851562 20.199219 21.035156 C 19.324219 20.738281 18.457031 20.425781 17.546875 20.1875 C 16.917969 20.023438 16.027344 19.78125 15.390625 20.058594 C 15.324219 20.085938 15.308594 20.210938 15.398438 20.222656 " fill-opacity="1" fill-rule="nonzero"/><path fill="#502412" d="M 29.691406 22.878906 C 28.148438 21.734375 25.601562 21.417969 23.582031 20.953125 C 21.878906 20.558594 20.246094 19.921875 18.515625 19.605469 C 18.105469 19.644531 17.699219 19.6875 17.292969 19.734375 C 19.402344 20.175781 21.347656 20.980469 23.429688 21.476562 C 24.496094 21.730469 25.574219 21.960938 26.632812 22.234375 C 27.636719 22.496094 28.589844 22.847656 29.589844 23.125 C 29.75 23.167969 29.769531 22.9375 29.691406 22.878906 " fill-opacity="1" fill-rule="nonzero"/><path fill="#502412" d="M 30.96875 22.816406 C 30.96875 22.679688 30.910156 22.535156 30.8125 22.488281 C 29.945312 22.066406 28.90625 21.796875 27.960938 21.480469 C 26.960938 21.140625 25.941406 20.839844 24.925781 20.535156 C 23.320312 20.050781 21.828125 19.398438 20.042969 19.546875 C 19.953125 19.554688 19.9375 19.703125 20.03125 19.710938 C 21.769531 19.859375 23.398438 20.664062 24.945312 21.199219 C 25.882812 21.523438 26.824219 21.835938 27.761719 22.160156 C 28.621094 22.457031 29.5 22.835938 30.425781 23.023438 C 30.601562 22.949219 30.785156 22.882812 30.96875 22.816406 " fill-opacity="1" fill-rule="nonzero"/><path fill="#502412" d="M 32.3125 22.109375 C 32.273438 22.0625 32.21875 22.03125 32.15625 22.019531 C 31.3125 21.597656 30.207031 21.363281 29.265625 21.074219 C 28.457031 20.824219 27.625 20.605469 26.820312 20.351562 C 25.726562 20.003906 23.90625 19.25 22.683594 19.675781 C 22.4375 19.761719 22.535156 20.195312 22.730469 20.148438 C 22.859375 20.152344 22.988281 20.164062 23.113281 20.175781 C 23.140625 20.195312 23.167969 20.210938 23.195312 20.226562 C 23.226562 20.242188 23.25 20.222656 23.265625 20.195312 C 24.511719 20.351562 25.625 20.800781 26.757812 21.21875 C 27.492188 21.492188 28.257812 21.703125 29.011719 21.945312 C 29.734375 22.175781 30.503906 22.515625 31.292969 22.699219 C 31.699219 22.546875 32.078125 22.375 32.3125 22.109375 " fill-opacity="1" fill-rule="nonzero"/><path fill="#502412" d="M 32.3125 22.105469 C 32.414062 21.988281 32.492188 21.855469 32.527344 21.691406 C 31.859375 20.753906 30.042969 20.324219 28.792969 20.035156 C 27.890625 19.828125 26.945312 19.710938 26.007812 19.621094 C 24.316406 19.457031 22.613281 19.535156 20.914062 19.472656 C 20.726562 19.464844 20.511719 19.46875 20.390625 19.578125 C 21.316406 19.675781 22.246094 19.777344 23.171875 19.878906 C 23.988281 19.964844 24.796875 19.933594 25.601562 20.074219 C 26.554688 20.222656 27.488281 20.398438 28.421875 20.601562 C 29.226562 20.773438 30.007812 20.996094 30.742188 21.285156 C 31.320312 21.511719 31.78125 21.839844 32.3125 22.105469 " fill-opacity="1" fill-rule="nonzero"/><path fill="#502412" d="M 21.085938 19.605469 C 20.535156 19.597656 19.984375 19.558594 19.4375 19.523438 C 18.554688 19.59375 17.671875 19.683594 16.796875 19.796875 C 16.816406 19.855469 16.863281 19.902344 16.9375 19.894531 C 18.3125 19.746094 19.695312 19.949219 21.074219 19.800781 C 21.183594 19.789062 21.203125 19.605469 21.085938 19.605469 " fill-opacity="1" fill-rule="nonzero"/><path fill="#502412" d="M 17.570312 20.054688 C 18.757812 20.28125 19.957031 20.375 21.183594 20.4375 C 22.566406 20.507812 23.992188 20.636719 25.382812 20.609375 C 25.515625 20.609375 25.550781 20.398438 25.425781 20.367188 C 24.269531 20.101562 22.976562 20.105469 21.769531 20.066406 C 20.382812 20.023438 18.984375 19.964844 17.613281 19.800781 C 17.476562 19.78125 17.445312 20.03125 17.570312 20.054688 " fill-opacity="1" fill-rule="nonzero"/><path fill="#502412" d="M 17.933594 20.53125 C 19.5 20.878906 21.121094 20.996094 22.75 21.117188 C 24.546875 21.253906 26.351562 21.417969 28.164062 21.429688 C 28.304688 21.429688 28.335938 21.203125 28.210938 21.175781 C 26.640625 20.839844 25.011719 20.71875 23.386719 20.601562 C 21.585938 20.472656 19.785156 20.308594 17.972656 20.308594 C 17.851562 20.308594 17.824219 20.507812 17.933594 20.53125 " fill-opacity="1" fill-rule="nonzero"/><path fill="#502412" d="M 20.820312 21.355469 C 22.292969 21.558594 23.742188 21.667969 25.242188 21.746094 C 25.980469 21.785156 26.722656 21.8125 27.460938 21.867188 C 28.167969 21.921875 28.886719 22.066406 29.597656 22.039062 C 29.777344 22.03125 29.789062 21.792969 29.652344 21.738281 C 28.488281 21.269531 26.851562 21.320312 25.550781 21.269531 C 23.984375 21.203125 22.390625 21.261719 20.832031 21.148438 C 20.710938 21.140625 20.703125 21.335938 20.820312 21.355469 " fill-opacity="1" fill-rule="nonzero"/><path fill="#502412" d="M 22.59375 21.949219 C 23.746094 22.125 24.847656 22.34375 26.023438 22.460938 C 26.648438 22.523438 27.28125 22.546875 27.910156 22.570312 C 28.445312 22.585938 29.019531 22.636719 29.515625 22.46875 C 29.660156 22.421875 29.707031 22.171875 29.539062 22.128906 C 29.109375 22.015625 28.664062 22.058594 28.210938 22.054688 C 27.582031 22.050781 26.953125 22.019531 26.328125 21.980469 C 25.085938 21.902344 23.835938 21.878906 22.601562 21.800781 C 22.511719 21.792969 22.507812 21.9375 22.59375 21.949219 " fill-opacity="1" fill-rule="nonzero"/><path fill="#502412" d="M 24.304688 22.320312 C 25.671875 22.796875 27.617188 22.875 29.105469 22.644531 C 29.230469 22.625 29.25 22.394531 29.121094 22.371094 C 28.421875 22.246094 27.691406 22.25 26.972656 22.234375 C 26.09375 22.214844 25.21875 22.148438 24.335938 22.148438 C 24.238281 22.148438 24.226562 22.292969 24.304688 22.320312 " fill-opacity="1" fill-rule="nonzero"/><path fill="#502412" d="M 34.820312 35.042969 C 35.28125 35.183594 35.710938 35.285156 36.109375 35.578125 C 36.648438 35.980469 36.785156 36.726562 36.855469 37.394531 C 36.859375 37.445312 37.011719 37.683594 37.027344 37.550781 C 37.175781 36.226562 36.160156 34.5625 34.761719 34.851562 C 34.6875 34.867188 34.777344 35.03125 34.820312 35.042969 " fill-opacity="1" fill-rule="nonzero"/><path fill="#502412" d="M 1.191406 35.238281 C 1.054688 35.390625 0.953125 35.574219 0.894531 35.773438 C 0.710938 36.417969 0.675781 36.964844 0.980469 37.582031 C 1.363281 38.367188 2.09375 38.976562 2.769531 39.484375 C 4.65625 40.894531 6.984375 41.820312 9.25 42.328125 C 11.679688 42.871094 14.203125 43.046875 16.660156 43.417969 C 19.019531 43.769531 21.480469 44 23.847656 43.609375 C 23.894531 43.601562 23.902344 43.492188 23.851562 43.496094 C 19.53125 43.695312 15.257812 42.953125 10.992188 42.34375 C 8.738281 42.023438 6.621094 41.351562 4.597656 40.285156 C 3.648438 39.785156 2.734375 39.214844 1.949219 38.46875 C 1.558594 38.097656 0.996094 37.484375 0.859375 36.914062 C 0.75 36.453125 0.972656 35.390625 1.339844 35.101562 C 1.289062 35.140625 1.238281 35.1875 1.191406 35.238281 " fill-opacity="1" fill-rule="nonzero"/><g clip-path="url(#1adc06b0d4)"><path fill="#502412" d="M 43.753906 36.007812 C 42.824219 34.625 41.269531 33.867188 39.835938 33.328125 C 39.023438 33.023438 38.230469 32.800781 37.390625 32.605469 C 36.46875 32.386719 35.441406 32.183594 34.632812 32.714844 C 36.179688 32.914062 37.742188 33.222656 39.234375 33.730469 C 40.542969 34.179688 44.6875 36.105469 42.832031 38.199219 C 41.539062 39.65625 39.578125 40.355469 37.859375 40.910156 C 37.664062 40.972656 37.46875 41.035156 37.273438 41.097656 C 35.570312 41.636719 33.839844 42.007812 32.058594 42.285156 C 30.617188 42.507812 29.179688 42.773438 27.730469 42.9375 C 26.355469 43.09375 24.957031 43.136719 23.625 43.5 C 23.609375 43.503906 23.609375 43.558594 23.625 43.554688 C 25.160156 43.351562 26.707031 43.253906 28.246094 43.078125 C 29.976562 42.878906 31.714844 42.5625 33.425781 42.269531 C 35.15625 41.96875 36.839844 41.480469 38.484375 40.90625 C 39.753906 40.464844 44.210938 38.835938 43.800781 37.019531 C 43.828125 37.078125 43.859375 37.140625 43.882812 37.199219 C 44.148438 37.886719 43.542969 38.5625 43.050781 39.023438 C 42.011719 40 40.464844 40.617188 39.113281 41.15625 C 37.335938 41.863281 35.511719 42.449219 33.628906 42.878906 C 29.355469 43.851562 24.832031 43.972656 20.445312 43.882812 C 16.039062 43.792969 11.5625 43.320312 7.339844 42.152344 C 5.367188 41.605469 3.484375 40.828125 1.949219 39.558594 C 0.789062 38.597656 -0.316406 37.175781 0.710938 35.8125 C 1.285156 35.050781 2.136719 34.71875 2.941406 34.355469 C 3.730469 33.996094 4.425781 33.550781 5.269531 33.285156 C 7.3125 32.632812 9.398438 32.472656 11.507812 32.257812 C 11.585938 32.25 11.671875 32.234375 11.707031 32.160156 C 11.890625 31.765625 9.457031 31.917969 9.214844 31.9375 C 8.214844 32.023438 7.214844 32.175781 6.234375 32.425781 C 4.308594 32.914062 2.414062 33.777344 0.914062 35.226562 C -1.238281 37.304688 0.980469 39.886719 2.960938 41.210938 C 4.597656 42.308594 6.578125 42.933594 8.511719 43.449219 C 10.636719 44.019531 12.816406 44.375 15.011719 44.617188 C 19.425781 45.101562 23.929688 45.117188 28.347656 44.703125 C 31.417969 44.421875 34.429688 43.804688 37.292969 42.761719 C 39.253906 42.046875 41.246094 41.1875 42.816406 39.890625 C 44.078125 38.84375 44.707031 37.421875 43.753906 36.007812 " fill-opacity="1" fill-rule="nonzero"/></g><path fill="#502412" d="M 10.125 36.261719 C 10.207031 36.222656 10.148438 35.941406 10.070312 35.96875 C 9.734375 36.097656 9.398438 36.226562 9.234375 36.542969 C 9.082031 36.832031 9.074219 37.382812 9.402344 37.585938 C 9.492188 37.640625 9.496094 37.417969 9.492188 37.390625 C 9.472656 37.1875 9.445312 37 9.539062 36.808594 C 9.65625 36.570312 9.878906 36.382812 10.125 36.261719 " fill-opacity="1" fill-rule="nonzero"/><path fill="#502412" d="M 29.941406 38.152344 C 30.136719 38.273438 30.285156 38.445312 30.371094 38.652344 C 30.148438 38.558594 30.019531 38.371094 29.941406 38.152344 Z M 12.046875 37.632812 C 12.644531 38.621094 14.050781 39.160156 15.144531 39.554688 C 15.265625 39.597656 15.386719 39.636719 15.507812 39.675781 C 14.832031 39.566406 14.164062 39.441406 13.503906 39.265625 C 12.417969 38.976562 11.109375 38.507812 10.683594 37.46875 C 10.601562 37.269531 10.4375 37.460938 10.464844 37.597656 C 10.660156 38.648438 11.726562 39.191406 12.734375 39.554688 C 14.011719 40.019531 15.40625 40.210938 16.757812 40.425781 C 18.703125 40.730469 20.585938 41.027344 22.574219 40.992188 C 23.121094 40.980469 23.675781 40.953125 24.238281 40.898438 C 24.4375 40.894531 24.632812 40.890625 24.832031 40.882812 C 26.507812 40.808594 28.347656 40.609375 29.804688 39.796875 C 29.886719 39.75 29.914062 39.589844 29.875 39.480469 C 30.867188 39.261719 31.882812 38.867188 32.597656 38.207031 C 33.351562 37.515625 33.199219 36.394531 31.996094 36.265625 C 31.847656 36.25 31.84375 36.6875 31.949219 36.746094 C 32.210938 36.898438 32.957031 37.121094 32.683594 37.457031 C 32.644531 37.503906 32.601562 37.550781 32.554688 37.59375 C 32.402344 37.140625 32.027344 36.769531 31.589844 36.519531 C 31.542969 36.492188 31.523438 36.617188 31.5625 36.640625 C 31.96875 36.902344 32.269531 37.269531 32.460938 37.679688 C 32.351562 37.773438 32.226562 37.859375 32.097656 37.941406 C 32.089844 37.882812 32.074219 37.828125 32.0625 37.785156 C 31.984375 37.492188 31.722656 37.246094 31.484375 37.046875 C 31.308594 36.902344 30.941406 36.578125 30.683594 36.613281 C 30.476562 36.644531 30.496094 36.84375 30.542969 37.003906 C 30.441406 36.992188 30.335938 36.992188 30.21875 37.015625 C 30.195312 37.023438 30.191406 37.089844 30.21875 37.089844 C 30.355469 37.082031 30.484375 37.117188 30.601562 37.171875 C 30.601562 37.175781 30.601562 37.179688 30.605469 37.183594 C 30.609375 37.203125 30.621094 37.199219 30.628906 37.1875 C 30.804688 37.277344 30.953125 37.414062 31.082031 37.542969 C 31.261719 37.722656 31.410156 38.019531 31.660156 38.117188 C 31.714844 38.140625 31.714844 38.035156 31.703125 38.015625 C 31.550781 37.730469 31.285156 37.476562 31.039062 37.257812 C 30.90625 37.140625 30.769531 37.058594 30.621094 37.023438 C 30.613281 36.894531 30.632812 36.738281 30.792969 36.835938 C 30.851562 36.871094 30.910156 36.90625 30.96875 36.941406 C 31.144531 37.054688 31.3125 37.179688 31.464844 37.3125 C 31.617188 37.445312 31.753906 37.589844 31.859375 37.757812 C 31.921875 37.855469 31.9375 37.945312 31.9375 38.039062 C 31.84375 38.09375 31.753906 38.144531 31.664062 38.195312 C 31.304688 38.398438 30.9375 38.597656 30.5625 38.785156 C 30.558594 38.785156 30.5625 38.785156 30.558594 38.785156 C 30.496094 38.410156 30.242188 38.050781 29.890625 37.886719 C 29.863281 37.664062 29.863281 37.378906 30.007812 37.394531 C 30.589844 37.457031 30.6875 37.992188 30.804688 38.40625 C 30.820312 38.457031 30.863281 38.433594 30.871094 38.394531 C 30.964844 37.84375 30.578125 37.226562 29.914062 37.261719 C 29.894531 37.265625 29.882812 37.289062 29.878906 37.308594 C 29.84375 37.5 29.835938 37.691406 29.855469 37.871094 C 29.640625 37.78125 29.398438 37.765625 29.136719 37.859375 C 29.109375 37.871094 29.101562 37.964844 29.140625 37.960938 C 29.417969 37.933594 29.683594 37.996094 29.902344 38.125 C 29.976562 38.402344 30.136719 38.652344 30.398438 38.863281 C 30.25 38.9375 30.097656 39.011719 29.949219 39.082031 C 29.808594 38.914062 29.613281 38.773438 29.441406 38.660156 C 29.164062 38.480469 28.816406 38.347656 28.488281 38.488281 C 28.46875 38.496094 28.46875 38.546875 28.496094 38.542969 C 28.828125 38.46875 29.152344 38.65625 29.40625 38.828125 C 29.546875 38.921875 29.667969 39.03125 29.785156 39.144531 C 29.789062 39.148438 29.789062 39.148438 29.792969 39.152344 C 29.707031 39.191406 29.621094 39.230469 29.535156 39.269531 C 29.507812 39.28125 29.488281 39.328125 29.484375 39.382812 C 27.949219 39.429688 26.414062 39.8125 24.875 39.894531 C 23.132812 39.992188 21.378906 39.867188 19.660156 39.621094 C 18.28125 39.425781 16.882812 39.15625 15.53125 38.824219 C 14.910156 38.671875 14.300781 38.519531 13.703125 38.296875 C 13.109375 38.074219 12.652344 37.757812 12.128906 37.441406 C 12.035156 37.382812 12.023438 37.59375 12.046875 37.632812 " fill-opacity="1" fill-rule="nonzero"/><path fill="#502412" d="M 33.007812 36.300781 C 33.40625 36.589844 33.589844 36.589844 33.566406 37.132812 C 33.542969 37.589844 33.332031 38.082031 33.058594 38.417969 C 32.945312 38.554688 32.457031 39.140625 32.292969 39.15625 C 32.527344 39.261719 32.777344 39.0625 32.964844 38.871094 C 33.578125 38.265625 33.960938 37.96875 33.949219 36.980469 C 33.941406 36.585938 33.625 35.730469 33.015625 36.109375 C 32.964844 36.140625 32.957031 36.261719 33.007812 36.300781 " fill-opacity="1" fill-rule="nonzero"/><path fill="#502412" d="M 34.59375 36.898438 C 34.855469 37.460938 34.484375 38.796875 33.875 38.925781 C 33.816406 38.980469 33.863281 39.097656 33.9375 39.121094 C 34.011719 39.144531 34.089844 39.105469 34.15625 39.0625 C 35.25 38.328125 35.242188 36.796875 34.277344 35.957031 C 34.199219 35.890625 34.179688 36.167969 34.210938 36.214844 C 34.359375 36.433594 34.484375 36.664062 34.59375 36.898438 " fill-opacity="1" fill-rule="nonzero"/><path fill="#502412" d="M 35.886719 37.597656 C 35.871094 37.648438 35.925781 37.964844 36.023438 37.867188 C 36.386719 37.511719 36.261719 37.035156 36.101562 36.660156 C 35.910156 36.214844 35.503906 35.980469 35.066406 35.769531 C 35.023438 35.75 35.046875 35.882812 35.066406 35.898438 C 35.515625 36.316406 36.125 36.9375 35.886719 37.597656 " fill-opacity="1" fill-rule="nonzero"/><path fill="#502412" d="M 37.914062 37.183594 C 38.929688 36.835938 37.296875 35.117188 36.765625 35.070312 C 36.714844 35.0625 36.71875 35.191406 36.75 35.210938 C 37.402344 35.636719 38.0625 36.253906 37.914062 37.183594 " fill-opacity="1" fill-rule="nonzero"/><path fill="#502412" d="M 6.210938 37.488281 C 6.308594 36.960938 6.765625 36.617188 7.089844 36.199219 C 7.125 36.152344 7.121094 35.894531 7.015625 35.917969 C 6.351562 36.058594 6.054688 36.863281 6.085938 37.410156 C 6.089844 37.476562 6.183594 37.640625 6.210938 37.488281 " fill-opacity="1" fill-rule="nonzero"/><path fill="#502412" d="M 7.03125 37.515625 C 7.109375 36.941406 7.652344 36.652344 8.011719 36.230469 C 8.070312 36.164062 8.046875 35.929688 7.929688 35.921875 C 7.566406 35.902344 7.292969 36.226562 7.132812 36.484375 C 6.953125 36.777344 6.886719 37.101562 6.898438 37.433594 C 6.902344 37.507812 7.007812 37.671875 7.03125 37.515625 " fill-opacity="1" fill-rule="nonzero"/><path fill="#502412" d="M 7.992188 37.960938 C 8.011719 37.351562 8.539062 36.949219 8.757812 36.417969 C 8.789062 36.347656 8.777344 36.152344 8.664062 36.144531 C 8.300781 36.121094 8.089844 36.605469 7.972656 36.851562 C 7.800781 37.214844 7.785156 37.59375 7.871094 37.972656 C 7.894531 38.082031 7.992188 38.066406 7.992188 37.960938 " fill-opacity="1" fill-rule="nonzero"/><path fill="#502412" d="M 10.949219 36.90625 C 10.722656 37.566406 11.019531 38.410156 11.914062 38.335938 C 11.996094 38.414062 12.101562 38.464844 12.242188 38.460938 C 12.300781 38.460938 12.289062 38.34375 12.257812 38.320312 C 11.9375 38.066406 11.761719 37.835938 11.828125 37.429688 C 11.886719 37.074219 12.160156 36.699219 12.578125 36.644531 C 12.632812 36.640625 12.636719 36.488281 12.582031 36.488281 C 12.035156 36.515625 11.769531 36.988281 11.691406 37.429688 C 11.660156 37.621094 11.675781 37.9375 11.792969 38.171875 C 11.164062 37.941406 10.832031 37.574219 11.09375 36.890625 C 11.257812 36.457031 11.742188 35.902344 12.3125 36.042969 C 12.34375 36.050781 12.339844 35.972656 12.324219 35.957031 C 11.683594 35.53125 11.097656 36.460938 10.949219 36.90625 " fill-opacity="1" fill-rule="nonzero"/><path fill="#502412" d="M 9.945312 33.085938 C 8.515625 33.160156 7.140625 33.433594 5.75 33.71875 C 4.855469 33.902344 3.9375 34.296875 3.308594 34.945312 C 3.296875 34.957031 3.300781 35.015625 3.320312 34.996094 C 3.996094 34.339844 5.175781 34.039062 6.09375 33.855469 C 7.375 33.601562 8.671875 33.519531 9.941406 33.214844 C 9.980469 33.203125 9.988281 33.085938 9.945312 33.085938 " fill-opacity="1" fill-rule="nonzero"/><path fill="#502412" d="M 7.070312 34.765625 C 7.050781 34.792969 7.058594 34.921875 7.09375 34.878906 C 8.078125 33.777344 9.886719 33.855469 11.25 33.460938 C 11.277344 33.453125 11.28125 33.359375 11.25 33.359375 C 9.949219 33.285156 7.84375 33.742188 7.070312 34.765625 " fill-opacity="1" fill-rule="nonzero"/><path fill="#502412" d="M 8.628906 34.804688 C 9.53125 34.023438 10.78125 34.207031 11.839844 33.792969 C 11.875 33.777344 11.882812 33.652344 11.835938 33.648438 C 10.800781 33.589844 9.316406 33.957031 8.597656 34.65625 C 8.5625 34.6875 8.574219 34.851562 8.628906 34.804688 " fill-opacity="1" fill-rule="nonzero"/><path fill="#502412" d="M 9.925781 35.457031 C 10.5625 35.132812 11.222656 34.96875 11.90625 34.742188 C 11.9375 34.734375 11.941406 34.628906 11.90625 34.628906 C 11.207031 34.667969 10.472656 34.964844 9.917969 35.339844 C 9.886719 35.359375 9.890625 35.476562 9.925781 35.457031 " fill-opacity="1" fill-rule="nonzero"/><path fill="#502412" d="M 26.789062 26.445312 C 28.628906 26.46875 31.082031 25.976562 32.414062 24.558594 C 32.4375 24.53125 32.4375 24.351562 32.390625 24.382812 C 30.65625 25.507812 28.820312 26.0625 26.792969 26.351562 C 26.765625 26.355469 26.761719 26.445312 26.789062 26.445312 " fill-opacity="1" fill-rule="nonzero"/><path fill="#502412" d="M 28.046875 27.425781 C 29.273438 27.242188 30.992188 26.9375 31.910156 26.019531 C 31.945312 25.984375 31.964844 25.753906 31.894531 25.789062 C 31.246094 26.097656 30.621094 26.367188 29.933594 26.566406 C 29.289062 26.75 28.628906 26.863281 28.046875 27.214844 C 28.003906 27.238281 27.992188 27.433594 28.046875 27.425781 " fill-opacity="1" fill-rule="nonzero"/><path fill="#502412" d="M 27.777344 28.511719 C 28.898438 28.855469 30.660156 28.257812 31.515625 27.480469 C 31.554688 27.445312 31.597656 27.179688 31.511719 27.195312 C 30.953125 27.285156 30.4375 27.578125 29.90625 27.765625 C 29.214844 28.015625 28.511719 28.097656 27.792969 28.179688 C 27.691406 28.191406 27.6875 28.484375 27.777344 28.511719 " fill-opacity="1" fill-rule="nonzero"/><path fill="#502412" d="M 27.09375 29.6875 C 28.21875 29.570312 29.984375 29.855469 30.734375 28.753906 C 30.757812 28.71875 30.769531 28.476562 30.703125 28.523438 C 29.652344 29.285156 28.316406 29.175781 27.105469 29.417969 C 27.023438 29.433594 27.023438 29.695312 27.09375 29.6875 " fill-opacity="1" fill-rule="nonzero"/><path fill="#502412" d="M 26.914062 30.773438 C 27.300781 31.039062 27.796875 30.964844 28.226562 30.875 C 28.746094 30.765625 29.394531 30.632812 29.8125 30.289062 C 29.863281 30.25 29.902344 30.015625 29.808594 30.007812 C 29.355469 29.980469 28.835938 30.261719 28.402344 30.378906 C 27.921875 30.507812 27.425781 30.609375 26.929688 30.601562 C 26.875 30.601562 26.878906 30.75 26.914062 30.773438 " fill-opacity="1" fill-rule="nonzero"/><path fill="#502412" d="M 27.476562 31.664062 C 28.253906 31.820312 29.382812 31.730469 29.980469 31.121094 C 30.015625 31.085938 30.042969 30.84375 29.960938 30.851562 C 29.59375 30.886719 29.234375 31.105469 28.882812 31.214844 C 28.4375 31.355469 27.949219 31.46875 27.484375 31.460938 C 27.425781 31.460938 27.417969 31.652344 27.476562 31.664062 " fill-opacity="1" fill-rule="nonzero"/><path fill="#502412" d="M 27.296875 32.710938 C 27.785156 33.148438 28.660156 32.742188 28.984375 32.289062 C 29.007812 32.253906 29.035156 32.027344 28.957031 32.066406 C 28.710938 32.191406 28.449219 32.300781 28.191406 32.394531 C 27.972656 32.472656 27.546875 32.625 27.332031 32.480469 C 27.265625 32.433594 27.246094 32.667969 27.296875 32.710938 " fill-opacity="1" fill-rule="nonzero"/><path fill="#502412" d="M 27.246094 33.707031 C 27.625 33.769531 28.125 33.683594 28.410156 33.40625 C 28.449219 33.367188 28.464844 33.179688 28.390625 33.167969 C 28.234375 33.144531 28.070312 33.226562 27.921875 33.269531 C 27.699219 33.335938 27.492188 33.378906 27.261719 33.355469 C 27.160156 33.34375 27.140625 33.691406 27.246094 33.707031 " fill-opacity="1" fill-rule="nonzero"/><path fill="#502412" d="M 26.992188 34.542969 C 27.402344 34.539062 27.871094 34.441406 28.164062 34.125 C 28.199219 34.082031 28.21875 33.851562 28.128906 33.878906 C 27.746094 33.996094 27.417969 34.15625 27.007812 34.15625 C 26.886719 34.15625 26.878906 34.542969 26.992188 34.542969 " fill-opacity="1" fill-rule="nonzero"/><path fill="#502412" d="M 13.5 31.339844 C 13.328125 31.242188 13.164062 31.148438 13.011719 31.015625 C 12.953125 30.960938 12.933594 31.097656 12.953125 31.136719 C 13.136719 31.449219 13.488281 31.59375 13.800781 31.734375 C 14.179688 31.90625 14.570312 32.046875 14.949219 32.210938 C 15.035156 32.25 15.039062 32.058594 14.988281 32.019531 C 14.679688 31.777344 14.332031 31.636719 13.976562 31.492188 C 13.644531 31.355469 13.328125 31.097656 12.992188 31.003906 C 12.984375 31.054688 12.980469 31.105469 12.972656 31.160156 C 13.144531 31.25 13.308594 31.347656 13.480469 31.4375 C 13.519531 31.460938 13.53125 31.359375 13.5 31.339844 " fill-opacity="1" fill-rule="nonzero"/><path fill="#502412" d="M 12.351562 30.011719 C 12.871094 30.351562 13.46875 30.507812 14.03125 30.746094 C 14.074219 30.765625 14.085938 30.660156 14.050781 30.644531 C 13.5 30.371094 12.894531 30.238281 12.371094 29.902344 C 12.332031 29.875 12.316406 29.992188 12.351562 30.011719 " fill-opacity="1" fill-rule="nonzero"/><path fill="#502412" d="M 11.820312 28.816406 C 12.484375 29.292969 13.296875 29.464844 13.984375 29.910156 C 14.019531 29.933594 14.035156 29.828125 14.003906 29.804688 C 13.347656 29.324219 12.507812 29.199219 11.835938 28.730469 C 11.804688 28.707031 11.792969 28.796875 11.820312 28.816406 " fill-opacity="1" fill-rule="nonzero"/><path fill="#502412" d="M 11.273438 27.765625 C 12.039062 28.144531 12.839844 28.492188 13.648438 28.757812 C 13.710938 28.777344 13.71875 28.644531 13.675781 28.617188 C 12.945312 28.160156 12.09375 27.933594 11.300781 27.621094 C 11.238281 27.597656 11.222656 27.742188 11.273438 27.765625 " fill-opacity="1" fill-rule="nonzero"/><path fill="#502412" d="M 10.644531 26.460938 C 11.519531 26.921875 12.378906 27.433594 13.304688 27.792969 C 13.359375 27.8125 13.371094 27.679688 13.328125 27.65625 C 12.457031 27.1875 11.554688 26.777344 10.667969 26.335938 C 10.621094 26.308594 10.601562 26.4375 10.644531 26.460938 " fill-opacity="1" fill-rule="nonzero"/><path fill="#502412" d="M 10.800781 25.546875 C 11.714844 25.996094 12.742188 26.355469 13.554688 26.988281 C 13.613281 27.035156 13.628906 26.863281 13.597656 26.828125 C 12.910156 26.003906 11.765625 25.785156 10.832031 25.390625 C 10.769531 25.359375 10.75 25.523438 10.800781 25.546875 " fill-opacity="1" fill-rule="nonzero"/><path fill="#502412" d="M 31.6875 22.109375 C 31.292969 22.023438 31 22.097656 30.625 22.230469 C 29.929688 22.480469 29.164062 22.492188 28.414062 22.53125 C 27.550781 22.578125 26.683594 22.59375 25.816406 22.613281 C 25.003906 22.628906 24.199219 22.5625 23.425781 22.789062 C 23.210938 22.851562 23.199219 23.164062 23.394531 23.238281 C 24.054688 23.488281 24.742188 23.472656 25.472656 23.472656 C 26.339844 23.46875 27.207031 23.421875 28.074219 23.363281 C 28.769531 23.316406 29.453125 23.269531 30.117188 23.097656 C 30.757812 22.9375 31.070312 22.480469 31.675781 22.296875 C 31.753906 22.273438 31.78125 22.125 31.6875 22.109375 " fill-opacity="1" fill-rule="nonzero"/><path fill="#502412" d="M 22.042969 23.503906 C 22.167969 24.46875 25.171875 24.023438 25.902344 23.941406 C 27.351562 23.777344 29.582031 23.640625 30.597656 22.734375 C 30.679688 22.660156 30.667969 22.394531 30.476562 22.445312 C 29.964844 22.585938 29.359375 22.65625 28.828125 22.757812 C 27.953125 22.925781 27.078125 23.085938 26.191406 23.207031 C 25.320312 23.324219 24.429688 23.417969 23.546875 23.453125 C 23.144531 23.46875 22.496094 23.558594 22.117188 23.429688 C 22.0625 23.410156 22.039062 23.476562 22.042969 23.503906 " fill-opacity="1" fill-rule="nonzero"/><path fill="#502412" d="M 31.640625 32.039062 C 31.601562 32.132812 31.585938 32.167969 31.597656 32.265625 C 31.601562 32.292969 31.609375 32.347656 31.648438 32.335938 C 32.433594 32.109375 33.226562 31.890625 34.003906 31.640625 C 34.921875 31.339844 35.78125 30.757812 36.589844 30.226562 C 37.617188 29.550781 38.539062 28.785156 39.273438 27.78125 C 39.738281 27.148438 40.21875 26.285156 40.140625 25.460938 C 40.054688 24.59375 39.359375 23.910156 38.496094 23.910156 C 38.441406 23.910156 38.4375 24.058594 38.476562 24.082031 C 39.375 24.59375 40.261719 24.914062 39.890625 26.199219 C 39.640625 27.0625 39 27.824219 38.394531 28.453125 C 37.539062 29.34375 36.449219 30.007812 35.398438 30.617188 C 34.785156 30.976562 34.171875 31.261719 33.496094 31.460938 C 33.261719 31.53125 31.710938 31.824219 31.679688 32.09375 C 31.683594 32.078125 31.664062 31.984375 31.640625 32.039062 " fill-opacity="1" fill-rule="nonzero"/><path fill="#502412" d="M 33.542969 26.585938 C 33.753906 25.675781 35.011719 25.53125 35.75 25.582031 C 36.183594 25.613281 36.609375 25.742188 36.972656 25.988281 C 37.675781 26.457031 37.453125 27.203125 37.160156 27.859375 C 37.152344 27.882812 37.15625 28 37.1875 27.957031 C 38.988281 25.507812 34.042969 24.289062 33.515625 26.546875 C 33.511719 26.570312 33.53125 26.628906 33.542969 26.585938 " fill-opacity="1" fill-rule="nonzero"/><path fill="#502412" d="M 31.695312 32.921875 C 32.035156 32.46875 32.558594 32.253906 32.976562 31.894531 C 32.992188 31.878906 32.988281 31.792969 32.960938 31.808594 C 32.492188 32.089844 31.972656 32.339844 31.664062 32.816406 C 31.648438 32.84375 31.664062 32.964844 31.695312 32.921875 " fill-opacity="1" fill-rule="nonzero"/><path fill="#502412" d="M 32.542969 32.738281 C 32.804688 32.480469 33.125 32.285156 33.347656 31.988281 C 33.359375 31.972656 33.355469 31.90625 33.335938 31.925781 C 33.089844 32.191406 32.78125 32.382812 32.519531 32.632812 C 32.496094 32.660156 32.507812 32.773438 32.542969 32.738281 " fill-opacity="1" fill-rule="nonzero"/></svg>