<svg xmlns="http://www.w3.org/2000/svg" xmlns:xlink="http://www.w3.org/1999/xlink" width="190" zoomAndPan="magnify" viewBox="0 0 142.5 161.249994" height="215" preserveAspectRatio="xMidYMid meet" version="1.0"><defs><clipPath id="4b6c2620e4"><path d="M 0.0820312 133 L 117 133 L 117 160.503906 L 0.0820312 160.503906 Z M 0.0820312 133 " clip-rule="nonzero"/></clipPath></defs><path fill="#502412" d="M 130.777344 24.644531 C 130.8125 31.582031 126.984375 37.722656 122.9375 42.164062 C 117.085938 48.542969 108.089844 52.660156 100.972656 56.019531 C 113 54.972656 128.335938 51.773438 134.949219 42.691406 C 138.253906 38.136719 141.8125 31.203125 140.691406 23.867188 C 139.734375 17.546875 133.230469 13.789062 126.332031 13.933594 C 128.210938 17.421875 130.738281 19.714844 130.777344 24.644531 Z M 64.144531 72.746094 C 64.792969 73.304688 65.261719 75.4375 66.21875 74.824219 C 64.792969 72.980469 66.5625 70.453125 66.492188 68.300781 C 72.089844 61.835938 79.1875 57.535156 87.136719 53.402344 C 94.992188 49.28125 103.429688 45.941406 109.605469 40.070312 C 109.660156 39.746094 110.003906 39.527344 109.335938 39.546875 C 95.609375 50.78125 65.191406 49.046875 64.144531 72.746094 Z M 48.71875 67.507812 C 40.046875 69.386719 24.75 68.664062 17.886719 72.746094 C 12.9375 76.863281 18.660156 79.789062 20.757812 83.710938 C 22.851562 87.648438 24.152344 92.613281 25.722656 97.039062 C 27.3125 101.519531 28.796875 106.160156 30.4375 110.640625 C 32.894531 117.433594 35.660156 124.1875 36.960938 131.539062 C 37.84375 136.488281 37.195312 140.824219 40.355469 143.046875 C 48.121094 148.5 66.347656 146.730469 74.855469 143.296875 C 75.992188 140.699219 77.128906 138.097656 77.453125 134.683594 C 82.785156 134.554688 83.453125 128.8125 86.339844 125.796875 C 87.769531 124.296875 90.640625 122.832031 92.878906 121.082031 C 98.949219 116.347656 107.382812 108.980469 108.035156 99.910156 C 108.394531 94.890625 106.320312 88.769531 101.765625 86.851562 C 92.988281 83.148438 94.777344 94.332031 91.578125 97.039062 C 92.175781 92.867188 93.785156 89.671875 93.65625 84.757812 C 93.496094 83.457031 91.273438 84.199219 91.054688 82.933594 C 93.386719 80.53125 98.460938 81.035156 97.847656 76.394531 C 97.503906 73.847656 93.0625 71.824219 89.484375 70.652344 C 83.46875 68.683594 77.128906 67.976562 70.140625 68.300781 C 68.910156 69.242188 67.71875 70.234375 67.539062 72.222656 C 73.699219 73.449219 82.152344 73.8125 88.4375 74.046875 C 83.6875 72.078125 76.96875 72.097656 71.457031 70.902344 C 79.421875 71.066406 87.445312 71.480469 91.578125 75.09375 C 85.566406 81.019531 71.511719 80.875 58.90625 80.3125 C 49.710938 79.917969 36.507812 80.675781 28.597656 78.21875 C 26.390625 77.550781 22.597656 76.394531 24.152344 73.269531 C 25.21875 73.34375 25.199219 75.09375 26.519531 75.347656 C 27.386719 75.527344 30.167969 74.136719 31.738281 73.777344 C 37.664062 72.492188 44.90625 72.910156 50.542969 72.222656 C 50.234375 71.355469 50.667969 67.09375 48.714844 67.507812 Z M 118.492188 4 C 121.167969 10.378906 118.167969 19.246094 115.875 22.027344 C 110.292969 28.800781 101.660156 33.0625 90.785156 36.152344 C 85.671875 37.597656 80.253906 38.484375 75.378906 40.324219 C 67.414062 43.339844 58.128906 47.910156 54.734375 54.972656 C 51.5 61.710938 48.71875 76.179688 57.351562 77.96875 C 57.40625 75.980469 56.25 74.679688 56.035156 72.476562 C 55.203125 63.96875 58.6875 57.648438 62.570312 53.402344 C 67.449219 49.589844 73.769531 47.984375 81.121094 46.609375 C 91.308594 44.695312 101.570312 41.859375 108.8125 37.199219 C 112.820312 34.617188 115.746094 31.472656 120.046875 28.835938 C 117.5 37.179688 111.03125 41.589844 104.113281 45.816406 C 100.449219 48.074219 96.601562 50.582031 93.132812 52.355469 C 89.519531 54.195312 84.699219 55.640625 81.644531 57.84375 C 80.722656 58.511719 78.972656 59.941406 79.550781 60.464844 C 99.164062 55.191406 125.011719 49.191406 127.109375 26.742188 C 127.488281 22.605469 127 19.804688 125.285156 17.855469 C 124.667969 20.996094 123.785156 25.242188 121.617188 25.964844 C 122.882812 20.761719 126.636719 14.222656 124.488281 8.191406 C 123.222656 4.613281 119.992188 1.886719 116.648438 0.332031 C 116.398438 0.332031 116.34375 0.136719 116.125 0.0820312 C 117.0625 1.960938 118.003906 2.84375 118.492188 4 Z M 22.851562 152.980469 C 30.691406 157.351562 45.214844 159.046875 58.652344 158.46875 C 67.105469 158.089844 76.75 158.902344 82.421875 155.074219 C 63.3125 158.453125 39.707031 155.6875 22.851562 152.980469 Z M 21.28125 79.265625 C 23.414062 80.929688 31.359375 81.957031 33.5625 80.585938 C 26.753906 80.605469 22.78125 77.769531 19.710938 74.046875 L 19.203125 74.046875 C 18.753906 75.691406 20 78.257812 21.28125 79.265625 Z M 34.613281 85.28125 C 48.265625 87.105469 67.882812 88.046875 79.296875 84.503906 C 59.882812 85.804688 36.039062 86.132812 22.074219 80.585938 C 23.230469 84.6875 29.699219 84.632812 34.609375 85.28125 Z M 27.820312 88.679688 C 32.96875 89.527344 39.921875 89.996094 45.324219 89.726562 C 41.007812 87.160156 33.023438 88.261719 27.820312 86.582031 Z M 28.074219 92.597656 C 31.902344 94.097656 37.738281 93.574219 42.976562 93.644531 C 42.253906 91.332031 39.757812 92.398438 37.484375 92.34375 C 34.46875 92.253906 30.386719 90.683594 28.074219 90.519531 Z M 92.628906 116.65625 C 96.277344 111.128906 105.542969 106.414062 104.640625 97.3125 C 104.460938 95.433594 103.230469 93.484375 101.769531 93.121094 C 95.140625 91.515625 94.996094 99.859375 90.261719 100.960938 C 87.335938 110.660156 82.078125 119.421875 79.820312 128.941406 C 82.929688 123.683594 86.414062 118.808594 92.628906 116.65625 Z M 29.121094 96.265625 C 32.894531 98.558594 39.019531 96.933594 44.542969 97.3125 C 40.96875 94.964844 33.886719 96.121094 29.121094 94.964844 Z M 30.4375 101.484375 C 35.511719 100.980469 42.378906 102.441406 45.84375 100.960938 C 41.09375 99.695312 34.503906 100.292969 29.914062 98.882812 C 29.734375 100.09375 30.3125 100.5625 30.4375 101.484375 Z M 31.992188 105.675781 C 37.066406 105.566406 41.90625 106.308594 46.117188 105.675781 C 42.539062 103.5625 36.234375 104.210938 31.214844 103.578125 C 30.996094 104.753906 31.828125 104.878906 31.992188 105.675781 Z M 33.5625 109.847656 C 37.085938 109.722656 43.101562 111.203125 45.320312 109.070312 C 41.347656 108.601562 36.164062 107.949219 32.515625 108.023438 C 33.074219 108.421875 33.273438 109.179688 33.5625 109.847656 Z M 35.132812 114.289062 C 38.601562 113.75 44.308594 115.464844 46.117188 113.242188 C 42.902344 112.285156 37.535156 112.070312 34.359375 111.941406 C 34.792969 112.558594 35.027344 113.351562 35.132812 114.289062 Z M 36.707031 118.480469 C 40.335938 119.003906 44.835938 118.753906 48.195312 118.210938 C 45.828125 115.734375 39.558594 117.976562 36.183594 116.132812 C 36.054688 117.21875 36.941406 117.269531 36.707031 118.480469 Z M 39.578125 123.703125 C 43.660156 123.175781 49.152344 124.042969 51.589844 121.878906 C 47.398438 121.460938 42.378906 121.859375 38.53125 121.082031 C 38.347656 122.492188 39.308594 122.761719 39.578125 123.703125 Z M 40.355469 127.621094 C 44.183594 127.765625 50.324219 128.269531 52.636719 126.050781 C 48.84375 125.507812 43.839844 126.140625 40.101562 125.527344 C 39.503906 126.15625 40.679688 126.5 40.355469 127.621094 Z M 41.148438 131.289062 C 44.308594 132.390625 50.144531 132.535156 52.382812 130.492188 C 48.808594 129.96875 44.851562 129.84375 41.148438 129.464844 Z M 41.671875 134.414062 C 44.039062 136.199219 51.101562 136.832031 53.957031 134.9375 C 50.578125 133.707031 45.683594 133.980469 41.671875 133.382812 Z M 41.671875 139.902344 C 46.441406 141.527344 55.832031 142.125 62.046875 141.222656 C 63.203125 141.042969 64.25 140.769531 64.917969 139.902344 C 56.050781 139.902344 47.761719 139.289062 40.878906 137.300781 C 40.75 138.566406 41.691406 138.746094 41.671875 139.902344 Z M 99.671875 97.835938 C 94.359375 101.503906 89.9375 106.039062 88.960938 114.039062 C 92.265625 112.8125 94.6875 110.714844 97.050781 108.546875 C 97.234375 106.8125 98.351562 106 99.671875 105.40625 C 100.519531 103.328125 102.328125 100.996094 101.496094 98.089844 C 100.59375 98.304688 100.503906 97.710938 99.671875 97.835938 Z M 99.671875 97.835938 " fill-opacity="1" fill-rule="evenodd"/><g clip-path="url(#4b6c2620e4)"><path fill="#502412" d="M 93.289062 138.8125 C 96.628906 139.28125 99.71875 140.039062 102.300781 141.304688 C 95.90625 142.511719 88.574219 137.636719 83.210938 141.03125 C 87.707031 142.566406 94.246094 142.027344 98.09375 144.175781 C 93.074219 145.402344 86.605469 141.972656 83.210938 145.203125 C 86.0625 145.925781 89.515625 146.070312 92.097656 147.046875 C 88.9375 148.417969 82.597656 146.59375 80.066406 148.617188 C 81.890625 150.191406 85.433594 148.960938 88.175781 149.140625 C 87.816406 151.039062 84.726562 150.226562 82.957031 150.714844 C 92.421875 151.21875 105.554688 148.367188 111.171875 143.128906 C 111.226562 141.789062 110.140625 141.539062 110.125 140.253906 C 111.785156 140.832031 112.816406 142.710938 112.21875 144.953125 C 111.660156 146.992188 106.203125 148.800781 102.808594 149.667969 C 90.148438 152.898438 72.664062 155.519531 55.953125 155.445312 L 55.953125 155.554688 C 40.925781 155.121094 25.734375 152.753906 14.394531 149.828125 C 10.996094 148.960938 5.542969 147.15625 5 145.132812 C 4.367188 142.894531 5.417969 141.015625 7.078125 140.4375 C 7.058594 141.71875 5.996094 141.953125 6.03125 143.289062 C 11.648438 148.546875 24.78125 151.398438 34.246094 150.875 C 32.476562 150.40625 29.367188 151.21875 29.023438 149.304688 C 31.769531 149.125 35.328125 150.371094 37.117188 148.78125 C 34.605469 146.777344 28.265625 148.582031 25.125 147.226562 C 27.6875 146.234375 31.136719 146.109375 33.992188 145.386719 C 30.597656 142.132812 24.148438 145.585938 19.109375 144.355469 C 22.972656 142.207031 29.511719 142.730469 33.992188 141.214844 C 28.628906 137.816406 21.292969 142.675781 14.917969 141.464844 C 20.355469 138.8125 28.066406 138.414062 35.835938 138.070312 C 35.90625 133.121094 30.054688 133.769531 25.628906 134.152344 C 17.917969 134.800781 7.242188 137.039062 3.160156 139.640625 C 1.824219 140.507812 0.324219 142.640625 0.289062 144.085938 C 0.0898438 149.828125 9.230469 151.742188 14.394531 153.496094 C 19.378906 155.175781 23.75 156.152344 29.023438 156.890625 C 32.042969 157.308594 34.695312 158.605469 37.640625 158.96875 C 42.355469 159.601562 48.714844 159.222656 53.335938 160.035156 C 54.710938 160.269531 56.082031 160.378906 57.507812 160.414062 L 57.472656 160.25 C 59.675781 160.304688 61.808594 160.214844 63.867188 159.855469 C 68.492188 159.058594 74.851562 159.421875 79.5625 158.824219 C 82.507812 158.425781 85.164062 157.144531 88.179688 156.730469 C 93.453125 155.96875 97.824219 154.996094 102.8125 153.332031 C 107.976562 151.597656 117.132812 149.667969 116.917969 143.921875 C 116.882812 142.460938 115.398438 140.328125 114.046875 139.480469 C 110.902344 137.457031 103.875 135.6875 97.285156 134.675781 C 94.644531 134.277344 89.316406 133.085938 88.378906 136.789062 C 87.765625 139.207031 91.792969 138.683594 93.109375 138.773438 C 93.164062 138.792969 93.238281 138.792969 93.292969 138.8125 Z M 93.289062 138.8125 " fill-opacity="1" fill-rule="evenodd"/></g></svg>