<svg xmlns="http://www.w3.org/2000/svg" xmlns:xlink="http://www.w3.org/1999/xlink" width="157" zoomAndPan="magnify" viewBox="0 0 117.75 137.249994" height="183" preserveAspectRatio="xMidYMid meet" version="1.0"><defs><clipPath id="771efbdd16"><path d="M 0.195312 0 L 117.304688 0 L 117.304688 136.503906 L 0.195312 136.503906 Z M 0.195312 0 " clip-rule="nonzero"/></clipPath><clipPath id="2cc37a75bd"><path d="M 0.195312 0 L 117.304688 0 L 117.304688 136.238281 L 0.195312 136.238281 Z M 0.195312 0 " clip-rule="nonzero"/></clipPath></defs><g clip-path="url(#771efbdd16)"><path fill="#502412" d="M 91.242188 117.292969 C 90.347656 115.546875 89.507812 113.753906 87.183594 113.527344 C 87.078125 113.511719 86.882812 113.078125 86.941406 112.921875 C 87.027344 112.679688 87.328125 112.320312 87.496094 112.34375 C 88.253906 112.457031 89.183594 112.464844 89.699219 112.921875 C 90.554688 113.652344 91.203125 114.667969 91.792969 115.652344 C 92.050781 116.089844 91.953125 116.75 92.035156 117.5 C 91.460938 117.347656 91.28125 117.355469 91.242188 117.292969 Z M 89.0625 108.242188 C 91.589844 108.097656 93.089844 109.679688 94.464844 111.40625 C 94.925781 111.980469 94.921875 112.738281 94.148438 113.359375 C 93.300781 112.335938 92.640625 111.148438 91.644531 110.484375 C 90.644531 109.824219 89.296875 109.703125 87.972656 109.308594 C 87.910156 108.453125 88.304688 108.28125 89.0625 108.242188 Z M 85.722656 118.113281 C 86.503906 118.566406 87.367188 118.996094 87.933594 119.664062 C 88.863281 120.777344 89.675781 122.007812 90.371094 123.289062 C 90.910156 124.257812 91.300781 125.355469 90.800781 126.800781 C 89.078125 123.726562 87.503906 120.804688 84.679688 118.710938 C 84.777344 117.960938 85.226562 117.832031 85.722656 118.113281 Z M 84.128906 56.339844 C 82.582031 55.898438 81.039062 56.035156 79.488281 56.113281 C 79.359375 56.121094 79.222656 55.9375 79.078125 55.839844 C 80.472656 54.546875 83.5 54.363281 85.261719 55.648438 C 84.761719 55.960938 84.378906 56.398438 84.128906 56.339844 Z M 78.316406 50.246094 C 79.214844 49.230469 82.796875 48.625 83.898438 49.351562 C 84.234375 49.574219 84.429688 50.277344 84.382812 50.722656 C 84.316406 51.320312 83.386719 51.578125 82.929688 51.042969 C 82.070312 50.050781 81.199219 50.464844 80.296875 50.761719 C 79.570312 50.996094 78.875 51.3125 77.808594 51.730469 C 78.035156 51.035156 78.058594 50.535156 78.316406 50.246094 Z M 77.429688 47.347656 C 78.050781 45.691406 79.292969 45.335938 80.675781 45.199219 C 81.273438 45.136719 81.878906 45.09375 82.441406 44.925781 C 83.445312 44.636719 84.242188 44.859375 84.679688 45.804688 C 84.855469 46.191406 84.863281 46.773438 84.671875 47.128906 C 84.550781 47.371094 83.929688 47.492188 83.574219 47.421875 C 82.808594 47.273438 82.070312 46.960938 81.320312 46.710938 C 80.117188 47.300781 78.914062 47.921875 77.429688 47.347656 Z M 59.445312 88.59375 C 59.554688 90.382812 59.660156 92.175781 59.679688 93.96875 C 59.6875 94.421875 59.363281 94.882812 59.195312 95.339844 C 58.847656 94.960938 58.878906 94.679688 58.839844 94.414062 C 58.628906 92.871094 58.578125 91.265625 58.105469 89.804688 C 57.84375 88.964844 57.796875 88.339844 58.167969 87.527344 C 59.105469 87.429688 59.402344 87.914062 59.445312 88.59375 Z M 53.476562 86.992188 C 54.246094 87.363281 54.710938 87.589844 55.003906 87.734375 C 55.074219 88.574219 55.148438 89.214844 55.171875 89.859375 C 55.222656 91.25 55.320312 92.652344 55.269531 94.03125 C 55.238281 95.058594 54.929688 95.179688 53.679688 94.945312 C 54.808594 92.386719 53.484375 89.835938 53.476562 86.992188 Z M 50.070312 93.914062 C 49.972656 92.652344 49.746094 91.394531 49.515625 90.148438 C 49.359375 89.230469 49.152344 88.34375 47.941406 88.222656 C 47.730469 88.210938 47.570312 87.726562 47.382812 87.445312 C 47.730469 87.300781 48.230469 86.929688 48.40625 87.042969 C 49.085938 87.503906 49.867188 87.988281 50.242188 88.671875 C 51.210938 90.402344 51.539062 92.363281 51.347656 94.316406 C 51.28125 95.066406 50.699219 95.851562 50.144531 96.445312 C 49.601562 97.011719 49.046875 96.6875 48.691406 95.6875 C 49.851562 95.582031 50.136719 94.785156 50.070312 93.914062 Z M 24.925781 92.628906 C 24.109375 91.757812 22.898438 91.128906 22.753906 89.65625 C 23.851562 89.300781 24.550781 89.714844 25.085938 90.441406 C 26.230469 91.984375 27.328125 93.558594 27.167969 95.832031 C 25.640625 95.105469 25.78125 93.539062 24.925781 92.628906 Z M 16.035156 96.398438 C 16.066406 97.246094 16.003906 98.011719 14.839844 97.90625 C 14.179688 94.574219 14.171875 94.597656 11.546875 92.363281 C 11.25 92.105469 11.167969 91.59375 10.84375 90.882812 C 14.050781 91.601562 15.929688 93.765625 16.035156 96.398438 Z M 114.660156 67.996094 C 114.75 67.964844 114.839844 67.941406 114.929688 67.917969 C 114.976562 68.167969 115.023438 68.433594 115.066406 68.683594 C 115.007812 68.691406 114.953125 68.707031 114.894531 68.714844 C 114.808594 68.472656 114.734375 68.238281 114.660156 67.996094 Z M 114.507812 94.628906 C 114.566406 95.605469 114.664062 96.578125 113.683594 97.261719 C 113.953125 96.382812 114.226562 95.503906 114.507812 94.628906 Z M 115.621094 84.289062 C 116.382812 85.296875 116.382812 85.296875 115.621094 86.355469 C 115.621094 85.660156 115.621094 84.96875 115.621094 84.289062 Z M 104.636719 58.941406 C 105.46875 58.488281 106.023438 58.875 106.523438 59.34375 C 107.144531 59.933594 107.710938 60.578125 108.347656 61.144531 C 111.402344 63.839844 113.175781 67.28125 113.765625 71.226562 C 114.324219 74.941406 114.855469 78.710938 113.855469 82.488281 C 113.515625 83.765625 113.433594 85.144531 113.363281 86.476562 C 113.113281 91.734375 111.996094 96.859375 110.882812 101.976562 C 110.078125 105.660156 109.082031 109.308594 108.058594 112.941406 C 107.542969 114.8125 106.808594 116.621094 106.144531 118.445312 C 105.613281 119.914062 104.464844 120.941406 103.480469 122.109375 C 102.191406 123.621094 101.148438 125.445312 99.605469 126.625 C 97.121094 128.535156 94.328125 130.007812 91.65625 131.660156 C 91.558594 131.726562 91.429688 131.757812 91.316406 131.789062 C 87.820312 132.492188 84.40625 133.671875 80.789062 133.664062 C 80.402344 133.664062 80.011719 133.460938 79.554688 133.339844 C 80.253906 130.265625 80.8125 127.285156 81.613281 124.371094 C 82.453125 121.320312 83.476562 118.316406 84.507812 115.328125 C 85.367188 112.792969 86.253906 110.257812 87.304688 107.804688 C 88.660156 104.65625 90.410156 101.765625 92.90625 99.320312 C 95.070312 97.183594 97.355469 95.203125 99.4375 92.960938 C 102.011719 90.183594 103.132812 86.785156 104.207031 83.417969 C 105.175781 80.390625 106.074219 77.304688 106.167969 74.003906 C 106.234375 71.558594 106.316406 69.136719 106.007812 66.730469 C 105.667969 64.15625 105.113281 61.597656 104.636719 58.941406 Z M 97.75 49.574219 C 97.644531 52.5625 97.910156 53.28125 95.175781 53.597656 C 94.820312 53.636719 94.464844 53.707031 94.117188 53.796875 C 92.132812 54.28125 89.96875 54.175781 88.238281 55.4375 C 86.535156 56.679688 84.890625 58.011719 83.25 59.328125 C 82.347656 60.046875 81.476562 60.8125 80.609375 61.570312 C 80.019531 62.082031 79.472656 61.953125 79.019531 61.417969 C 78.792969 61.144531 78.617188 60.804688 78.496094 60.464844 C 77.066406 56.382812 75.652344 52.304688 74.234375 48.21875 C 74.199219 48.105469 74.167969 47.992188 74.144531 47.871094 C 73.53125 44.828125 72.972656 41.769531 72.296875 38.742188 C 71.414062 34.753906 70.117188 30.886719 68.597656 27.09375 C 67.574219 24.550781 66.53125 22.0625 65.136719 19.671875 C 63.898438 17.527344 63.171875 15.089844 61.96875 12.925781 C 60.582031 10.4375 58.949219 8.097656 57.378906 5.714844 C 56.820312 4.867188 56.988281 4.351562 57.910156 3.746094 C 59.453125 2.738281 60.984375 2.285156 62.707031 3.253906 C 62.90625 3.367188 63.179688 3.382812 63.421875 3.398438 C 65.039062 3.519531 66.539062 3.890625 67.734375 5.109375 C 67.976562 5.351562 68.363281 5.496094 68.710938 5.59375 C 72.515625 6.667969 75.476562 9.148438 78.351562 11.664062 C 79.964844 13.078125 81.289062 14.839844 82.589844 16.566406 C 84.511719 19.132812 86.320312 21.789062 88.136719 24.429688 C 90.03125 27.199219 91.332031 30.289062 92.839844 33.253906 C 93.382812 34.335938 93.9375 35.433594 94.308594 36.585938 C 95.148438 39.1875 95.933594 41.808594 96.628906 44.449219 C 97.152344 46.425781 97.507812 48.453125 97.75 49.574219 Z M 3.789062 101.289062 C 4.847656 101.484375 5.667969 101.621094 6.476562 101.792969 C 7.996094 102.113281 9.449219 102.628906 11.078125 102.378906 C 13.417969 102.023438 15.792969 101.726562 18.152344 101.636719 C 21.082031 101.53125 23.9375 101.175781 26.714844 100.234375 C 27.636719 99.917969 28.667969 99.84375 29.5 99.386719 C 32.246094 97.882812 34.613281 95.851562 36.410156 93.304688 C 38.535156 90.289062 41.199219 87.800781 43.789062 85.242188 C 44.703125 84.34375 46.011719 83.796875 47.195312 83.191406 C 48.382812 82.59375 49.617188 82.054688 50.871094 81.59375 C 52.292969 81.085938 53.734375 80.4375 55.207031 80.308594 C 58.484375 80.011719 61.746094 80.195312 64.675781 82.054688 C 65.742188 82.730469 65.871094 82.964844 65.304688 84.046875 C 62.792969 88.824219 61.65625 93.960938 61.371094 99.304688 C 61.277344 101.121094 61.324219 102.953125 61.375 104.777344 C 61.414062 106.160156 60.960938 107.128906 59.589844 107.621094 C 58.96875 107.839844 58.433594 108.289062 57.828125 108.554688 C 56.660156 109.058594 55.480469 109.515625 54.308594 109.992188 C 54.027344 110.097656 53.71875 110.128906 53.453125 110.25 C 50.78125 111.46875 47.972656 112.230469 45.066406 112.632812 C 44.046875 112.769531 43 112.746094 41.964844 112.851562 C 41.5625 112.890625 41.011719 112.964844 40.796875 113.246094 C 39.777344 114.554688 38.339844 114.820312 36.832031 115.085938 C 35.175781 115.386719 33.53125 115.78125 31.90625 116.210938 C 28.492188 117.128906 25.070312 117.082031 21.613281 116.476562 C 20.320312 116.257812 19.199219 115.75 18.117188 115.03125 C 16.253906 113.796875 13.832031 113.632812 12.167969 111.980469 C 11.484375 111.316406 10.789062 110.664062 10.09375 110.015625 C 8.617188 108.644531 7.089844 107.335938 5.671875 105.910156 C 4.492188 104.738281 3.894531 103.261719 3.789062 101.289062 Z M 78.84375 133.945312 C 77.6875 134.027344 77.066406 133.574219 76.507812 132.984375 C 74.347656 130.707031 72.789062 128.15625 71.804688 125.097656 C 70.542969 121.183594 69.9375 117.179688 69.285156 113.15625 C 68.816406 110.300781 68.914062 107.433594 69.339844 104.585938 C 69.6875 102.25 69.972656 99.855469 70.648438 97.601562 C 71.503906 94.757812 72.722656 92.023438 73.796875 89.246094 C 74.128906 88.398438 74.539062 87.574219 74.847656 86.71875 C 75.75 84.199219 76.632812 81.671875 77.511719 79.136719 C 78.214844 77.113281 79.199219 75.246094 80.386719 73.464844 C 81.652344 71.550781 82.839844 69.582031 84.027344 67.625 C 85.714844 64.832031 87.789062 62.371094 90.476562 60.5 C 93.050781 58.714844 96.054688 57.835938 98.945312 56.71875 C 99.976562 56.324219 100.914062 56.21875 101.84375 56.839844 C 104.117188 62.855469 105.328125 68.957031 104.109375 75.628906 C 102.367188 74.109375 100.875 72.816406 99.347656 71.476562 C 98.660156 71.960938 98.136719 72.324219 97.539062 72.753906 C 98.417969 74.054688 100.027344 73.625 100.839844 74.722656 C 101.585938 75.75 102.625 76.554688 103.773438 77.695312 C 103.335938 78.855469 102.792969 80.300781 102.246094 81.738281 C 100.679688 80.738281 99.136719 80.519531 97.546875 80.550781 C 96.972656 80.558594 96.621094 80.859375 96.933594 81.625 C 98.234375 81.648438 99.558594 81.875 100.511719 82.902344 C 100.882812 83.3125 101.292969 83.964844 101.222656 84.433594 C 101.011719 85.921875 100.761719 87.460938 99.566406 88.679688 C 98.984375 88.246094 98.453125 87.753906 97.832031 87.421875 C 96.984375 86.976562 96.085938 86.589844 95.167969 86.300781 C 94.925781 86.21875 94.558594 86.550781 94.011719 86.800781 C 95.035156 87.421875 95.769531 87.839844 96.464844 88.308594 C 96.949219 88.640625 97.386719 89.050781 97.820312 89.449219 C 98.476562 90.070312 98.46875 90.683594 97.789062 91.320312 C 97.070312 91.976562 96.375 92.652344 95.722656 93.371094 C 93.824219 95.46875 91.402344 96.972656 89.734375 99.386719 C 87.171875 103.113281 85.105469 107.03125 83.605469 111.277344 C 83.082031 112.761719 82.417969 114.199219 82.023438 115.71875 C 81.683594 117.023438 80.933594 118.164062 80.585938 119.390625 C 79.5625 123.007812 78.84375 126.726562 77.988281 130.394531 C 77.800781 131.210938 77.753906 131.902344 78.550781 132.507812 C 78.828125 132.71875 78.746094 133.398438 78.84375 133.945312 Z M 3.644531 99.84375 C 3.230469 98.117188 2.773438 96.792969 2.609375 95.414062 C 2.191406 92.046875 2.617188 88.695312 3.425781 85.453125 C 3.957031 83.304688 5.265625 81.359375 6.089844 79.277344 C 6.816406 77.433594 8.066406 76.144531 9.730469 75.144531 C 11.023438 74.375 12.226562 73.464844 13.460938 72.589844 C 15.066406 71.429688 16.648438 70.242188 18.265625 69.113281 C 18.59375 68.878906 19.0625 68.835938 19.464844 68.714844 C 20.808594 68.3125 22.324219 68.160156 23.472656 67.441406 C 25.011719 66.464844 26.554688 65.65625 28.25 64.980469 C 31.089844 63.847656 33.902344 62.703125 36.953125 62.453125 C 39.351562 62.25 41.828125 61.976562 44.179688 62.316406 C 46.851562 62.710938 49.523438 63.484375 51.925781 64.867188 C 53.128906 65.574219 54.292969 66.34375 55.449219 67.117188 C 59 69.5 62.292969 72.164062 64.875 75.625 C 65.933594 77.039062 65.925781 77.039062 67.628906 76.144531 C 67.304688 75.707031 67.007812 75.246094 66.660156 74.828125 C 65.585938 73.527344 64.488281 72.253906 63.398438 70.953125 C 62.851562 70.300781 62.414062 69.539062 61.777344 68.984375 C 59.863281 67.320312 57.871094 65.722656 55.925781 64.089844 C 55.671875 63.871094 55.359375 63.589844 55.285156 63.292969 C 55.035156 62.304688 54.914062 61.273438 54.695312 60.273438 C 54.566406 59.707031 54.398438 59.117188 54.132812 58.601562 C 52.945312 56.195312 51.636719 53.855469 50.515625 51.417969 C 48.988281 48.089844 47.820312 44.636719 47.109375 41.011719 C 46.429688 37.554688 45.519531 34.125 44.832031 30.660156 C 44.417969 28.570312 44.308594 26.429688 43.917969 24.332031 C 43.273438 20.933594 43.703125 17.621094 44.6875 14.402344 C 45.453125 11.90625 46.550781 9.507812 48.746094 7.839844 C 48.835938 7.773438 48.875 7.628906 48.964844 7.554688 C 49.691406 6.925781 50.355469 6.207031 51.160156 5.714844 C 51.894531 5.269531 52.75 5.167969 53.542969 5.820312 C 55.34375 7.289062 57.34375 8.550781 58.371094 10.792969 C 58.902344 11.941406 59.605469 13.019531 60.226562 14.121094 C 61.390625 16.179688 62.753906 18.148438 63.683594 20.296875 C 65.085938 23.539062 66.910156 26.585938 67.816406 30.046875 C 68.648438 33.21875 69.71875 36.328125 70.550781 39.515625 C 70.957031 41.035156 70.90625 42.6875 71.335938 44.199219 C 72.585938 48.648438 73.863281 53.101562 75.339844 57.472656 C 75.96875 59.328125 76.621094 61.144531 76.914062 63.089844 C 77.019531 63.777344 76.882812 64.246094 76.421875 64.726562 C 74.199219 66.964844 72.296875 69.449219 70.867188 72.285156 C 70.65625 72.71875 70.316406 73.085938 70.101562 73.519531 C 69.035156 75.75 68 77.976562 66.941406 80.210938 C 66.734375 80.640625 66.5 81.050781 66.21875 81.5625 C 65.507812 81.074219 64.84375 80.65625 64.238281 80.164062 C 62.761719 78.976562 60.976562 78.347656 59.21875 78.28125 C 56.851562 78.195312 54.359375 77.773438 52.097656 79.050781 C 51.804688 79.21875 51.378906 79.128906 51.023438 79.195312 C 50.492188 79.324219 49.964844 79.46875 49.441406 79.625 C 47.148438 80.308594 45.605469 82.382812 43.273438 82.988281 C 43.175781 83.015625 43.113281 83.167969 43.023438 83.253906 C 40.746094 85.347656 38.445312 87.421875 36.1875 89.535156 C 35.621094 90.070312 35.144531 90.714844 34.722656 91.367188 C 33.738281 92.894531 32.640625 94.324219 31.332031 95.589844 C 31.125 95.777344 30.875 95.945312 30.617188 96.058594 C 30.027344 96.324219 29.40625 96.503906 28.832031 96.792969 C 27.742188 97.335938 26.699219 97.972656 25.601562 98.480469 C 24.632812 98.933594 24.164062 98.667969 23.859375 97.609375 C 23.566406 96.558594 23.339844 95.476562 22.984375 94.4375 C 22.519531 93.066406 21.636719 91.976562 20.417969 91.214844 C 19.523438 90.644531 19.0625 90.972656 18.851562 92.226562 C 21.289062 93.03125 21.921875 95.171875 22.324219 97.328125 C 22.632812 99 22.226562 99.3125 20.46875 99.441406 C 18.417969 99.59375 16.351562 99.570312 14.332031 100.160156 C 12.113281 100.796875 9.898438 100.675781 7.785156 99.578125 C 6.6875 99.007812 5.53125 98.570312 4.234375 97.996094 C 4.085938 98.464844 3.933594 98.957031 3.644531 99.84375 Z M 113.613281 65.34375 C 113.136719 63.394531 112 61.820312 110.335938 60.578125 C 109.601562 60.03125 109.019531 59.296875 108.300781 58.730469 C 107.445312 58.066406 106.515625 57.480469 105.621094 56.859375 C 105.226562 56.589844 104.757812 56.375 104.457031 56.019531 C 103.820312 55.285156 103.335938 54.394531 102.132812 54.558594 C 102.003906 54.574219 101.777344 54.402344 101.707031 54.265625 C 101.261719 53.347656 100.421875 53.222656 99.445312 53.265625 C 99.445312 51.996094 99.507812 50.851562 99.429688 49.714844 C 99.363281 48.625 99.171875 47.542969 99 46.46875 C 98.855469 45.578125 98.644531 44.691406 98.484375 43.804688 C 98.113281 41.785156 97.855469 39.742188 97.355469 37.765625 C 96.851562 35.761719 96.199219 33.792969 95.433594 31.878906 C 94.214844 28.789062 92.324219 26.109375 90.304688 23.5 C 89.378906 22.3125 88.707031 20.917969 87.882812 19.65625 C 87.488281 19.042969 86.980469 18.511719 86.542969 17.9375 C 85.421875 16.4375 84.332031 14.910156 83.179688 13.441406 C 80.992188 10.648438 78.34375 8.289062 75.484375 6.265625 C 73.28125 4.707031 70.738281 3.609375 68.273438 2.460938 C 66.199219 1.5 64.0625 0.734375 61.761719 0.324219 C 59.710938 -0.03125 57.917969 0.0898438 56.238281 1.339844 C 55.496094 1.890625 54.714844 2.195312 53.71875 2.066406 C 51.910156 1.832031 50.363281 2.648438 49.101562 3.820312 C 46.832031 5.933594 44.492188 8.023438 43.265625 10.988281 C 43.015625 11.59375 42.613281 11.835938 42 11.804688 C 41.644531 11.785156 41.296875 11.746094 40.675781 11.683594 C 40.867188 13.375 39.835938 14.71875 40.304688 16.453125 C 40.617188 17.605469 40.285156 18.972656 40.027344 20.214844 C 39.109375 24.644531 38.226562 29.117188 38.800781 33.632812 C 39.230469 37 40.125 40.324219 41.046875 43.601562 C 42.363281 48.242188 43.917969 52.796875 45.308594 57.414062 C 45.519531 58.125 45.421875 58.941406 45.460938 59.539062 C 43.144531 59.625 41.027344 59.585938 38.9375 59.804688 C 37.066406 59.996094 35.226562 60.433594 33.398438 60.84375 C 31.339844 61.304688 29.28125 61.78125 27.257812 62.386719 C 25.425781 62.945312 23.632812 63.679688 21.847656 64.382812 C 20.71875 64.824219 19.613281 65.332031 18.515625 65.835938 C 17.085938 66.488281 15.664062 67.148438 14.257812 67.835938 C 13.9375 67.996094 13.671875 68.265625 13.394531 68.492188 C 12.644531 69.097656 11.964844 69.789062 11.152344 70.289062 C 7.914062 72.316406 5.273438 74.761719 3.636719 78.386719 C 2.667969 80.542969 1.640625 82.660156 0.921875 84.910156 C 0.558594 86.050781 0.367188 87.300781 0.332031 88.496094 C 0.246094 91.488281 0.300781 94.484375 0.300781 97.464844 C 0.300781 97.707031 0.300781 97.972656 0.390625 98.191406 C 1.65625 101.226562 1.449219 104.550781 2.199219 107.699219 C 2.519531 109.023438 2.972656 110.21875 3.78125 111.339844 C 4.878906 112.867188 5.757812 114.554688 6.855469 116.082031 C 8.558594 118.445312 10.328125 120.8125 12.9375 122.257812 C 14.414062 123.085938 15.996094 123.789062 17.617188 124.257812 C 20.652344 125.113281 23.753906 125.550781 26.949219 125.519531 C 29.113281 125.5 31.285156 125.976562 33.457031 126.171875 C 34.546875 126.261719 35.644531 126.203125 36.734375 126.253906 C 37.398438 126.285156 38.058594 126.40625 38.726562 126.46875 C 39.203125 126.503906 39.738281 126.640625 40.132812 126.476562 C 41.457031 125.929688 42.78125 126.027344 44.097656 126.300781 C 45.398438 126.589844 46.617188 126.375 47.882812 126.066406 C 50 125.542969 52.171875 125.21875 54.300781 124.703125 C 55.691406 124.347656 57.046875 123.824219 58.402344 123.328125 C 58.96875 123.113281 59.46875 122.734375 60.03125 122.492188 C 61.503906 121.859375 62.351562 122.144531 63.191406 123.523438 C 63.699219 124.347656 64.167969 125.210938 64.714844 126.019531 C 65.554688 127.285156 66.628906 128.335938 67.726562 129.402344 C 69.605469 131.226562 71.917969 132.71875 72.738281 135.578125 C 74.296875 133.339844 74.273438 133.371094 76.226562 134.867188 C 76.777344 135.292969 77.558594 135.398438 78.171875 135.753906 C 79.640625 136.601562 81.054688 136.714844 82.546875 135.785156 C 82.847656 135.601562 83.371094 135.785156 83.785156 135.738281 C 84.679688 135.632812 85.589844 135.542969 86.464844 135.335938 C 87.640625 135.066406 88.773438 134.488281 89.960938 134.390625 C 92.242188 134.21875 94.1875 133.25 96.125 132.21875 C 97.613281 131.410156 99.144531 130.605469 100.445312 129.546875 C 101.898438 128.359375 103.15625 126.929688 104.410156 125.519531 C 105.339844 124.484375 106.203125 123.355469 106.960938 122.191406 C 107.484375 121.382812 107.863281 120.464844 108.164062 119.550781 C 108.980469 117.128906 109.753906 114.691406 110.488281 112.238281 C 110.917969 110.785156 111.238281 109.292969 111.617188 107.835938 C 111.714844 107.425781 111.796875 107 111.957031 106.617188 C 113.03125 104.003906 114.21875 101.421875 115.148438 98.765625 C 115.574219 97.546875 116.003906 96.222656 115.628906 94.824219 C 115.460938 94.210938 115.597656 93.523438 115.597656 92.710938 C 115.371094 93.015625 115.1875 93.25 114.832031 93.71875 C 114.945312 91.515625 115.050781 89.570312 115.148438 87.625 C 115.285156 87.617188 115.414062 87.597656 115.550781 87.597656 C 115.628906 88.59375 115.710938 89.59375 115.792969 90.761719 C 116.785156 90.3125 116.777344 89.625 116.824219 88.996094 C 116.960938 86.871094 117.082031 84.726562 117.1875 82.601562 C 117.253906 81.253906 117.328125 79.914062 117.324219 78.582031 C 117.316406 77.425781 117.179688 76.289062 117.125 75.132812 C 117.058594 73.617188 116.960938 72.105469 116.972656 70.597656 C 116.996094 68.691406 115.816406 67.28125 115.027344 65.730469 C 114.902344 65.480469 114.234375 65.503906 113.613281 65.34375 Z M 113.613281 65.34375 " fill-opacity="1" fill-rule="nonzero"/></g><g clip-path="url(#2cc37a75bd)"><path fill="#502412" d="M 91.242188 117.027344 C 90.347656 115.28125 89.507812 113.484375 87.183594 113.257812 C 87.078125 113.242188 86.882812 112.8125 86.941406 112.652344 C 87.027344 112.410156 87.328125 112.054688 87.496094 112.078125 C 88.253906 112.191406 89.183594 112.199219 89.699219 112.652344 C 90.554688 113.386719 91.203125 114.402344 91.792969 115.386719 C 92.050781 115.824219 91.953125 116.484375 92.035156 117.230469 C 91.460938 117.082031 91.28125 117.089844 91.242188 117.027344 Z M 89.0625 107.976562 C 91.589844 107.832031 93.089844 109.414062 94.464844 111.140625 C 94.925781 111.714844 94.921875 112.472656 94.148438 113.09375 C 93.300781 112.070312 92.640625 110.882812 91.644531 110.214844 C 90.644531 109.558594 89.296875 109.4375 87.972656 109.042969 C 87.910156 108.1875 88.304688 108.015625 89.0625 107.976562 Z M 85.722656 117.84375 C 86.503906 118.300781 87.367188 118.730469 87.933594 119.398438 C 88.863281 120.507812 89.675781 121.742188 90.371094 123.023438 C 90.910156 123.992188 91.300781 125.089844 90.800781 126.535156 C 89.078125 123.460938 87.503906 120.539062 84.679688 118.441406 C 84.777344 117.695312 85.226562 117.566406 85.722656 117.84375 Z M 84.128906 56.070312 C 82.582031 55.632812 81.039062 55.769531 79.488281 55.84375 C 79.359375 55.851562 79.222656 55.671875 79.078125 55.574219 C 80.472656 54.277344 83.5 54.097656 85.261719 55.382812 C 84.761719 55.695312 84.378906 56.132812 84.128906 56.070312 Z M 78.316406 49.980469 C 79.214844 48.964844 82.796875 48.359375 83.898438 49.085938 C 84.234375 49.304688 84.429688 50.011719 84.382812 50.457031 C 84.316406 51.054688 83.386719 51.3125 82.929688 50.773438 C 82.070312 49.78125 81.199219 50.199219 80.296875 50.496094 C 79.570312 50.730469 78.875 51.046875 77.808594 51.464844 C 78.035156 50.765625 78.058594 50.265625 78.316406 49.980469 Z M 77.429688 47.082031 C 78.050781 45.421875 79.292969 45.066406 80.675781 44.929688 C 81.273438 44.871094 81.878906 44.824219 82.441406 44.660156 C 83.445312 44.371094 84.242188 44.589844 84.679688 45.535156 C 84.855469 45.921875 84.863281 46.503906 84.671875 46.863281 C 84.550781 47.105469 83.929688 47.226562 83.574219 47.15625 C 82.808594 47.003906 82.070312 46.695312 81.320312 46.445312 C 80.117188 47.035156 78.914062 47.65625 77.429688 47.082031 Z M 59.445312 88.328125 C 59.554688 90.113281 59.660156 91.910156 59.679688 93.703125 C 59.6875 94.15625 59.363281 94.617188 59.195312 95.070312 C 58.847656 94.695312 58.878906 94.414062 58.839844 94.148438 C 58.628906 92.605469 58.578125 91 58.105469 89.539062 C 57.84375 88.699219 57.796875 88.070312 58.167969 87.261719 C 59.105469 87.164062 59.402344 87.648438 59.445312 88.328125 Z M 53.476562 86.722656 C 54.246094 87.09375 54.710938 87.320312 55.003906 87.464844 C 55.074219 88.304688 55.148438 88.949219 55.171875 89.59375 C 55.222656 90.984375 55.320312 92.386719 55.269531 93.761719 C 55.238281 94.792969 54.929688 94.914062 53.679688 94.679688 C 54.808594 92.121094 53.484375 89.570312 53.476562 86.722656 Z M 50.070312 93.648438 C 49.972656 92.386719 49.746094 91.128906 49.515625 89.878906 C 49.359375 88.964844 49.152344 88.078125 47.941406 87.957031 C 47.730469 87.941406 47.570312 87.457031 47.382812 87.179688 C 47.730469 87.035156 48.230469 86.664062 48.40625 86.777344 C 49.085938 87.238281 49.867188 87.722656 50.242188 88.402344 C 51.210938 90.136719 51.539062 92.097656 51.347656 94.050781 C 51.28125 94.800781 50.699219 95.585938 50.144531 96.175781 C 49.601562 96.746094 49.046875 96.417969 48.691406 95.421875 C 49.851562 95.3125 50.136719 94.519531 50.070312 93.648438 Z M 24.925781 92.363281 C 24.109375 91.492188 22.898438 90.863281 22.753906 89.386719 C 23.851562 89.03125 24.550781 89.449219 25.085938 90.175781 C 26.230469 91.71875 27.328125 93.292969 27.167969 95.5625 C 25.640625 94.835938 25.78125 93.269531 24.925781 92.363281 Z M 16.035156 96.132812 C 16.066406 96.980469 16.003906 97.742188 14.839844 97.636719 C 14.179688 94.308594 14.171875 94.332031 11.546875 92.097656 C 11.25 91.839844 11.167969 91.324219 10.84375 90.613281 C 14.050781 91.332031 15.929688 93.496094 16.035156 96.132812 Z M 114.660156 67.726562 C 114.75 67.695312 114.839844 67.675781 114.929688 67.652344 C 114.976562 67.902344 115.023438 68.167969 115.066406 68.417969 C 115.007812 68.421875 114.953125 68.4375 114.894531 68.445312 C 114.808594 68.203125 114.734375 67.96875 114.660156 67.726562 Z M 114.507812 94.359375 C 114.566406 95.335938 114.664062 96.3125 113.683594 96.996094 C 113.953125 96.117188 114.226562 95.238281 114.507812 94.359375 Z M 115.621094 84.023438 C 116.382812 85.027344 116.382812 85.027344 115.621094 86.089844 C 115.621094 85.390625 115.621094 84.703125 115.621094 84.023438 Z M 104.636719 58.675781 C 105.46875 58.222656 106.023438 58.609375 106.523438 59.078125 C 107.144531 59.667969 107.710938 60.308594 108.347656 60.878906 C 111.402344 63.574219 113.175781 67.015625 113.765625 70.960938 C 114.324219 74.675781 114.855469 78.445312 113.855469 82.222656 C 113.515625 83.5 113.433594 84.878906 113.363281 86.210938 C 113.113281 91.46875 111.996094 96.59375 110.882812 101.710938 C 110.078125 105.394531 109.082031 109.042969 108.058594 112.675781 C 107.542969 114.546875 106.808594 116.355469 106.144531 118.179688 C 105.613281 119.644531 104.464844 120.675781 103.480469 121.839844 C 102.191406 123.355469 101.148438 125.179688 99.605469 126.359375 C 97.121094 128.265625 94.328125 129.742188 91.65625 131.394531 C 91.558594 131.460938 91.429688 131.492188 91.316406 131.519531 C 87.820312 132.226562 84.40625 133.40625 80.789062 133.398438 C 80.402344 133.398438 80.011719 133.195312 79.554688 133.074219 C 80.253906 130 80.8125 127.019531 81.613281 124.105469 C 82.453125 121.054688 83.476562 118.050781 84.507812 115.058594 C 85.367188 112.523438 86.253906 109.988281 87.304688 107.535156 C 88.660156 104.386719 90.410156 101.496094 92.90625 99.054688 C 95.070312 96.917969 97.355469 94.9375 99.4375 92.695312 C 102.011719 89.917969 103.132812 86.519531 104.207031 83.152344 C 105.175781 80.125 106.074219 77.035156 106.167969 73.738281 C 106.234375 71.292969 106.316406 68.871094 106.007812 66.464844 C 105.667969 63.890625 105.113281 61.332031 104.636719 58.675781 Z M 97.75 49.304688 C 97.644531 52.296875 97.910156 53.015625 95.175781 53.332031 C 94.820312 53.371094 94.464844 53.4375 94.117188 53.527344 C 92.132812 54.011719 89.96875 53.90625 88.238281 55.171875 C 86.535156 56.414062 84.890625 57.746094 83.25 59.0625 C 82.347656 59.78125 81.476562 60.546875 80.609375 61.300781 C 80.019531 61.816406 79.472656 61.6875 79.019531 61.152344 C 78.792969 60.878906 78.617188 60.539062 78.496094 60.195312 C 77.066406 56.117188 75.652344 52.039062 74.234375 47.953125 C 74.199219 47.835938 74.167969 47.722656 74.144531 47.601562 C 73.53125 44.5625 72.972656 41.503906 72.296875 38.476562 C 71.414062 34.488281 70.117188 30.621094 68.597656 26.828125 C 67.574219 24.285156 66.53125 21.796875 65.136719 19.402344 C 63.898438 17.261719 63.171875 14.824219 61.96875 12.660156 C 60.582031 10.171875 58.949219 7.832031 57.378906 5.449219 C 56.820312 4.601562 56.988281 4.085938 57.910156 3.480469 C 59.453125 2.472656 60.984375 2.019531 62.707031 2.988281 C 62.90625 3.101562 63.179688 3.117188 63.421875 3.132812 C 65.039062 3.253906 66.539062 3.625 67.734375 4.84375 C 67.976562 5.085938 68.363281 5.226562 68.710938 5.328125 C 72.515625 6.402344 75.476562 8.882812 78.351562 11.394531 C 79.964844 12.8125 81.289062 14.574219 82.589844 16.300781 C 84.511719 18.867188 86.320312 21.523438 88.136719 24.164062 C 90.03125 26.933594 91.332031 30.023438 92.839844 32.988281 C 93.382812 34.070312 93.9375 35.167969 94.308594 36.320312 C 95.148438 38.921875 95.933594 41.539062 96.628906 44.183594 C 97.152344 46.15625 97.507812 48.1875 97.75 49.304688 Z M 3.789062 101.019531 C 4.847656 101.21875 5.667969 101.355469 6.476562 101.527344 C 7.996094 101.84375 9.449219 102.359375 11.078125 102.109375 C 13.417969 101.753906 15.792969 101.460938 18.152344 101.367188 C 21.082031 101.261719 23.9375 100.90625 26.714844 99.96875 C 27.636719 99.652344 28.667969 99.574219 29.5 99.121094 C 32.246094 97.613281 34.613281 95.585938 36.410156 93.035156 C 38.535156 90.023438 41.199219 87.535156 43.789062 84.976562 C 44.703125 84.074219 46.011719 83.53125 47.195312 82.925781 C 48.382812 82.328125 49.617188 81.789062 50.871094 81.328125 C 52.292969 80.820312 53.734375 80.167969 55.207031 80.042969 C 58.484375 79.746094 61.746094 79.925781 64.675781 81.789062 C 65.742188 82.464844 65.871094 82.699219 65.304688 83.78125 C 62.792969 88.554688 61.65625 93.695312 61.371094 99.039062 C 61.277344 100.855469 61.324219 102.6875 61.375 104.507812 C 61.414062 105.894531 60.960938 106.863281 59.589844 107.355469 C 58.96875 107.574219 58.433594 108.019531 57.828125 108.285156 C 56.660156 108.792969 55.480469 109.246094 54.308594 109.722656 C 54.027344 109.832031 53.71875 109.859375 53.453125 109.980469 C 50.78125 111.199219 47.972656 111.964844 45.066406 112.367188 C 44.046875 112.5 43 112.480469 41.964844 112.585938 C 41.5625 112.621094 41.011719 112.699219 40.796875 112.980469 C 39.777344 114.289062 38.339844 114.554688 36.832031 114.816406 C 35.175781 115.121094 33.53125 115.515625 31.90625 115.945312 C 28.492188 116.859375 25.070312 116.816406 21.613281 116.210938 C 20.320312 115.992188 19.199219 115.484375 18.117188 114.765625 C 16.253906 113.53125 13.832031 113.363281 12.167969 111.714844 C 11.484375 111.046875 10.789062 110.398438 10.09375 109.746094 C 8.617188 108.378906 7.089844 107.066406 5.671875 105.644531 C 4.492188 104.472656 3.894531 102.996094 3.789062 101.019531 Z M 78.84375 133.679688 C 77.6875 133.761719 77.066406 133.308594 76.507812 132.71875 C 74.347656 130.4375 72.789062 127.886719 71.804688 124.832031 C 70.542969 120.917969 69.9375 116.914062 69.285156 112.886719 C 68.816406 110.035156 68.914062 107.167969 69.339844 104.320312 C 69.6875 101.980469 69.972656 99.589844 70.648438 97.335938 C 71.503906 94.488281 72.722656 91.757812 73.796875 88.980469 C 74.128906 88.132812 74.539062 87.308594 74.847656 86.453125 C 75.75 83.929688 76.632812 81.402344 77.511719 78.867188 C 78.214844 76.847656 79.199219 74.976562 80.386719 73.199219 C 81.652344 71.285156 82.839844 69.316406 84.027344 67.355469 C 85.714844 64.5625 87.789062 62.105469 90.476562 60.234375 C 93.050781 58.449219 96.054688 57.570312 98.945312 56.449219 C 99.976562 56.058594 100.914062 55.949219 101.84375 56.570312 C 104.117188 62.589844 105.328125 68.6875 104.109375 75.363281 C 102.367188 73.84375 100.875 72.546875 99.347656 71.207031 C 98.660156 71.691406 98.136719 72.054688 97.539062 72.488281 C 98.417969 73.789062 100.027344 73.359375 100.839844 74.457031 C 101.585938 75.484375 102.625 76.289062 103.773438 77.429688 C 103.335938 78.589844 102.792969 80.035156 102.246094 81.472656 C 100.679688 80.472656 99.136719 80.253906 97.546875 80.285156 C 96.972656 80.289062 96.621094 80.59375 96.933594 81.359375 C 98.234375 81.378906 99.558594 81.609375 100.511719 82.636719 C 100.882812 83.046875 101.292969 83.695312 101.222656 84.164062 C 101.011719 85.65625 100.761719 87.191406 99.566406 88.410156 C 98.984375 87.980469 98.453125 87.488281 97.832031 87.15625 C 96.984375 86.707031 96.085938 86.324219 95.167969 86.035156 C 94.925781 85.953125 94.558594 86.285156 94.011719 86.535156 C 95.035156 87.15625 95.769531 87.570312 96.464844 88.039062 C 96.949219 88.375 97.386719 88.78125 97.820312 89.183594 C 98.476562 89.804688 98.46875 90.417969 97.789062 91.054688 C 97.070312 91.710938 96.375 92.386719 95.722656 93.105469 C 93.824219 95.199219 91.402344 96.707031 89.734375 99.121094 C 87.171875 102.84375 85.105469 106.765625 83.605469 111.011719 C 83.082031 112.496094 82.417969 113.933594 82.023438 115.453125 C 81.683594 116.753906 80.933594 117.898438 80.585938 119.125 C 79.5625 122.742188 78.84375 126.457031 77.988281 130.128906 C 77.800781 130.945312 77.753906 131.636719 78.550781 132.242188 C 78.828125 132.453125 78.746094 133.132812 78.84375 133.679688 Z M 3.644531 99.574219 C 3.230469 97.847656 2.773438 96.523438 2.609375 95.148438 C 2.191406 91.78125 2.617188 88.425781 3.425781 85.1875 C 3.957031 83.039062 5.265625 81.09375 6.089844 79.011719 C 6.816406 77.164062 8.066406 75.878906 9.730469 74.878906 C 11.023438 74.109375 12.226562 73.199219 13.460938 72.320312 C 15.066406 71.164062 16.648438 69.976562 18.265625 68.847656 C 18.59375 68.613281 19.0625 68.566406 19.464844 68.445312 C 20.808594 68.046875 22.324219 67.894531 23.472656 67.175781 C 25.011719 66.199219 26.554688 65.390625 28.25 64.714844 C 31.089844 63.578125 33.902344 62.4375 36.953125 62.1875 C 39.351562 61.984375 41.828125 61.710938 44.179688 62.050781 C 46.851562 62.445312 49.523438 63.214844 51.925781 64.601562 C 53.128906 65.304688 54.292969 66.078125 55.449219 66.847656 C 59 69.234375 62.292969 71.898438 64.875 75.355469 C 65.933594 76.773438 65.925781 76.773438 67.628906 75.878906 C 67.304688 75.441406 67.007812 74.976562 66.660156 74.5625 C 65.585938 73.261719 64.488281 71.988281 63.398438 70.6875 C 62.851562 70.035156 62.414062 69.269531 61.777344 68.71875 C 59.863281 67.054688 57.871094 65.457031 55.925781 63.820312 C 55.671875 63.601562 55.359375 63.324219 55.285156 63.027344 C 55.035156 62.035156 54.914062 61.007812 54.695312 60.007812 C 54.566406 59.441406 54.398438 58.851562 54.132812 58.335938 C 52.945312 55.929688 51.636719 53.589844 50.515625 51.152344 C 48.988281 47.824219 47.820312 44.371094 47.109375 40.746094 C 46.429688 37.289062 45.519531 33.859375 44.832031 30.394531 C 44.417969 28.304688 44.308594 26.160156 43.917969 24.066406 C 43.273438 20.667969 43.703125 17.351562 44.6875 14.136719 C 45.453125 11.636719 46.550781 9.238281 48.746094 7.574219 C 48.835938 7.507812 48.875 7.363281 48.964844 7.285156 C 49.691406 6.660156 50.355469 5.9375 51.160156 5.449219 C 51.894531 5 52.75 4.902344 53.542969 5.554688 C 55.34375 7.023438 57.34375 8.285156 58.371094 10.527344 C 58.902344 11.675781 59.605469 12.75 60.226562 13.855469 C 61.390625 15.914062 62.753906 17.882812 63.683594 20.03125 C 65.085938 23.269531 66.910156 26.320312 67.816406 29.78125 C 68.648438 32.949219 69.71875 36.0625 70.550781 39.246094 C 70.957031 40.769531 70.90625 42.417969 71.335938 43.933594 C 72.585938 48.382812 73.863281 52.832031 75.339844 57.207031 C 75.96875 59.0625 76.621094 60.878906 76.914062 62.824219 C 77.019531 63.511719 76.882812 63.980469 76.421875 64.457031 C 74.199219 66.699219 72.296875 69.179688 70.867188 72.019531 C 70.65625 72.449219 70.316406 72.820312 70.101562 73.253906 C 69.035156 75.484375 68 77.710938 66.941406 79.941406 C 66.734375 80.375 66.5 80.78125 66.21875 81.296875 C 65.507812 80.804688 64.84375 80.390625 64.238281 79.898438 C 62.761719 78.710938 60.976562 78.082031 59.21875 78.011719 C 56.851562 77.929688 54.359375 77.503906 52.097656 78.785156 C 51.804688 78.953125 51.378906 78.859375 51.023438 78.929688 C 50.492188 79.058594 49.964844 79.199219 49.441406 79.359375 C 47.148438 80.042969 45.605469 82.113281 43.273438 82.71875 C 43.175781 82.75 43.113281 82.902344 43.023438 82.984375 C 40.746094 85.082031 38.445312 87.15625 36.1875 89.265625 C 35.621094 89.804688 35.144531 90.449219 34.722656 91.097656 C 33.738281 92.628906 32.640625 94.058594 31.332031 95.320312 C 31.125 95.511719 30.875 95.675781 30.617188 95.789062 C 30.027344 96.054688 29.40625 96.238281 28.832031 96.523438 C 27.742188 97.070312 26.699219 97.707031 25.601562 98.210938 C 24.632812 98.667969 24.164062 98.402344 23.859375 97.34375 C 23.566406 96.289062 23.339844 95.207031 22.984375 94.171875 C 22.519531 92.800781 21.636719 91.710938 20.417969 90.945312 C 19.523438 90.378906 19.0625 90.703125 18.851562 91.960938 C 21.289062 92.761719 21.921875 94.90625 22.324219 97.0625 C 22.632812 98.734375 22.226562 99.046875 20.46875 99.175781 C 18.417969 99.324219 16.351562 99.300781 14.332031 99.894531 C 12.113281 100.527344 9.898438 100.40625 7.785156 99.308594 C 6.6875 98.742188 5.53125 98.304688 4.234375 97.726562 C 4.085938 98.199219 3.933594 98.691406 3.644531 99.574219 Z M 113.613281 65.078125 C 113.136719 63.125 112 61.550781 110.335938 60.308594 C 109.601562 59.765625 109.019531 59.03125 108.300781 58.464844 C 107.445312 57.796875 106.515625 57.214844 105.621094 56.59375 C 105.226562 56.320312 104.757812 56.109375 104.457031 55.753906 C 103.820312 55.019531 103.335938 54.128906 102.132812 54.292969 C 102.003906 54.308594 101.777344 54.132812 101.707031 54 C 101.261719 53.082031 100.421875 52.953125 99.445312 53 C 99.445312 51.726562 99.507812 50.585938 99.429688 49.449219 C 99.363281 48.359375 99.171875 47.277344 99 46.203125 C 98.855469 45.308594 98.644531 44.425781 98.484375 43.539062 C 98.113281 41.519531 97.855469 39.476562 97.355469 37.5 C 96.851562 35.492188 96.199219 33.527344 95.433594 31.609375 C 94.214844 28.523438 92.324219 25.84375 90.304688 23.234375 C 89.378906 22.042969 88.707031 20.652344 87.882812 19.386719 C 87.488281 18.773438 86.980469 18.246094 86.542969 17.671875 C 85.421875 16.171875 84.332031 14.644531 83.179688 13.175781 C 80.992188 10.382812 78.34375 8.019531 75.484375 6 C 73.28125 4.441406 70.738281 3.34375 68.273438 2.191406 C 66.199219 1.230469 64.0625 0.46875 61.761719 0.0585938 C 59.710938 -0.296875 57.917969 -0.175781 56.238281 1.074219 C 55.496094 1.625 54.714844 1.929688 53.71875 1.800781 C 51.910156 1.566406 50.363281 2.382812 49.101562 3.554688 C 46.832031 5.667969 44.492188 7.753906 43.265625 10.722656 C 43.015625 11.328125 42.613281 11.570312 42 11.539062 C 41.644531 11.515625 41.296875 11.480469 40.675781 11.417969 C 40.867188 13.105469 39.835938 14.453125 40.304688 16.1875 C 40.617188 17.335938 40.285156 18.707031 40.027344 19.949219 C 39.109375 24.375 38.226562 28.847656 38.800781 33.367188 C 39.230469 36.734375 40.125 40.058594 41.046875 43.335938 C 42.363281 47.972656 43.917969 52.53125 45.308594 57.148438 C 45.519531 57.859375 45.421875 58.675781 45.460938 59.273438 C 43.144531 59.355469 41.027344 59.320312 38.9375 59.539062 C 37.066406 59.726562 35.226562 60.167969 33.398438 60.574219 C 31.339844 61.035156 29.28125 61.515625 27.257812 62.121094 C 25.425781 62.679688 23.632812 63.414062 21.847656 64.117188 C 20.71875 64.554688 19.613281 65.0625 18.515625 65.570312 C 17.085938 66.222656 15.664062 66.878906 14.257812 67.570312 C 13.9375 67.726562 13.671875 68 13.394531 68.226562 C 12.644531 68.832031 11.964844 69.519531 11.152344 70.019531 C 7.914062 72.050781 5.273438 74.492188 3.636719 78.117188 C 2.667969 80.277344 1.640625 82.394531 0.921875 84.644531 C 0.558594 85.785156 0.367188 87.035156 0.332031 88.230469 C 0.246094 91.21875 0.300781 94.214844 0.300781 97.199219 C 0.300781 97.441406 0.300781 97.707031 0.390625 97.925781 C 1.65625 100.960938 1.449219 104.28125 2.199219 107.429688 C 2.519531 108.753906 2.972656 109.953125 3.78125 111.070312 C 4.878906 112.601562 5.757812 114.289062 6.855469 115.816406 C 8.558594 118.179688 10.328125 120.546875 12.9375 121.992188 C 14.414062 122.816406 15.996094 123.519531 17.617188 123.992188 C 20.652344 124.847656 23.753906 125.285156 26.949219 125.253906 C 29.113281 125.230469 31.285156 125.707031 33.457031 125.90625 C 34.546875 125.996094 35.644531 125.9375 36.734375 125.988281 C 37.398438 126.019531 38.058594 126.140625 38.726562 126.199219 C 39.203125 126.238281 39.738281 126.375 40.132812 126.207031 C 41.457031 125.664062 42.78125 125.761719 44.097656 126.035156 C 45.398438 126.320312 46.617188 126.109375 47.882812 125.800781 C 50 125.277344 52.171875 124.953125 54.300781 124.4375 C 55.691406 124.082031 57.046875 123.558594 58.402344 123.058594 C 58.96875 122.847656 59.46875 122.46875 60.03125 122.226562 C 61.503906 121.589844 62.351562 121.878906 63.191406 123.257812 C 63.699219 124.082031 64.167969 124.945312 64.714844 125.753906 C 65.554688 127.019531 66.628906 128.070312 67.726562 129.136719 C 69.605469 130.960938 71.917969 132.453125 72.738281 135.3125 C 74.296875 133.074219 74.273438 133.101562 76.226562 134.601562 C 76.777344 135.023438 77.558594 135.132812 78.171875 135.488281 C 79.640625 136.335938 81.054688 136.449219 82.546875 135.515625 C 82.847656 135.335938 83.371094 135.515625 83.785156 135.472656 C 84.679688 135.367188 85.589844 135.273438 86.464844 135.070312 C 87.640625 134.796875 88.773438 134.222656 89.960938 134.125 C 92.242188 133.949219 94.1875 132.980469 96.125 131.953125 C 97.613281 131.144531 99.144531 130.339844 100.445312 129.28125 C 101.898438 128.09375 103.15625 126.664062 104.410156 125.253906 C 105.339844 124.21875 106.203125 123.089844 106.960938 121.925781 C 107.484375 121.113281 107.863281 120.199219 108.164062 119.28125 C 108.980469 116.859375 109.753906 114.425781 110.488281 111.972656 C 110.917969 110.519531 111.238281 109.027344 111.617188 107.566406 C 111.714844 107.160156 111.796875 106.734375 111.957031 106.347656 C 113.03125 103.738281 114.21875 101.15625 115.148438 98.5 C 115.574219 97.28125 116.003906 95.957031 115.628906 94.558594 C 115.460938 93.945312 115.597656 93.253906 115.597656 92.445312 C 115.371094 92.75 115.1875 92.984375 114.832031 93.453125 C 114.945312 91.25 115.050781 89.304688 115.148438 87.359375 C 115.285156 87.351562 115.414062 87.328125 115.550781 87.328125 C 115.628906 88.328125 115.710938 89.328125 115.792969 90.492188 C 116.785156 90.046875 116.777344 89.359375 116.824219 88.730469 C 116.960938 86.601562 117.082031 84.460938 117.1875 82.335938 C 117.253906 80.988281 117.328125 79.648438 117.324219 78.316406 C 117.316406 77.15625 117.179688 76.023438 117.125 74.863281 C 117.058594 73.351562 116.960938 71.835938 116.972656 70.332031 C 116.996094 68.421875 115.816406 67.015625 115.027344 65.464844 C 114.902344 65.214844 114.234375 65.238281 113.613281 65.078125 Z M 113.613281 65.078125 " fill-opacity="1" fill-rule="nonzero"/></g></svg>